<?xml version="1.0" encoding="UTF-8"?>
<!DOCTYPE svg PUBLIC "-//W3C//DTD SVG 1.1//EN" "http://www.w3.org/Graphics/SVG/1.1/DTD/svg11.dtd">
<!-- Creator: CorelDRAW 2019 (64-Bit) -->
<svg xmlns="http://www.w3.org/2000/svg" xml:space="preserve" width="11297px" height="5339px" version="1.1" style="shape-rendering:geometricPrecision; text-rendering:geometricPrecision; image-rendering:optimizeQuality; fill-rule:evenodd; clip-rule:evenodd"
viewBox="0 0 4106.96 1941"
 xmlns:xlink="http://www.w3.org/1999/xlink"
 xmlns:xodm="http://www.corel.com/coreldraw/odm/2003">
 <defs>
  <style type="text/css">
   <![CDATA[
    .fil51 {fill:#0E2C4F;fill-rule:nonzero}
    .fil50 {fill:#163560;fill-rule:nonzero}
    .fil39 {fill:#192E4F;fill-rule:nonzero}
    .fil33 {fill:#1B407A;fill-rule:nonzero}
    .fil38 {fill:#233862;fill-rule:nonzero}
    .fil22 {fill:#2A4E96;fill-rule:nonzero}
    .fil10 {fill:#2B478B;fill-rule:nonzero}
    .fil32 {fill:#2C3A64;fill-rule:nonzero}
    .fil59 {fill:#2E3552;fill-rule:nonzero}
    .fil57 {fill:#5D86E2;fill-rule:nonzero}
    .fil21 {fill:#618DC1;fill-rule:nonzero}
    .fil41 {fill:#699DEE;fill-rule:nonzero}
    .fil53 {fill:#77A4E5;fill-rule:nonzero}
    .fil56 {fill:#7F9EF4;fill-rule:nonzero}
    .fil48 {fill:#8AA8ED;fill-rule:nonzero}
    .fil36 {fill:#8DB0FF;fill-rule:nonzero}
    .fil18 {fill:#98B5F4;fill-rule:nonzero}
    .fil8 {fill:#9EB1D2;fill-rule:nonzero}
    .fil16 {fill:#AEC3FF;fill-rule:nonzero}
    .fil9 {fill:#B4CAE3;fill-rule:nonzero}
    .fil27 {fill:#B7D3F3;fill-rule:nonzero}
    .fil25 {fill:#C0D8FB;fill-rule:nonzero}
    .fil29 {fill:#C15E1B;fill-rule:nonzero}
    .fil40 {fill:#C1D4F7;fill-rule:nonzero}
    .fil19 {fill:#C3DAFC;fill-rule:nonzero}
    .fil24 {fill:#C5D7FF;fill-rule:nonzero}
    .fil55 {fill:#CC6A27;fill-rule:nonzero}
    .fil3 {fill:#CCE0F7;fill-rule:nonzero}
    .fil7 {fill:#D1E2F5;fill-rule:nonzero}
    .fil23 {fill:#D2E0FF;fill-rule:nonzero}
    .fil20 {fill:#D4E4F8;fill-rule:nonzero}
    .fil35 {fill:#D7E6FB;fill-rule:nonzero}
    .fil43 {fill:#D86713;fill-rule:nonzero}
    .fil28 {fill:#D8702A;fill-rule:nonzero}
    .fil1 {fill:#DBE9FB;fill-rule:nonzero}
    .fil13 {fill:#DD732C;fill-rule:nonzero}
    .fil17 {fill:#DDE7FE;fill-rule:nonzero}
    .fil26 {fill:#DFEBFD;fill-rule:nonzero}
    .fil34 {fill:#E27830;fill-rule:nonzero}
    .fil2 {fill:#E2EDF9;fill-rule:nonzero}
    .fil6 {fill:#E3EEFE;fill-rule:nonzero}
    .fil46 {fill:#E58433;fill-rule:nonzero}
    .fil47 {fill:#E78B37;fill-rule:nonzero}
    .fil4 {fill:#E8F2FC;fill-rule:nonzero}
    .fil42 {fill:#E9F3FE;fill-rule:nonzero}
    .fil52 {fill:#EAA16E;fill-rule:nonzero}
    .fil0 {fill:#EBF3FA;fill-rule:nonzero}
    .fil11 {fill:#ED823A;fill-rule:nonzero}
    .fil31 {fill:#ED975D;fill-rule:nonzero}
    .fil44 {fill:#EE9849;fill-rule:nonzero}
    .fil45 {fill:#F1A34F;fill-rule:nonzero}
    .fil5 {fill:#F3F8FC;fill-rule:nonzero}
    .fil54 {fill:#F99746;fill-rule:nonzero}
    .fil49 {fill:#F9DDBF;fill-rule:nonzero}
    .fil58 {fill:#FCA56B;fill-rule:nonzero}
    .fil37 {fill:#FF9843;fill-rule:nonzero}
    .fil12 {fill:#FF9E55;fill-rule:nonzero}
    .fil14 {fill:#FFB27D;fill-rule:nonzero}
    .fil30 {fill:#FFC299;fill-rule:nonzero}
    .fil15 {fill:white;fill-rule:nonzero}
   ]]>
  </style>
 </defs>
 <g id="__x0023_Layer_x0020_1">
  <metadata id="CorelCorpID_0Corel-Layer"/>
  <g id="_2510048428656">
   <path class="fil0" d="M4049.43 1813.35c-0.56,1.73 -1.18,3.46 -1.73,5.2 -5.05,14.73 -10.55,29.69 -16.61,44.88 -0.84,2.11 -1.71,4.23 -2.57,6.34 -7.36,18.08 -15.47,36.49 -24.41,55.24l-0.03 0.03c-0.09,0.21 -0.18,0.45 -0.31,0.66l-3788.93 5.15c0.89,-15.14 -346.06,-505 16.97,-981.74 363.03,-476.73 787.52,-219.83 874.61,-555.28 18.82,-72.49 49.1,-133.59 87.97,-184.41 2.05,-2.73 4.15,-5.42 6.3,-8.07 5.45,-6.83 11.07,-13.45 16.82,-19.9 1.61,-1.79 3.21,-3.56 4.83,-5.32 14.67,-15.89 30.28,-30.59 46.7,-44.15 3.29,-2.72 6.62,-5.41 10,-8.04l0.01 0c201.7,-157.81 518.7,-151.07 745.17,-57.22 143.3,59.39 343.31,41.29 564.32,23.19 242.82,-19.88 510.99,-39.76 757.22,43.1 7.79,2.61 15.59,5.34 23.32,8.19l0 0c16.31,5.94 32.45,12.35 48.54,19.28 34.95,15.06 65.51,32.18 92.24,51 3.77,2.68 7.52,5.4 11.14,8.14l0.03 0c325.82,245.84 36.16,761.3 204.47,841 105.6,50.02 261.48,162.32 328.91,344.64 0.87,2.33 1.7,4.64 2.5,6.98 0.93,2.59 1.83,5.19 2.7,7.81 0.8,2.34 1.57,4.71 2.32,7.08 33.99,105.9 38.11,234.2 -12.5,386.22z"/>
   <path class="fil1" d="M2013.16 592.54l-146.52 0 0 -241.62 293.04 0 -146.52 0 0 52.37 -46.43 0 4.08 13.07 -4.08 9.33 46.43 0 0 166.85zm-146.33 -83.68l0 22.4 46.42 0 -4.09 -13.06 4.09 -9.34 -46.42 0z"/>
   <path class="fil2" d="M2306.19 592.54l-293.03 0 0 -166.85 46.43 0 -4.09 -13.06 4.09 -9.34 -46.43 0 0 -52.37 293.03 0 0 182.94 -46.43 0 4.09 13.06 -4.09 9.33 46.43 0 0 36.29zm-103.52 -225.24l0 32.81 84.34 0 0 -32.81 -84.34 0z"/>
   <polygon class="fil3" points="1913.25,531.26 1866.83,531.26 1866.83,508.86 1913.25,508.86 1909.16,518.2 "/>
   <polygon class="fil4" points="2059.59,425.69 2013.16,425.69 2013.16,403.29 2059.59,403.29 2055.5,412.63 "/>
   <polygon class="fil3" points="2013.16,425.69 1966.73,425.69 1970.81,416.36 1966.73,403.29 2013.16,403.29 "/>
   <polygon class="fil4" points="2306.19,556.25 2259.76,556.25 2263.85,546.92 2259.76,533.86 2306.19,533.86 "/>
   <polygon class="fil5" points="2202.67,400.11 2287.01,400.11 2287.01,367.3 2202.67,367.3 "/>
   <path class="fil1" d="M1495.68 592.54l-146.52 0 0 -241.62 293.02 0 -146.5 0 0 52.37 -46.44 0 4.1 13.07 -4.1 9.33 46.44 0 0 166.85zm-146.35 -83.68l0 22.4 46.43 0 -4.08 -13.06 4.08 -9.34 -46.43 0z"/>
   <path class="fil2" d="M1788.7 592.54l-293.02 0 0 -166.85 46.43 0 -4.08 -13.06 4.08 -9.34 -46.43 0 0 -52.37 293.02 0 0 182.94 -46.43 0 4.1 13.06 -4.1 9.33 46.43 0 0 36.29zm-103.51 -225.24l0 32.81 84.33 0 0 -32.81 -84.33 0z"/>
   <polygon class="fil3" points="1395.76,531.26 1349.33,531.26 1349.33,508.86 1395.76,508.86 1391.68,518.2 "/>
   <polygon class="fil4" points="1542.11,425.69 1495.68,425.69 1495.68,403.29 1542.11,403.29 1538.03,412.63 "/>
   <polygon class="fil3" points="1495.68,425.69 1449.24,425.69 1453.34,416.36 1449.24,403.29 1495.68,403.29 "/>
   <polygon class="fil4" points="1788.72,556.25 1742.27,556.25 1746.37,546.92 1742.27,533.86 1788.72,533.86 "/>
   <polygon class="fil5" points="1685.19,400.11 1769.51,400.11 1769.51,367.3 1685.19,367.3 "/>
   <polygon class="fil6" points="1272.32,1936.83 1159.62,1936.83 1159.62,1929.57 1272.32,1929.42 "/>
   <polygon class="fil1" points="1159.62,1929.57 1159.62,592.54 1272.32,592.54 1272.32,1929.42 "/>
   <polygon class="fil6" points="2488.97,1936.83 2395.28,1936.83 2395.28,1927.88 2488.97,1927.76 "/>
   <path class="fil1" d="M2395.28 1927.88l0 -128.8 93.69 0 0 128.68 -93.69 0.12zm93.69 -163.78l-93.69 0 0 -499.42 93.69 0 0 499.42zm0 -534.4l-93.69 0 0 -602.18 93.69 0 0 602.18z"/>
   <polygon class="fil1" points="2488.97,627.52 1272.32,627.52 1272.32,592.54 2488.97,592.54 "/>
   <polygon class="fil1" points="2488.97,1264.68 1272.32,1264.68 1272.32,1229.7 2488.97,1229.7 "/>
   <polygon class="fil1" points="2488.97,1799.08 1272.32,1799.08 1272.32,1764.1 2488.97,1764.1 "/>
   <polygon class="fil7" points="2038.42,1229.7 1952.58,1229.7 1952.58,1192.19 1952.59,1192.19 1952.59,1169.03 1952.58,1169.03 1952.58,1053.91 1952.59,1053.91 1952.59,1030.75 1952.58,1030.75 1952.58,979.89 1886.93,979.89 2189.89,979.89 2038.42,979.89 2038.42,1034.05 1990.41,1034.05 1994.64,1047.55 1990.41,1057.2 2038.42,1057.2 "/>
   <path class="fil2" d="M2341.36 1229.7l-302.94 0 0 -172.5 48 0 -4.23 -13.51 4.23 -9.64 -48 0 0 -54.16 302.94 0 0 189.14 -47.98 0 4.22 13.51 -4.22 9.65 47.98 0 0 37.51zm-107.01 -232.87l0 33.92 87.19 0 0 -33.92 -87.19 0z"/>
   <polygon class="fil4" points="2086.42,1057.2 2038.42,1057.2 2038.42,1034.05 2086.42,1034.05 2082.19,1043.69 "/>
   <polygon class="fil3" points="2038.42,1057.2 1990.41,1057.2 1994.64,1047.55 1990.41,1034.05 2038.42,1034.05 "/>
   <polygon class="fil4" points="2341.38,1192.19 2293.38,1192.19 2297.6,1182.54 2293.38,1169.03 2341.38,1169.03 "/>
   <polygon class="fil5" points="2234.35,1030.75 2321.54,1030.75 2321.54,996.83 2234.35,996.83 "/>
   <path class="fil1" d="M1649.63 1229.7l-151.48 0 0 -249.81 302.96 0 -151.48 0 0 54.16 -48 0 4.22 13.5 -4.22 9.65 48 0 0 172.5zm-151.3 -86.52l0 23.17 48 0 -4.22 -13.51 4.22 -9.66 -48 0z"/>
   <path class="fil2" d="M1952.58 1229.7l-302.95 0 0 -172.5 48 0 -4.22 -13.51 4.22 -9.64 -48 0 0 -54.16 302.95 0 0 50.86 -47.99 0 4.22 13.5 -4.22 9.66 47.99 0 0 115.12 -47.99 0 4.22 13.51 -4.22 9.65 47.99 0 0 37.51zm-272.35 -82.04l0 55.28 142.09 0 0 -55.28 -142.09 0z"/>
   <polygon class="fil3" points="1546.33,1166.35 1498.33,1166.35 1498.33,1143.18 1546.33,1143.18 1542.11,1152.84 "/>
   <polygon class="fil4" points="1697.63,1057.2 1649.63,1057.2 1649.63,1034.05 1697.63,1034.05 1693.41,1043.69 "/>
   <polygon class="fil3" points="1649.63,1057.2 1601.63,1057.2 1605.85,1047.55 1601.63,1034.05 1649.63,1034.05 "/>
   <polygon class="fil4" points="1952.59,1192.19 1904.59,1192.19 1908.81,1182.54 1904.59,1169.03 1952.59,1169.03 "/>
   <polygon class="fil4" points="1952.59,1053.91 1904.59,1053.91 1908.81,1044.25 1904.59,1030.75 1952.59,1030.75 "/>
   <polygon class="fil5" points="1680.23,1202.94 1822.33,1202.94 1822.33,1147.66 1680.23,1147.66 "/>
   <path class="fil1" d="M2017.87 1763.29l-130.94 0 0 -215.91 261.85 0 -130.91 0 0 46.8 -41.5 0 3.66 11.67 -3.66 8.35 41.5 0 0 149.09zm-130.78 -74.78l0 20.02 41.49 0 -3.66 -11.67 3.66 -8.35 -41.49 0z"/>
   <path class="fil2" d="M2279.7 1763.29l-261.83 0 0 -149.09 41.49 0 -3.66 -11.68 3.66 -8.34 -41.49 0 0 -46.8 261.83 0 0 163.46 -41.47 0 3.64 11.69 -3.64 8.34 41.47 0 0 32.42zm-92.48 -201.27l0 29.31 75.34 0 0 -29.31 -75.34 0z"/>
   <polygon class="fil3" points="1928.58,1708.53 1887.09,1708.53 1887.09,1688.51 1928.58,1688.51 1924.92,1696.86 "/>
   <polygon class="fil4" points="2059.36,1614.2 2017.87,1614.2 2017.87,1594.18 2059.36,1594.18 2055.7,1602.52 "/>
   <polygon class="fil3" points="2017.87,1614.2 1976.37,1614.2 1980.03,1605.85 1976.37,1594.18 2017.87,1594.18 "/>
   <polygon class="fil4" points="2279.72,1730.87 2238.23,1730.87 2241.87,1722.53 2238.23,1710.84 2279.72,1710.84 "/>
   <polygon class="fil5" points="2187.22,1591.33 2262.56,1591.33 2262.56,1562.02 2187.22,1562.02 "/>
   <path class="fil1" d="M1541.12 1763.29l-151.48 0 0 -249.8 302.94 0 -151.46 0 0 54.14 -48.02 0 4.24 13.52 -4.24 9.64 48.02 0 0 172.5zm-151.31 -86.51l0 23.16 48.01 0 -4.24 -13.51 4.24 -9.65 -48.01 0z"/>
   <path class="fil2" d="M1844.06 1763.29l-302.94 0 0 -172.5 48 0 -4.23 -13.5 4.23 -9.66 -48 0 0 -54.14 302.94 0 0 189.13 -48 0 4.23 13.52 -4.23 9.64 48 0 0 37.51zm-107 -232.87l0 33.92 87.17 0 0 -33.92 -87.17 0z"/>
   <polygon class="fil8" points="1437.82,1699.94 1389.81,1699.94 1389.81,1676.78 1437.82,1676.78 1433.58,1686.43 "/>
   <polygon class="fil9" points="1589.12,1590.79 1541.12,1590.79 1541.12,1567.63 1589.12,1567.63 1584.89,1577.29 "/>
   <polygon class="fil8" points="1541.12,1590.79 1493.1,1590.79 1497.34,1581.15 1493.1,1567.63 1541.12,1567.63 "/>
   <polygon class="fil9" points="1844.06,1725.78 1796.06,1725.78 1800.29,1716.14 1796.06,1702.62 1844.06,1702.62 "/>
   <polygon class="fil5" points="1737.06,1564.34 1824.23,1564.34 1824.23,1530.42 1737.06,1530.42 "/>
   <path class="fil1" d="M1590.71 978.75l-115.8 0 0 -190.97 231.6 0 -115.8 0 0 41.39 -36.7 0 3.23 10.33 -3.23 7.38 36.7 0 0 131.87zm-115.66 -66.14l0 17.71 36.7 0 -3.23 -10.33 3.23 -7.38 -36.7 0z"/>
   <path class="fil2" d="M1822.31 978.75l-231.6 0 0 -131.87 36.7 0 -3.23 -10.33 3.23 -7.38 -36.7 0 0 -41.39 231.6 0 0 144.59 -36.68 0 3.23 10.32 -3.23 7.39 36.68 0 0 28.67zm-81.81 -178.02l0 25.92 66.65 0 0 -25.92 -66.65 0z"/>
   <polygon class="fil3" points="1511.75,930.32 1475.05,930.32 1475.05,912.61 1511.75,912.61 1508.52,919.99 "/>
   <polygon class="fil4" points="1627.41,846.88 1590.71,846.88 1590.71,829.17 1627.41,829.17 1624.18,836.55 "/>
   <polygon class="fil3" points="1590.71,846.88 1554.01,846.88 1557.24,839.5 1554.01,829.17 1590.71,829.17 "/>
   <polygon class="fil4" points="1822.32,950.08 1785.63,950.08 1788.86,942.69 1785.63,932.37 1822.32,932.37 "/>
   <polygon class="fil5" points="1740.5,826.65 1807.15,826.65 1807.15,800.73 1740.5,800.73 "/>
   <path class="fil1" d="M2004.51 978.75l-115.8 0 0 -190.97 231.6 0 -115.8 0 0 41.39 -36.7 0 3.23 10.33 -3.23 7.38 36.7 0 0 131.87zm-115.66 -66.14l0 17.71 36.7 0 -3.23 -10.33 3.23 -7.38 -36.7 0z"/>
   <path class="fil2" d="M2236.12 978.75l-231.61 0 0 -131.87 36.7 0 -3.23 -10.33 3.23 -7.38 -36.7 0 0 -41.39 231.61 0 0 144.59 -36.69 0 3.23 10.32 -3.23 7.39 36.69 0 0 28.67zm-81.82 -178.02l0 25.92 66.65 0 0 -25.92 -66.65 0z"/>
   <polygon class="fil3" points="1925.55,930.32 1888.85,930.32 1888.85,912.61 1925.55,912.61 1922.32,919.99 "/>
   <polygon class="fil4" points="2041.21,846.88 2004.51,846.88 2004.51,829.17 2041.21,829.17 2037.98,836.55 "/>
   <polygon class="fil3" points="2004.51,846.88 1967.81,846.88 1971.04,839.5 1967.81,829.17 2004.51,829.17 "/>
   <polygon class="fil4" points="2236.12,950.08 2199.43,950.08 2202.66,942.69 2199.43,932.37 2236.12,932.37 "/>
   <polygon class="fil5" points="2154.3,826.65 2220.95,826.65 2220.95,800.73 2154.3,800.73 "/>
   <path class="fil10" d="M3743.59 1563.49l-5.75 -1.68c15.22,-51.75 -12.41,-105.63 -61.59,-120.1l-123.92 -36.46c-25.49,-7.51 -39.81,-35.44 -31.92,-62.27 25.52,-86.71 -20.79,-176.98 -103.19,-201.23l1.76 -6.07c85.59,25.2 133.69,118.95 107.18,209 -6.9,23.48 5.63,47.93 27.97,54.51l123.91 36.46c52.34,15.4 81.76,72.75 65.55,127.84z"/>
   <path class="fil10" d="M3731.1 1606.02l-5.79 -1.7c15.25,-51.75 -12.4,-105.62 -61.56,-120.1l-123.92 -36.46c-25.52,-7.5 -39.84,-35.42 -31.95,-62.25 25.52,-86.71 -20.76,-176.98 -103.19,-201.23l1.79 -6.07c85.59,25.18 133.66,118.95 107.19,209 -6.9,23.48 5.62,47.93 27.93,54.5l123.92 36.45c52.37,15.42 81.78,72.77 65.58,127.86z"/>
   <polygon class="fil11" points="2826.52,1192.91 3087.41,1192.91 3087.41,977.8 2826.52,977.8 "/>
   <polygon class="fil12" points="2696.09,1192.91 2956.96,1192.91 2956.96,977.8 2696.09,977.8 "/>
   <polygon class="fil13" points="3087.25,1138.36 3045.92,1138.36 3049.54,1126.73 3045.92,1118.41 3087.25,1118.41 "/>
   <polygon class="fil14" points="2956.96,1044.37 2915.63,1044.37 2919.25,1032.74 2915.63,1024.43 2956.96,1024.43 "/>
   <polygon class="fil13" points="2956.96,1024.43 2998.29,1024.43 2994.67,1036.06 2998.29,1044.37 2956.96,1044.37 "/>
   <polygon class="fil14" points="2696.09,1140.67 2737.42,1140.67 2733.78,1152.3 2737.42,1160.61 2696.09,1160.61 "/>
   <polygon class="fil15" points="2713.17,1021.6 2788.23,1021.6 2788.23,992.39 2713.17,992.39 "/>
   <path class="fil10" d="M3096.78 392.86c-37.43,0 -76.65,-5.94 -98.4,-18.5 -34.65,-19.99 -78.57,-11.51 -79,-11.42l-1.09 -5.31c1.89,-0.38 46.34,-8.99 82.78,12.04 35.91,20.72 125.13,22.55 165.52,8.81 39.78,-13.55 92.62,-28.12 114.58,-28.12l0 5.41c-21.34,0 -73.43,14.43 -112.84,27.83 -17.85,6.08 -44.21,9.25 -71.55,9.26z"/>
   <polygon class="fil10" points="2864.64,891.14 2881.76,891.14 2881.76,779.53 2864.64,779.53 "/>
   <polygon class="fil10" points="2898.52,891.14 2915.62,891.14 2915.62,779.53 2898.52,779.53 "/>
   <path class="fil10" d="M3096.78 380.84c-37.43,0 -76.65,-5.94 -98.4,-18.5 -34.65,-19.98 -78.57,-11.51 -79,-11.42l-1.09 -5.31c1.89,-0.38 46.34,-8.98 82.78,12.04 35.91,20.72 125.13,22.56 165.52,8.81 39.78,-13.55 92.62,-28.12 114.58,-28.12l0 5.41c-21.34,0 -73.43,14.43 -112.84,27.83 -17.85,6.08 -44.21,9.26 -71.55,9.26z"/>
   <path class="fil10" d="M3457.06 1033.21l-7.09 0 0 -5.42 7.09 0c32.91,0 59.67,-26.76 59.67,-59.67l0 -617.66c0,-32.9 -26.76,-59.67 -59.67,-59.67l-52.65 0 0 -5.42 52.65 0c35.91,0 65.08,29.2 65.08,65.09l0 617.66c0,35.89 -29.17,65.09 -65.08,65.09z"/>
   <path class="fil10" d="M3449.97 980.91l0 -5.42c22.86,0 41.48,-18.62 41.48,-41.5l0 -574.15c0,-22.19 -18.06,-40.24 -40.24,-40.24l-41.73 0 0 -5.42 41.73 0c25.18,0 45.69,20.48 45.69,45.66l0 574.15c0,25.87 -21.07,46.92 -46.93,46.92z"/>
   <path class="fil16" d="M2961.66 804.31l-147.82 0c-21.03,0 -38.07,-17.05 -38.07,-38.08l0 -330.21c0,-21.03 17.04,-38.08 38.07,-38.08l147.82 0c21.04,0 38.08,17.05 38.08,38.08l0 330.21c0,21.03 -17.04,38.08 -38.08,38.08z"/>
   <path class="fil17" d="M2817.67 455.76c0,-10.76 8.72,-19.49 19.49,-19.49 10.76,0 19.5,8.73 19.5,19.49 0,10.77 -8.74,19.49 -19.5,19.49 -10.77,0 -19.49,-8.72 -19.49,-19.49z"/>
   <path class="fil17" d="M2817.67 733.65c0,-10.77 8.72,-19.49 19.49,-19.49 10.76,0 19.5,8.72 19.5,19.49 0,10.76 -8.74,19.49 -19.5,19.49 -10.77,0 -19.49,-8.73 -19.49,-19.49z"/>
   <path class="fil17" d="M2918.85 455.76c0,-10.76 8.72,-19.49 19.49,-19.49 10.76,0 19.49,8.73 19.49,19.49 0,10.77 -8.73,19.49 -19.49,19.49 -10.77,0 -19.49,-8.72 -19.49,-19.49z"/>
   <path class="fil17" d="M2918.85 733.65c0,-10.77 8.72,-19.49 19.49,-19.49 10.76,0 19.49,8.72 19.49,19.49 0,10.76 -8.73,19.49 -19.49,19.49 -10.77,0 -19.49,-8.73 -19.49,-19.49z"/>
   <path class="fil12" d="M2970.94 910.3c0,4.01 -0.9,7.91 -2.57,11.62l-153.07 0c-1.67,-3.71 -2.56,-7.61 -2.56,-11.62 0,-25.36 35.42,-45.93 79.1,-45.93 43.65,0 79.1,20.57 79.1,45.93z"/>
   <path class="fil10" d="M3103.49 962.66l0 208.02c0,16.69 -8.2,32.3 -21.93,41.78l-63.45 43.74c-4.54,3.14 -10.76,2 -13.88,-2.55l0 0c-3.16,-4.55 -2.02,-10.78 2.53,-13.91l63.45 -43.76c8.32,-5.73 13.27,-15.19 13.27,-25.3l0 -208.02c0,-22.5 -18.22,-40.74 -40.74,-40.74l-301.82 0c-22.5,0 -40.74,18.24 -40.74,40.74l0 206.83c0,10.68 5.41,20.42 14.47,26.06l70.87 44.32c4.68,2.92 6.1,9.09 3.18,13.77 -2.92,4.69 -9.09,6.11 -13.78,3.19l-70.88 -44.3c-14.95,-9.35 -23.86,-25.43 -23.86,-43.04l0 -206.83c0,-33.55 27.19,-60.75 60.74,-60.75l301.82 0c33.56,0 60.75,27.2 60.75,60.75z"/>
   <polygon class="fil10" points="2881.69,285.37 3297.57,285.37 3297.57,272.86 2881.69,272.86 "/>
   <polygon class="fil10" points="2881.69,320.44 3297.57,320.44 3297.57,307.92 2881.69,307.92 "/>
   <path class="fil12" d="M2941.68 397.94l-124.01 0 0 -87c0,-35.36 28.66,-64.02 64.02,-64.02 35.37,0 64.01,28.66 64.01,64.02l0 82.96c0,2.23 -1.79,4.04 -4.02,4.04z"/>
   <path class="fil16" d="M3381.92 246.92l-63.2 0c-29.75,0 -53.85,24.1 -53.85,53.83l0 1128.05c0,29.74 24.1,53.83 53.85,53.83l63.2 0c29.73,0 53.86,-24.09 53.86,-53.83l0 -1128.05c0,-29.73 -24.13,-53.83 -53.86,-53.83z"/>
   <path class="fil10" d="M3340.38 306.95c0,-5.49 4.45,-9.93 9.96,-9.93 5.47,0 9.9,4.44 9.9,9.93 0,5.49 -4.43,9.94 -9.9,9.94 -5.51,0 -9.96,-4.45 -9.96,-9.94z"/>
   <path class="fil18" d="M3423.65 1245.3l-152.87 0c-14.54,0 -26.3,-11.77 -26.3,-26.31l0 -771.65c0,-14.53 11.76,-26.31 26.3,-26.31l152.87 0c14.54,0 26.32,11.78 26.32,26.31l0 771.65c0,14.54 -11.78,26.31 -26.32,26.31z"/>
   <path class="fil18" d="M3461.91 1545.1l-192 0c-14.04,0 -25.43,-11.4 -25.43,-25.46l0 -87.8c0,-14.07 11.39,-25.46 25.43,-25.46l166.55 0c14.07,0 25.45,11.39 25.45,25.46l0 113.26z"/>
   <path class="fil12" d="M2843.84 307.92c0,-20.9 16.95,-37.85 37.85,-37.85 20.92,0 37.84,16.95 37.84,37.85 0,20.91 -16.92,37.85 -37.84,37.85 -20.9,0 -37.85,-16.94 -37.85,-37.85z"/>
   <path class="fil10" d="M2881.69 271.24c-20.22,0 -36.68,16.46 -36.68,36.68 0,20.22 16.46,36.68 36.68,36.68 20.22,0 36.7,-16.46 36.7,-36.68 0,-20.22 -16.48,-36.68 -36.7,-36.68zm0 75.71c-21.52,0 -39.02,-17.51 -39.02,-39.03 0,-21.52 17.5,-39.02 39.02,-39.02 21.54,0 39.02,17.5 39.02,39.02 0,21.52 -17.48,39.03 -39.02,39.03z"/>
   <path class="fil11" d="M2858.59 307.92c0,-12.76 10.35,-23.1 23.1,-23.1 12.76,0 23.09,10.34 23.09,23.1 0,12.76 -10.33,23.1 -23.09,23.1 -12.75,0 -23.1,-10.34 -23.1,-23.1z"/>
   <polygon class="fil19" points="3780.06,1538.69 3928.14,1471.4 3872.65,1349.3 3724.57,1416.59 "/>
   <polygon class="fil20" points="3854.09,1505.05 4002.16,1437.75 3946.67,1315.65 3798.59,1382.96 "/>
   <polygon class="fil21" points="3815.76,1420.73 3839.24,1410.07 3834.16,1404.41 3834.1,1398.75 3810.62,1409.42 "/>
   <polygon class="fil22" points="3810.62,1409.42 3787.18,1420.08 3792.22,1425.74 3792.31,1431.4 3815.76,1420.73 "/>
   <polygon class="fil21" points="3988.71,1408.09 3965.23,1418.76 3970.3,1424.42 3970.36,1430.08 3993.84,1419.41 "/>
   <polygon class="fil15" points="3948.28,1344.92 3905.65,1364.28 3898.13,1347.7 3940.76,1328.34 "/>
   <path class="fil10" d="M4049.43 1813.35c-0.56,1.73 -1.18,3.46 -1.73,5.2 -5.05,14.73 -10.55,29.69 -16.61,44.88 -0.84,2.11 -1.71,4.23 -2.57,6.34 -7.36,18.08 -15.47,36.5 -24.41,55.24l-199.12 0 -11.41 -106.46 -0.53 -5.2 -0.46 -4.07 -28.33 -264.18 -0.22 -2.04 14.97 -6.68 74.24 -33.17 74.27 -33.18 74.24 -33.16 55.15 -24.63c0.93,2.59 1.83,5.19 2.7,7.81 0.8,2.34 1.57,4.71 2.32,7.08 33.99,105.9 38.11,234.2 -12.5,386.22z"/>
   <path class="fil23" d="M4049.43 1813.35c-0.56,1.73 -1.18,3.46 -1.73,5.2l-234.2 0 -0.52 -5.2 -0.41 -4.07 -25.58 -258.89 11.82 -5.29 263.12 -117.97c33.99,105.9 38.11,234.2 -12.5,386.22z"/>
   <path class="fil16" d="M3813.5 1818.55l-2004.16 0c-75.52,0 -136.74,-61.22 -136.74,-136.73 0,-75.5 61.22,-136.72 136.74,-136.72l2004.16 0c75.51,0 136.7,61.22 136.7,136.72 0,75.51 -61.19,136.73 -136.7,136.73z"/>
   <path class="fil24" d="M3950.2 1681.82c0,37.75 -15.29,71.94 -40.03,96.68 -24.75,24.75 -58.93,40.05 -96.67,40.05l-339.83 0c-7.3,0 -13.21,-5.9 -13.21,-13.19l0 -247.07c0,-7.29 5.91,-13.19 13.21,-13.19l339.83 0c75.51,0 136.7,61.22 136.7,136.72z"/>
   <path class="fil24" d="M4049.43 1813.35c-0.56,1.73 -1.18,3.46 -1.73,5.2 -5.05,14.73 -10.55,29.69 -16.61,44.88 -0.84,2.11 -1.71,4.23 -2.57,6.34 -7.36,18.08 -15.47,36.5 -24.41,55.24l-0.03 0.03 -216.9 0.08 -1991.54 0.92 0 -112.69 2253.79 0z"/>
   <path class="fil18" d="M2346.6 1671.93c-1.57,4.36 -5.49,9.69 -9.51,13.16 -0.93,0.8 -1.86,1.52 -2.75,2.06 -4.17,2.62 -8.43,4.34 -12.64,5.29 -24.1,5.36 -46.59,-14.88 -42.41,-40.54 0.41,-2.57 1.11,-5.21 2.09,-7.86 1.88,-5.09 7.16,-11.7 11.72,-14.59 0.49,-0.31 0.98,-0.6 1.47,-0.9 30.06,-17.64 63.92,10.1 52.03,43.38zm49.95 -4.86l-15.41 -7.16c-1.27,-0.61 -2.11,-1.87 -2.16,-3.29 -0.04,-1.8 -0.17,-3.62 -0.36,-5.45 -0.36,-3.39 -0.97,-6.69 -1.83,-9.85 -0.41,-1.49 0.11,-3.07 1.34,-3.97l14.13 -10.78c1.52,-1.14 1.9,-3.26 0.88,-4.88l-8.71 -13.73c-0.98,-1.56 -2.96,-2.1 -4.62,-1.3l-14.67 7.2c-1.42,0.73 -3.16,0.41 -4.29,-0.76 -4.8,-4.99 -10.38,-9.19 -16.54,-12.47 -1.49,-0.79 -2.25,-2.54 -1.84,-4.17l2.38 -9.65c0.44,-1.85 -0.57,-3.75 -2.35,-4.42l-15.16 -5.47c-0.31,-0.13 -0.63,-0.2 -0.95,-0.23 -1.51,-0.15 -2.99,0.68 -3.63,2.12l-5.38 11.51 -1.29 2.81c-3.02,-0.1 -6.1,0 -9.17,0.34 -4.17,0.45 -8.2,1.28 -12.03,2.45 -1.46,0.43 -3.05,-0.05 -3.95,-1.27l-8.67 -11.41c-1.19,-1.54 -3.36,-1.94 -5,-0.87l-10.48 6.62 -3.01 1.91c-1.66,1.05 -2.26,3.17 -1.39,4.89l6.01 12.29c0.71,1.4 0.44,3.12 -0.68,4.21 -3.26,3.33 -6.18,6.99 -8.68,10.9 -0.24,0.33 -0.44,0.65 -0.64,0.98l-0.22 0.33c-0.9,1.2 -2.41,1.73 -3.89,1.36l-15.7 -3.84c-0.17,-0.05 -0.35,-0.07 -0.52,-0.1 -1.66,-0.16 -3.28,0.85 -3.86,2.45l-5.5 15.1c-0.65,1.82 0.18,3.85 1.96,4.68l16.08 7.46c1.37,0.61 2.2,2 2.11,3.52 -0.13,3.3 -0.04,6.66 0.34,10.07 0.2,1.81 0.47,3.58 0.81,5.34 0.25,1.42 -0.3,2.88 -1.45,3.76l-13.58 10.37c-1.51,1.12 -1.89,3.23 -0.88,4.83l8.62 13.57c1.05,1.64 3.15,2.26 4.92,1.38l11.6 -5.68c1.58,-0.77 3.43,-0.39 4.54,0.94 4.32,5.21 9.43,9.73 15.12,13.38 1.37,0.85 2.03,2.48 1.64,4.05l-3.48 14.14c-0.45,1.9 0.6,3.84 2.42,4.52l15.06 5.49c1.8,0.65 3.83,-0.21 4.61,-1.93l0.31 -0.66 6.22 -13.39c0.67,-1.43 2.12,-2.27 3.7,-2.17l0.02 0c3.79,0.26 7.64,0.2 11.54,-0.23 2.09,-0.22 4.11,-0.56 6.16,-0.96 1.4,-0.3 2.83,0.23 3.7,1.36l8.79 11.57c1.19,1.59 3.42,1.99 5.09,0.92l13.5 -8.56c0.4,-0.25 0.71,-0.57 0.97,-0.9 0.83,-1.1 1.03,-2.62 0.41,-3.91l-4.85 -9.8c-0.57,-1.2 -0.46,-2.64 0.25,-3.73 0.2,-0.26 0.44,-0.54 0.7,-0.78 6.68,-5.58 12.15,-12.41 16.13,-20.15 0.69,-1.32 2.07,-2.07 3.52,-1.98 0.23,0.01 0.43,0.04 0.64,0.11l12.71 3.11c1.84,0.45 3.73,-0.54 4.39,-2.35l0.13 -0.35 5.38 -14.72c0.65,-1.87 -0.22,-3.88 -2.01,-4.72z"/>
   <path class="fil23" d="M2464.99 1736.92c-1.12,3.14 -3.95,6.98 -6.83,9.48 -0.67,0.57 -1.34,1.09 -1.99,1.47 -3.01,1.89 -6.05,3.12 -9.09,3.82 -17.33,3.84 -33.49,-10.71 -30.5,-29.19 0.3,-1.83 0.79,-3.73 1.5,-5.64 1.35,-3.66 5.15,-8.41 8.44,-10.49 0.35,-0.22 0.71,-0.43 1.05,-0.66 21.63,-12.66 45.99,7.28 37.42,31.21zm35.94 -3.48l-11.11 -5.16c-0.9,-0.43 -1.5,-1.35 -1.53,-2.36 -0.02,-1.32 -0.12,-2.61 -0.27,-3.93 -0.25,-2.44 -0.69,-4.8 -1.32,-7.07 -0.28,-1.08 0.1,-2.22 0.97,-2.87l10.17 -7.76c1.09,-0.8 1.36,-2.34 0.62,-3.51l-6.25 -9.86c-0.71,-1.12 -2.13,-1.52 -3.32,-0.95l-10.55 5.19c-1.04,0.53 -2.29,0.3 -3.1,-0.55 -3.44,-3.59 -7.45,-6.62 -11.89,-8.96 -1.07,-0.57 -1.62,-1.83 -1.32,-2.99l1.7 -6.95c0.31,-1.34 -0.4,-2.7 -1.67,-3.18l-10.91 -3.94c-0.24,-0.09 -0.45,-0.15 -0.69,-0.16 -1.09,-0.11 -2.16,0.48 -2.63,1.52l-3.84 8.28 -0.94 2.01c-2.18,-0.05 -4.39,0.02 -6.6,0.26 -2.98,0.32 -5.89,0.91 -8.64,1.76 -1.05,0.31 -2.2,-0.04 -2.85,-0.92l-6.23 -8.19c-0.88,-1.12 -2.42,-1.4 -3.61,-0.65l-7.55 4.77 -2.14 1.39c-1.19,0.75 -1.63,2.26 -1.02,3.51l4.33 8.82c0.52,1.04 0.32,2.26 -0.47,3.04 -2.36,2.39 -4.47,5.03 -6.26,7.84 -0.17,0.24 -0.31,0.47 -0.46,0.72l-0.16 0.23c-0.64,0.87 -1.74,1.23 -2.78,0.97l-11.3 -2.76 -0.39 -0.08c-1.17,-0.1 -2.35,0.61 -2.76,1.77l-3.96 10.85c-0.46,1.33 0.13,2.78 1.41,3.39l11.57 5.35c0.98,0.45 1.57,1.46 1.53,2.53 -0.11,2.37 -0.04,4.8 0.23,7.25 0.14,1.29 0.32,2.58 0.58,3.84 0.18,1.04 -0.21,2.07 -1.05,2.7l-9.76 7.46c-1.09,0.8 -1.36,2.32 -0.63,3.48l6.21 9.76c0.73,1.18 2.25,1.62 3.51,0.99l8.37 -4.09c1.12,-0.56 2.45,-0.26 3.26,0.68 3.09,3.75 6.78,6.99 10.88,9.62 0.98,0.6 1.45,1.79 1.16,2.93l-2.5 10.15c-0.32,1.38 0.43,2.78 1.75,3.26l10.84 3.93c1.29,0.48 2.73,-0.11 3.3,-1.36l0.22 -0.48 4.49 -9.63c0.46,-1.04 1.53,-1.65 2.66,-1.56l0.02 0c2.71,0.18 5.47,0.14 8.29,-0.17 1.49,-0.16 2.95,-0.42 4.41,-0.68 1.02,-0.23 2.06,0.15 2.68,0.98l6.33 8.32c0.86,1.14 2.45,1.42 3.66,0.65l9.71 -6.17c0.27,-0.17 0.49,-0.39 0.7,-0.64 0.59,-0.79 0.72,-1.89 0.28,-2.8l-3.48 -7.05c-0.41,-0.88 -0.33,-1.9 0.19,-2.68 0.14,-0.2 0.3,-0.41 0.49,-0.57 4.81,-4.01 8.74,-8.93 11.62,-14.49 0.48,-0.95 1.49,-1.49 2.52,-1.42 0.15,0 0.3,0.03 0.46,0.06l9.13 2.24c1.33,0.33 2.68,-0.39 3.16,-1.68l0.1 -0.25 3.86 -10.59c0.47,-1.35 -0.14,-2.81 -1.43,-3.39z"/>
   <path class="fil18" d="M2938.06 1671.93c-1.58,4.36 -5.48,9.69 -9.5,13.16 -0.93,0.8 -1.85,1.52 -2.75,2.06 -4.18,2.62 -8.45,4.34 -12.68,5.29 -24.07,5.36 -46.56,-14.88 -42.39,-40.54 0.44,-2.57 1.12,-5.21 2.1,-7.86 1.88,-5.09 7.15,-11.7 11.72,-14.59 0.5,-0.31 0.98,-0.6 1.48,-0.9 30.06,-17.64 63.93,10.1 52.02,43.38zm49.96 -4.86l-15.44 -7.16c-1.27,-0.61 -2.1,-1.87 -2.13,-3.29 -0.07,-1.8 -0.16,-3.62 -0.38,-5.45 -0.37,-3.39 -0.95,-6.69 -1.82,-9.85 -0.4,-1.49 0.12,-3.07 1.33,-3.97l14.14 -10.78c1.51,-1.14 1.91,-3.26 0.86,-4.88l-8.69 -13.73c-0.99,-1.56 -2.97,-2.1 -4.61,-1.3l-14.69 7.2c-1.42,0.73 -3.16,0.41 -4.27,-0.76 -4.8,-4.99 -10.39,-9.19 -16.55,-12.47 -1.48,-0.79 -2.26,-2.54 -1.86,-4.17l2.42 -9.65c0.4,-1.85 -0.56,-3.75 -2.35,-4.42l-15.19 -5.47c-0.31,-0.13 -0.59,-0.2 -0.93,-0.23 -1.52,-0.15 -3,0.68 -3.65,2.12l-5.35 11.51 -1.3 2.81c-3,-0.1 -6.11,0 -9.18,0.34 -4.16,0.45 -8.19,1.28 -12.01,2.45 -1.46,0.43 -3.05,-0.05 -3.98,-1.27l-8.66 -11.41c-1.18,-1.54 -3.36,-1.94 -4.99,-0.87l-10.51 6.62 -2.99 1.91c-1.65,1.05 -2.26,3.17 -1.39,4.89l6.01 12.29c0.71,1.4 0.45,3.12 -0.67,4.21 -3.27,3.33 -6.21,6.99 -8.67,10.9 -0.26,0.33 -0.44,0.65 -0.64,0.98l-0.24 0.33c-0.88,1.2 -2.43,1.73 -3.87,1.36l-15.7 -3.84c-0.17,-0.05 -0.36,-0.07 -0.53,-0.1 -1.67,-0.16 -3.27,0.85 -3.87,2.45l-5.49 15.1c-0.66,1.82 0.17,3.85 1.94,4.68l16.1 7.46c1.36,0.61 2.2,2 2.11,3.52 -0.15,3.3 -0.04,6.66 0.33,10.07 0.19,1.81 0.47,3.58 0.79,5.34 0.27,1.42 -0.28,2.88 -1.43,3.76l-13.58 10.37c-1.49,1.12 -1.89,3.23 -0.87,4.83l8.62 13.57c1.03,1.64 3.12,2.26 4.9,1.38l11.63 -5.68c1.55,-0.77 3.4,-0.39 4.52,0.94 4.31,5.21 9.43,9.73 15.13,13.38 1.35,0.85 2.03,2.48 1.63,4.05l-3.47 14.14c-0.46,1.9 0.59,3.84 2.41,4.52l15.06 5.49c1.81,0.65 3.83,-0.21 4.59,-1.93l0.33 -0.66 6.22 -13.39c0.66,-1.43 2.13,-2.27 3.69,-2.17l0.04 0c3.75,0.26 7.62,0.2 11.55,-0.23 2.07,-0.22 4.11,-0.56 6.12,-0.96 1.42,-0.3 2.85,0.23 3.71,1.36l8.79 11.57c1.2,1.59 3.43,1.99 5.1,0.92l13.52 -8.56c0.37,-0.25 0.68,-0.57 0.96,-0.9 0.83,-1.1 1.02,-2.62 0.37,-3.91l-4.8 -9.8c-0.58,-1.2 -0.49,-2.64 0.25,-3.73 0.19,-0.26 0.4,-0.54 0.68,-0.78 6.68,-5.58 12.16,-12.41 16.15,-20.15 0.65,-1.32 2.07,-2.07 3.53,-1.98 0.18,0.01 0.4,0.04 0.62,0.11l12.71 3.11c1.82,0.45 3.71,-0.54 4.39,-2.35l0.09 -0.35 5.39 -14.72c0.65,-1.87 -0.19,-3.88 -1.98,-4.72z"/>
   <path class="fil23" d="M3056.44 1736.92c-1.11,3.14 -3.93,6.98 -6.8,9.48 -0.69,0.57 -1.37,1.09 -1.98,1.47 -3.04,1.89 -6.1,3.12 -9.13,3.82 -17.32,3.84 -33.5,-10.71 -30.5,-29.19 0.31,-1.83 0.8,-3.73 1.52,-5.64 1.36,-3.66 5.13,-8.41 8.44,-10.49 0.34,-0.22 0.68,-0.43 1.05,-0.66 21.62,-12.66 45.97,7.28 37.4,31.21zm35.94 -3.48l-11.07 -5.16c-0.93,-0.43 -1.51,-1.35 -1.55,-2.36 -0.06,-1.32 -0.12,-2.61 -0.27,-3.93 -0.25,-2.44 -0.72,-4.8 -1.3,-7.07 -0.31,-1.08 0.06,-2.22 0.96,-2.87l10.14 -7.76c1.08,-0.8 1.39,-2.34 0.62,-3.51l-6.22 -9.86c-0.74,-1.12 -2.16,-1.52 -3.34,-0.95l-10.58 5.19c-0.99,0.53 -2.26,0.3 -3.06,-0.55 -3.46,-3.59 -7.49,-6.62 -11.91,-8.96 -1.05,-0.57 -1.61,-1.83 -1.33,-2.99l1.73 -6.95c0.31,-1.34 -0.4,-2.7 -1.7,-3.18l-10.92 -3.94c-0.18,-0.09 -0.43,-0.15 -0.65,-0.16 -1.08,-0.11 -2.16,0.48 -2.63,1.52l-3.86 8.28 -0.93 2.01c-2.17,-0.05 -4.39,0.02 -6.59,0.26 -3,0.32 -5.91,0.91 -8.66,1.76 -1.05,0.31 -2.2,-0.04 -2.85,-0.92l-6.21 -8.19c-0.87,-1.12 -2.42,-1.4 -3.62,-0.65l-7.52 4.77 -2.2 1.39c-1.17,0.75 -1.61,2.26 -0.99,3.51l4.33 8.82c0.53,1.04 0.34,2.26 -0.46,3.04 -2.35,2.39 -4.45,5.03 -6.25,7.84 -0.18,0.24 -0.31,0.47 -0.46,0.72l-0.16 0.23c-0.65,0.87 -1.76,1.23 -2.81,0.97l-11.26 -2.76 -0.4 -0.08c-1.21,-0.1 -2.35,0.61 -2.79,1.77l-3.96 10.85c-0.46,1.33 0.13,2.78 1.43,3.39l11.53 5.35c1.02,0.45 1.61,1.46 1.55,2.53 -0.12,2.37 -0.03,4.8 0.22,7.25 0.15,1.29 0.37,2.58 0.58,3.84 0.19,1.04 -0.18,2.07 -1.02,2.7l-9.77 7.46c-1.08,0.8 -1.36,2.32 -0.62,3.48l6.19 9.76c0.74,1.18 2.25,1.62 3.52,0.99l8.36 -4.09c1.14,-0.56 2.47,-0.26 3.24,0.68 3.13,3.75 6.81,6.99 10.92,9.62 0.96,0.6 1.43,1.79 1.18,2.93l-2.51 10.15c-0.34,1.38 0.44,2.78 1.73,3.26l10.83 3.93c1.3,0.48 2.75,-0.11 3.31,-1.36l0.25 -0.48 4.45 -9.63c0.5,-1.04 1.52,-1.65 2.66,-1.56l0 0c2.73,0.18 5.51,0.14 8.32,-0.17 1.52,-0.16 2.97,-0.42 4.43,-0.68 1.02,-0.23 2.04,0.15 2.66,0.98l6.34 8.32c0.87,1.14 2.44,1.42 3.65,0.65l9.71 -6.17c0.28,-0.17 0.5,-0.39 0.68,-0.64 0.62,-0.79 0.75,-1.89 0.31,-2.8l-3.49 -7.05c-0.41,-0.88 -0.34,-1.9 0.18,-2.68 0.13,-0.2 0.31,-0.41 0.5,-0.57 4.79,-4.01 8.75,-8.93 11.63,-14.49 0.46,-0.95 1.45,-1.49 2.5,-1.42 0.16,0 0.31,0.03 0.47,0.06l9.15 2.24c1.3,0.33 2.66,-0.39 3.16,-1.68l0.09 -0.25 3.84 -10.59c0.46,-1.35 -0.16,-2.81 -1.43,-3.39z"/>
   <path class="fil18" d="M2609.21 1670.4c-0.39,4.6 -2.83,10.76 -5.8,15.15 -0.72,1.02 -1.43,1.92 -2.15,2.69 -3.36,3.6 -7.04,6.37 -10.88,8.35 -21.91,11.35 -48.82,-2.45 -51.38,-28.33 -0.22,-2.59 -0.25,-5.32 0.02,-8.14 0.51,-5.37 3.93,-13.12 7.61,-17.09 0.39,-0.42 0.78,-0.84 1.18,-1.26 24.56,-24.73 64.38,-6.59 61.4,28.63zm47.04 -17.51l-16.73 -2.97c-1.39,-0.25 -2.53,-1.27 -2.92,-2.62 -0.51,-1.74 -1.11,-3.47 -1.76,-5.17 -1.22,-3.18 -2.64,-6.22 -4.29,-9.07 -0.77,-1.33 -0.68,-2.97 0.27,-4.18l10.91 -14.02c1.18,-1.5 1.01,-3.65 -0.41,-4.95l-11.93 -11.05c-1.34,-1.25 -3.4,-1.26 -4.79,-0.07l-12.35 10.73c-1.16,1.05 -2.92,1.19 -4.33,0.34 -5.91,-3.59 -12.38,-6.22 -19.18,-7.8 -1.63,-0.38 -2.82,-1.88 -2.86,-3.56l-0.16 -9.93c-0.05,-1.91 -1.49,-3.49 -3.39,-3.68l-16.09 -1.42c-0.32,-0.03 -0.63,-0.03 -0.96,0.03 -1.49,0.26 -2.72,1.43 -2.98,2.99l-2.22 12.5 -0.54 3.05c-2.94,0.66 -5.89,1.57 -8.8,2.68 -3.88,1.5 -7.57,3.34 -10.97,5.44 -1.31,0.79 -2.96,0.72 -4.16,-0.23l-11.3 -8.79c-1.53,-1.19 -3.74,-1.02 -5.06,0.43l-8.44 9.1 -2.41 2.61c-1.33,1.43 -1.38,3.63 -0.1,5.09l8.96 10.34c1.07,1.18 1.24,2.89 0.44,4.23 -2.32,4.07 -4.19,8.34 -5.6,12.77 -0.15,0.37 -0.25,0.74 -0.38,1.11 -0.02,0.14 -0.07,0.24 -0.12,0.37 -0.56,1.39 -1.91,2.3 -3.41,2.31l-16.17 0.31c-0.17,-0.01 -0.35,0.02 -0.52,0.04 -1.65,0.29 -2.94,1.65 -3.12,3.35l-1.44 16.01c-0.17,1.93 1.17,3.67 3.1,4.01l17.45 3.09c1.48,0.25 2.63,1.4 2.94,2.86 0.71,3.23 1.67,6.46 2.89,9.67 0.67,1.68 1.38,3.35 2.16,4.96 0.62,1.31 0.46,2.86 -0.43,4l-10.48 13.49c-1.16,1.47 -0.99,3.61 0.4,4.9l11.81 10.91c1.42,1.31 3.59,1.37 5.09,0.1l9.77 -8.51c1.32,-1.14 3.21,-1.22 4.63,-0.24 5.5,3.95 11.61,6.99 18.05,9.07 1.52,0.47 2.59,1.88 2.61,3.51l0.28 14.56c0.03,1.94 1.55,3.54 3.49,3.73l15.94 1.44c1.91,0.18 3.65,-1.16 3.97,-3.03l0.14 -0.74 2.58 -14.5c0.27,-1.56 1.46,-2.77 3.02,-3.05l0.02 -0.02c3.71,-0.72 7.43,-1.77 11.1,-3.17 1.96,-0.76 3.84,-1.59 5.69,-2.51 1.27,-0.66 2.81,-0.5 3.94,0.37l11.47 8.93c1.55,1.23 3.8,1.05 5.15,-0.4l10.86 -11.75c0.31,-0.34 0.53,-0.73 0.7,-1.11 0.52,-1.28 0.31,-2.81 -0.63,-3.9l-7.17 -8.24c-0.87,-1.01 -1.14,-2.43 -0.71,-3.64 0.13,-0.33 0.28,-0.64 0.48,-0.94 5.01,-7.1 8.55,-15.12 10.44,-23.61 0.3,-1.45 1.46,-2.54 2.88,-2.82 0.2,-0.04 0.42,-0.06 0.64,-0.07l13.08 -0.25c1.91,-0.02 3.46,-1.48 3.65,-3.38l0.03 -0.37 1.41 -15.62c0.16,-1.95 -1.17,-3.7 -3.13,-4.05z"/>
   <path class="fil23" d="M4049.43 1813.35c-0.56,1.73 -1.18,3.46 -1.73,5.2 -5.05,14.73 -10.55,29.69 -16.61,44.88 -0.84,2.11 -1.71,4.23 -2.57,6.34 -7.36,18.08 -15.47,36.5 -24.41,55.24l-0.03 0.03 -216.9 0.08 0 -111.77 262.25 0z"/>
   <path class="fil10" d="M1809.34 1551.23c-34.89,0 -67.68,13.58 -92.35,38.24 -24.66,24.68 -38.26,57.48 -38.26,92.35 0,72.01 58.59,130.59 130.61,130.59l2004.16 0c34.86,0 67.68,-13.57 92.34,-38.23 24.65,-24.69 38.23,-57.49 38.23,-92.36 0,-72.01 -58.56,-130.59 -130.57,-130.59l-2004.16 0zm2004.16 273.46l-2004.16 0c-78.78,0 -142.88,-64.1 -142.88,-142.87 0,-38.15 14.86,-74.03 41.86,-101.01 26.98,-26.99 62.85,-41.85 101.02,-41.85l2004.16 0c78.76,0 142.85,64.08 142.85,142.86 0,38.14 -14.88,74.04 -41.85,101.02 -26.98,26.99 -62.86,41.85 -101,41.85z"/>
   <path class="fil25" d="M701.5 979.46l-132.75 0c-6.1,0 -11.08,-4.99 -11.08,-11.08l0 -128.13c0,-6.09 4.98,-11.08 11.08,-11.08l132.75 0c6.09,0 11.08,4.99 11.08,11.08l0 128.13c0,6.09 -4.99,11.08 -11.08,11.08z"/>
   <path class="fil26" d="M695.74 972.94l-121.24 0c-5.57,0 -10.12,-4.55 -10.12,-10.12l0 -117.02c0,-5.57 4.55,-10.12 10.12,-10.12l121.24 0c5.57,0 10.12,4.55 10.12,10.12l0 117.02c0,5.57 -4.55,10.12 -10.12,10.12z"/>
   <path class="fil27" d="M631.91 849.4c0,-1.77 1.44,-3.21 3.21,-3.21 1.77,0 3.21,1.44 3.21,3.21 0,1.77 -1.44,3.21 -3.21,3.21 -1.77,0 -3.21,-1.44 -3.21,-3.21z"/>
   <path class="fil27" d="M657.8 853.93c0.87,-1.55 2.82,-2.1 4.37,-1.24 1.55,0.86 2.11,2.81 1.25,4.36 -0.87,1.55 -2.82,2.11 -4.37,1.25 -1.55,-0.86 -2.1,-2.82 -1.25,-4.37z"/>
   <path class="fil27" d="M679.99 871.56c1.49,-0.96 3.47,-0.53 4.43,0.95 0.97,1.49 0.54,3.48 -0.95,4.44 -1.49,0.96 -3.48,0.53 -4.44,-0.96 -0.96,-1.49 -0.53,-3.47 0.96,-4.43z"/>
   <path class="fil27" d="M690.97 898.83c1.78,0 3.22,1.44 3.22,3.21 0,1.77 -1.44,3.21 -3.22,3.21 -1.76,0 -3.2,-1.44 -3.2,-3.21 0,-1.77 1.44,-3.21 3.2,-3.21z"/>
   <path class="fil27" d="M685.36 930.49c1.26,1.25 1.26,3.28 0,4.54 -1.25,1.25 -3.28,1.25 -4.53,0 -1.25,-1.26 -1.25,-3.29 0,-4.54 1.25,-1.25 3.28,-1.25 4.53,0z"/>
   <path class="fil27" d="M665.21 950.69c1.26,1.26 1.26,3.29 0,4.54 -1.25,1.25 -3.28,1.25 -4.53,0 -1.25,-1.25 -1.25,-3.28 0,-4.54 1.25,-1.25 3.28,-1.25 4.53,0z"/>
   <path class="fil27" d="M631.91 961.11c0,-1.78 1.44,-3.22 3.21,-3.22 1.77,0 3.21,1.44 3.21,3.22 0,1.77 -1.44,3.2 -3.21,3.2 -1.77,0 -3.21,-1.43 -3.21,-3.2z"/>
   <path class="fil27" d="M612.34 853.93c-0.86,-1.55 -2.82,-2.1 -4.37,-1.24 -1.55,0.86 -2.11,2.81 -1.24,4.36 0.86,1.55 2.81,2.11 4.36,1.25 1.55,-0.86 2.11,-2.82 1.25,-4.37z"/>
   <path class="fil27" d="M590.15 871.56c-1.48,-0.96 -3.47,-0.53 -4.43,0.95 -0.96,1.49 -0.53,3.48 0.95,4.44 1.5,0.96 3.48,0.53 4.44,-0.96 0.96,-1.49 0.53,-3.47 -0.96,-4.43z"/>
   <path class="fil27" d="M579.17 898.83c-1.78,0 -3.21,1.44 -3.21,3.21 0,1.77 1.43,3.21 3.21,3.21 1.77,0 3.2,-1.44 3.2,-3.21 0,-1.77 -1.43,-3.21 -3.2,-3.21z"/>
   <path class="fil27" d="M584.78 930.49c-1.26,1.25 -1.26,3.28 0,4.54 1.25,1.25 3.28,1.25 4.54,0 1.25,-1.26 1.25,-3.29 0,-4.54 -1.26,-1.25 -3.29,-1.25 -4.54,0z"/>
   <path class="fil27" d="M604.93 950.69c-1.26,1.26 -1.26,3.29 0,4.54 1.25,1.25 3.28,1.25 4.53,0 1.26,-1.25 1.26,-3.28 0,-4.54 -1.25,-1.25 -3.28,-1.25 -4.53,0z"/>
   <path class="fil27" d="M634.26 902.04c0,-1.77 1.43,-3.21 3.21,-3.21 1.77,0 3.2,1.44 3.2,3.21 0,1.77 -1.43,3.21 -3.2,3.21 -1.78,0 -3.21,-1.44 -3.21,-3.21z"/>
   <polygon class="fil27" points="637.03,902.04 637.9,902.04 637.9,861.96 637.03,861.96 "/>
   <polygon class="fil27" points="637.87,903.02 636.25,900.95 657.5,884.27 659.13,886.34 "/>
   <polygon class="fil28" points="1994.41,1323.99 2192.59,1323.99 2192.59,1160.58 1994.41,1160.58 "/>
   <polygon class="fil12" points="2093.51,1323.99 2291.67,1323.99 2291.67,1160.58 2093.51,1160.58 "/>
   <polygon class="fil29" points="1994.52,1282.55 2025.94,1282.55 2023.17,1273.7 2025.94,1267.39 1994.52,1267.39 "/>
   <polygon class="fil14" points="2093.51,1211.15 2124.9,1211.15 2122.14,1202.32 2124.9,1195.99 2093.51,1195.99 "/>
   <polygon class="fil29" points="2093.51,1195.99 2062.1,1195.99 2064.86,1204.83 2062.1,1211.15 2093.51,1211.15 "/>
   <polygon class="fil14" points="2291.69,1284.3 2260.28,1284.3 2263.04,1293.13 2260.28,1299.46 2291.69,1299.46 "/>
   <polygon class="fil15" points="2221.68,1193.84 2278.7,1193.84 2278.7,1171.66 2221.68,1171.66 "/>
   <path class="fil30" d="M2198.19 1317.03c4.81,-3.12 15.72,-9.99 16.2,-8.34 0.35,1.18 -0.29,3.13 -1.65,5.14 6.52,-2.15 13.11,-3.47 28.42,0.09 3.06,0.71 5.8,2.58 7.39,5.29 1.47,2.51 1.94,5.59 -2.09,7.89 -8.05,4.59 -5.66,1.74 -16.87,8.45 -11.22,6.7 -24.68,8.01 -32.49,2.69l-10.66 -2.2 -0.66 -17.72c0,0 6.16,-0.49 12.41,-1.29z"/>
   <path class="fil14" d="M1980.24 1141.21c-29.39,18.29 -59.84,-6.57 -59.84,-6.57 0,0 11.66,-29.85 4.38,-69.21 -0.3,-1.6 51.27,19.65 52.83,19.99l0.02 0c0,0 0.02,0.13 0.06,0.36 0.03,0.25 0.06,0.49 0.09,0.75 0.8,6.93 1.37,13.83 1.74,20.27 1.14,19.22 0.72,34.41 0.72,34.41z"/>
   <path class="fil31" d="M1979.52 1106.8c-23.41,-2.13 -41.42,-15.26 -47.39,-22.65 -1.83,-2.23 44.12,1.16 45.48,1.27l0.02 0c0,0 0.02,0.13 0.06,0.36 0.03,0.18 0.06,0.44 0.09,0.75 0.8,6.93 1.37,13.83 1.74,20.27z"/>
   <path class="fil14" d="M1987.22 1082.15c0,0 -50.55,22.35 -64,-9.35 -13.43,-31.71 -29,-50.17 2.71,-65.78 31.72,-15.61 43.15,-6.19 50.22,3.3 7.06,9.49 23.88,65.2 11.07,71.83z"/>
   <path class="fil22" d="M1926.73 1081.47c-0.64,0.59 -11.36,6.22 -40.96,-32.68 -4.65,-6.09 -9.7,-20.25 -4.22,-34.61 5.47,-14.36 31.53,-29.73 53.94,-38.5 10.52,-4.11 20.53,-3.31 28.21,-1.3 9.45,2.47 15.01,12.38 12.32,21.76 -4.23,14.85 -14.75,23.95 -28.05,23.55 -8.91,-0.27 -8.34,17.93 -8.19,22.27 0.18,4.34 -0.13,8.02 -11.35,6.22 -9.62,-1.53 -4.19,11.16 -0.97,16.88 1.61,2.81 2.48,6.01 2.3,9.24 -0.16,2.49 -0.91,5.17 -3.03,7.17z"/>
   <path class="fil32" d="M1849.35 1925.84l-32.58 0c-6.84,0 -14.43,-6.83 -16.33,-19.35 -1.9,-12.54 -15.93,-19.36 -18.97,-29.61 -3.05,-10.26 12.52,-24.69 12.52,-24.69l2.61 -3.35 2.71 -3.47 25.81 6.07c0,0 0.64,6.14 1.03,13.97 0.27,5.65 0.43,12.19 0.1,17.92 -0.75,13.67 3.83,28.38 15.97,31.04 12.15,2.65 7.13,11.47 7.13,11.47z"/>
   <path class="fil32" d="M2076.19 1925.84l-86.37 0c-0.83,-0.15 -1.45,-0.34 -1.83,-0.52 -5.77,-2.89 -3.96,-24.97 -3.28,-31.79 0.14,-1.27 0.23,-2 0.23,-2 0,0 30.37,-24.3 34.56,-5.71 0.13,0.59 0.28,1.17 0.44,1.72l0 0.02c5.27,17.4 28.84,25.29 42.45,27.51 10.41,1.68 13.11,7.74 13.8,10.77z"/>
   <path class="fil12" d="M2058.78 1427.75c0,0 -4.61,57.55 -10.03,126.74 -7.37,93.96 -16.23,209.39 -17.1,231.26 -1.52,37.98 -7.6,98.71 -7.6,98.71 0,0 -14.42,14.42 -43.28,8.34 0,0 -25.73,-86.7 -33.07,-178.44 -0.11,-1.5 -0.23,-3.02 -0.34,-4.54 -6.84,-93.38 -17.46,-290.04 -17.46,-290.04l128.88 7.97z"/>
   <path class="fil22" d="M2045.98 1419.78c-12.19,0.74 -140.65,-4.13 -140.68,-11.3 -0.11,-24.94 -5.33,-65.35 -11.86,-114.4 -1.19,-9.15 -2.13,-18.22 -2.82,-27.18 -1.79,-23.36 -1.87,-45.85 -0.13,-66.16 3.24,-37.73 13.05,-61.97 29.4,-76.16 0,0 15.39,1.27 29.57,3.4 16.05,2.41 21.98,1.4 33,-1.67l19.61 16.87c11.74,10.94 21.14,22.35 24.92,38.15 0,0 20.07,238.38 18.99,238.45z"/>
   <path class="fil33" d="M1911.78 1247.19c0,0 13.53,42.84 58.65,63.58 45.13,20.75 18.15,-39.42 18.15,-39.42l-76.8 -24.16z"/>
   <path class="fil12" d="M2026.99 1181.33l-35.09 8.15 -48.3 130.79c-6.93,18.78 -22.92,30.37 -42.92,30.37l-0.08 3.11 2.39 62.33 155.59 14.14c0,0 0.74,-78 -2.04,-102.98 -4.13,-36.99 -29.55,-145.91 -29.55,-145.91z"/>
   <path class="fil22" d="M2195.26 1326.94c1.1,-10.21 -4.13,-12.12 -4.13,-12.12 0,0 -103.44,-22.91 -112.17,-26.04 -8.75,-3.12 -81.41,-84.82 -81.41,-84.82 0,0 -27.76,-33.85 -51.81,-27.54 -20.89,5.49 -29.58,21.27 -32.93,36.52 -3.97,18.15 -16.49,23.92 -1.03,34.25 34.7,23.18 124.44,81.85 141,87.41 36.87,12.38 137.48,6.19 137.48,6.19 0,0 4.12,-5.82 5,-13.85z"/>
   <path class="fil11" d="M1955.53 1151.61c-8.17,-7.59 -35.64,-27.03 -35.64,-27.03 0,0 1.11,-1.83 2.72,-3.46 1.59,-1.59 3.49,-2.74 3.49,-2.74 3.49,-0.74 30.58,19.63 39.58,27.65 10.86,9.67 41,40.02 41,40.02l-14.78 3.43c0,0 -26.74,-28.94 -36.37,-37.87z"/>
   <path class="fil12" d="M1989.38 1007.3c0,0 -20.17,11.35 -27.6,13.24 -2.21,0.57 -35.15,8.85 -35.15,8.85l-47.17 17.35c0,0 -16.01,-34.46 3.74,-61.46l0 -0.01c0.5,-0.68 1.03,-1.36 1.56,-2.02 5.44,-6.71 13.23,-12.87 24.21,-17.83 55.63,-25.09 79.78,39.82 80.41,41.88z"/>
   <path class="fil34" d="M1962.25 1019.41l-8.99 2.88c-8.91,-8.23 -41.47,-36.45 -70.42,-36.29 0.12,-0.29 0.24,-0.52 0.36,-0.72l0 -0.01c0.39,-0.68 0.73,-1.04 1.27,-2.04l0.29 0.02c37.47,2.15 69.89,28.79 77.49,36.16z"/>
   <path class="fil12" d="M1926.63 1029.39c0,0 -4.99,8.23 -5.41,15.33 -0.41,7.12 -31.31,16.89 -34.13,13.75 -2.82,-3.17 -7.63,-11.73 -7.63,-11.73l47.17 -17.35z"/>
   <path class="fil34" d="M1926.63 1029.39c0,0 58.48,-9.37 82.6,-28.19 1.84,-1.43 0.95,-4.39 -1.37,-4.53 -4.17,-0.26 -11.2,-0.12 -22.51,1.49 0,0 -17.75,21.07 -58.72,31.23z"/>
   <path class="fil11" d="M2041.59 1423.92c0,0 2.99,35.91 -13.61,103.28 -12.18,49.44 -80.28,187.16 -80.28,187.16 -0.11,-1.5 -0.23,-3.02 -0.34,-4.54 -6.84,-93.38 -17.46,-290.04 -17.46,-290.04l111.69 4.14z"/>
   <path class="fil12" d="M2041.59 1423.92c0,0 -87.01,219.08 -141.68,317.03 -54.67,97.95 -71.75,125.29 -71.75,125.29 0,0 -31.32,-12.53 -34.17,-21.07 0,0 20.9,-189.09 57.52,-235.19 20.69,-26.04 44.98,-104.2 46.12,-131.55 1.15,-27.32 4.19,-92.81 4.19,-92.81l139.77 38.3z"/>
   <path class="fil35" d="M3369.08 141.2l-49.95 -0.22 -12.66 -8.14 39.29 0.17c7.79,2.61 15.59,5.34 23.32,8.19zm-63.13 -0.27l0 0 -153.43 -0.68 -0.03 0 -12.65 -8.14 0 0 166.6 0.73 -3.83 5.95 3.34 2.14zm-166.64 -0.73l-153.43 -0.68 -0.03 0 -12.68 -8.14 0.03 0 166.61 0.73 0 0 -3.84 5.95 3.34 2.14zm-166.64 -0.73l0 0 -153.45 -0.69 -0.02 0 -12.66 -8.13 0.02 0 166.61 0.73 0 0 -3.84 5.95 3.34 2.14zm-166.64 -0.73l0 0 -153.45 -0.69 0 0 -12.68 -8.14 0.01 0 166.6 0.74 0.02 0 -3.83 5.94 3.33 2.15zm-166.63 -0.73l-0.01 0 -153.45 -0.69 0 0 -12.68 -8.14 0.01 0 166.6 0.73 0.02 0 -3.83 5.95 3.34 2.15zm-166.64 -0.74l-0.01 0 -153.44 -0.68 -0.01 0 -12.68 -8.14 0.03 0 166.58 0.73 0.02 0 -3.83 5.95 3.34 2.14zm-166.64 -0.73l0 0 -153.45 -0.68 -0.01 0 -12.68 -8.14 0.03 0 166.6 0.73 0 0 -3.83 5.95 3.34 2.14zm-166.66 -0.75l0 0 -153.43 -0.66 -0.01 0 -12.67 -8.14 0.02 0 166.58 0.73 0.02 0 -3.83 5.95 3.32 2.12zm-166.65 -0.73l0 0 -153.42 -0.66 -0.01 0 -12.67 -8.15 0 0 166.6 0.74 0.02 0 -3.82 5.94 3.3 2.13zm-166.62 -0.73l-0.02 0 -153.42 -0.67 -0.01 0 -12.67 -8.14 0.02 0 166.58 0.73 0.01 0 -3.81 5.95 3.32 2.13zm-166.64 -0.73l-153.44 -0.67 -0.01 0 -12.67 -8.14 0.01 0 166.6 0.73 0 0 -3.81 5.95 3.32 2.13zm-166.64 -0.73l0 0 -153.44 -0.67 -0.02 0 -12.67 -8.15 -3.83 5.96 3.32 2.13 -0.02 0 -37.21 -0.16c3.29,-2.72 6.62,-5.41 10,-8.04l0.01 0 27.73 0.11 0.01 0 166.61 0.74 0 0 -3.81 5.95 3.32 2.13z"/>
   <path class="fil35" d="M3521 219.62l-2326.61 -10.2c2.05,-2.73 4.15,-5.42 6.3,-8.07l48.11 0.21 9.41 6.03 3.83 -5.96 -0.03 -0.01 153.43 0.67 0.02 0 9.39 6.03 3.82 -5.96 -0.02 -0.01 153.42 0.67 0.03 0 9.39 6.03 3.81 -5.96 -0.01 -0.01 153.44 0.67 0 0 9.38 6.03 3.83 -5.95 -0.01 -0.02 153.44 0.67 0 0 9.38 6.03 3.83 -5.95 -0.01 -0.02 0 0 153.44 0.67 0 0 9.38 6.04 3.83 -5.96 -0.01 -0.01 0.01 0 153.41 0.66 0.02 0 9.38 6.04 3.83 -5.96 -0.01 -0.01 0 0 153.42 0.66 0.02 0 9.39 6.04 3.83 -5.96 -0.03 -0.01 0.01 0 153.43 0.67 0.01 0 9.39 6.03 3.83 -5.96 -0.03 -0.01 0.01 0 153.44 0.67 0 0 9.39 6.03 3.83 -5.95 -0.03 -0.02 0.01 0 153.43 0.67 0 0 9.4 6.04 3.84 -5.96 -0.03 -0.02 0 0 153.43 0.69 0.03 0 9.37 6.02 3.84 -5.96 -0.03 -0.02 0 0 153.46 0.69 0 0 9.37 6.02 3.83 -5.96 -0.03 -0.01 0 0 153.46 0.68 0 0 9.38 6.02 3.83 -5.96 -0.03 -0.01 0 0 81.54 0.35c3.77,2.68 7.52,5.4 11.14,8.14z"/>
   <path class="fil35" d="M1258.21 207.59l-9.41 -6.03 -31.29 -20.11c1.61,-1.79 3.21,-3.56 4.83,-5.32l39.67 25.49 0.03 0.01 -3.83 5.96z"/>
   <polygon class="fil35" points="1424.85,208.32 1415.46,202.29 1306.27,132.14 1302.95,130.01 1306.78,124.05 1319.45,132.2 1428.65,202.35 1428.67,202.36 "/>
   <polygon class="fil35" points="1591.49,209.05 1582.1,203.02 1472.91,132.87 1469.59,130.74 1473.4,124.79 1473.42,124.78 1473.43,124.79 1486.1,132.93 1595.29,203.08 1595.3,203.09 "/>
   <polygon class="fil35" points="1758.11,209.78 1748.73,203.75 1639.55,133.6 1636.23,131.47 1640.04,125.52 1640.06,125.51 1640.07,125.52 1652.74,133.66 1761.93,203.81 1761.94,203.83 "/>
   <polygon class="fil35" points="1924.75,210.51 1915.37,204.48 1806.19,134.33 1802.87,132.2 1806.68,126.25 1806.68,126.25 1806.71,126.25 1819.38,134.4 1928.57,204.54 1928.58,204.56 "/>
   <polygon class="fil35" points="2091.39,211.25 2082.01,205.21 1972.81,135.06 1969.51,132.93 1973.33,126.99 1973.33,126.98 1973.35,126.99 1986.02,135.13 2095.21,205.28 2095.22,205.29 "/>
   <polygon class="fil35" points="2258.03,211.98 2248.65,205.94 2139.46,135.79 2136.14,133.67 2139.97,127.72 2139.97,127.71 2139.98,127.72 2152.66,135.86 2261.85,206.01 2261.86,206.02 "/>
   <polygon class="fil35" points="2424.68,212.71 2415.29,206.67 2306.12,136.54 2302.78,134.4 2306.61,128.45 2306.61,128.44 2306.62,128.45 2319.3,136.59 2428.48,206.74 2428.51,206.75 "/>
   <polygon class="fil35" points="2591.32,213.44 2581.93,207.41 2472.76,137.27 2469.42,135.13 2473.25,129.18 2473.25,129.17 2473.26,129.18 2485.94,137.32 2595.12,207.47 2595.15,207.48 "/>
   <polygon class="fil35" points="2757.96,214.17 2748.57,208.14 2639.4,138.01 2636.06,135.86 2639.89,129.91 2639.89,129.9 2639.9,129.91 2652.58,138.05 2761.76,208.2 2761.79,208.22 "/>
   <polygon class="fil35" points="2924.6,214.91 2915.2,208.87 2806.03,138.74 2802.7,136.59 2806.53,130.65 2806.53,130.63 2806.54,130.65 2819.2,138.78 2928.41,208.93 2928.44,208.95 "/>
   <polygon class="fil35" points="3091.24,215.64 3081.87,209.62 2972.67,139.47 2969.33,137.33 2973.17,131.38 2973.17,131.37 2973.17,131.38 2985.85,139.52 3095.05,209.66 3095.08,209.68 "/>
   <polygon class="fil35" points="3257.88,216.37 3248.51,210.35 3139.31,140.2 3135.97,138.06 3139.81,132.11 3139.81,132.1 3139.84,132.11 3152.49,140.25 3261.68,210.4 3261.71,210.41 "/>
   <polygon class="fil35" points="3424.52,217.1 3415.14,211.08 3305.95,140.93 3302.61,138.79 3306.44,132.84 3306.44,132.83 3306.47,132.84 3319.13,140.98 3428.32,211.13 3428.35,211.14 "/>
   <polygon class="fil36" points="2342.84,1538.9 2610.31,1538.9 2610.31,1318.36 2342.84,1318.36 "/>
   <polygon class="fil16" points="2476.58,1538.9 2744.03,1538.9 2744.03,1318.36 2476.58,1318.36 "/>
   <polygon class="fil22" points="2342.99,1482.97 2385.38,1482.97 2381.65,1471.05 2385.38,1462.52 2342.99,1462.52 "/>
   <polygon class="fil21" points="2476.58,1386.61 2518.95,1386.61 2515.22,1374.69 2518.95,1366.16 2476.58,1366.16 "/>
   <polygon class="fil22" points="2476.58,1366.16 2434.19,1366.16 2437.92,1378.09 2434.19,1386.61 2476.58,1386.61 "/>
   <polygon class="fil21" points="2744.05,1485.34 2701.66,1485.34 2705.39,1497.27 2701.66,1505.79 2744.05,1505.79 "/>
   <polygon class="fil15" points="2649.56,1363.26 2726.52,1363.26 2726.52,1333.32 2649.56,1333.32 "/>
   <path class="fil14" d="M3215.13 1176.89c0,0 -12.68,72.12 -26.54,147.45 -15.07,81.9 -31.55,167.6 -34.65,168.67 -5.97,2.06 -5.5,-10.97 -9.59,-20.91 -3.31,-8 -13.33,-76.48 -10.02,-119.18 0.8,-10.43 3.47,-138.92 21.28,-154.09 17.82,-15.17 59.52,-21.94 59.52,-21.94z"/>
   <path class="fil14" d="M3140.46 1452.95c0,0 3.06,11.81 -1.43,23.37 -4.48,11.56 -5.41,14.85 2.88,21.34 8.29,6.49 17.26,15.6 23.48,12.91 6.22,-2.7 2.38,-55.61 2.38,-55.61l-27.31 -2.01z"/>
   <path class="fil22" d="M3157.69 1925.84c7.7,-4.69 3.31,-39.73 3.31,-39.73 0,0 -35.86,-28.68 -40.78,-6.72 -4.94,21.96 -34.08,31.82 -50.66,34.51 -11.45,1.86 -14.98,8.2 -16.09,11.94l104.22 0z"/>
   <path class="fil22" d="M3316.9 1925.84c7.67,-4.69 3.31,-39.73 3.31,-39.73 0,0 -35.88,-28.68 -40.8,-6.72 -4.92,21.96 -34.06,31.82 -50.64,34.51 -11.45,1.86 -15,8.2 -16.09,11.94l104.22 0z"/>
   <path class="fil37" d="M3267.07 1519.19c-12.75,53.92 -28.83,115.49 -35.11,150.2 -0.75,4.02 -1.33,7.69 -1.8,10.92 -0.43,3.25 -0.71,6.09 -0.83,8.44 -3.34,65.02 -54.72,213.68 -63.91,217.14 -14.23,5.36 -36.66,-6.04 -48.38,-9.77 -4.86,-1.56 -8.11,-6.45 -7.05,-11.43 25.45,-116.99 41.14,-284.44 44.54,-384.19 1.73,-50.24 4.02,-85.98 4.02,-85.98 0,0 125.34,-33.45 126.12,8.86 0.27,16.4 -7.68,53.78 -17.6,95.81z"/>
   <path class="fil34" d="M3267.07 1519.19c-12.75,53.92 -28.83,115.49 -35.11,150.2 -0.75,4.02 -4.58,38.14 -5.05,41.37l-21.93 -249.31 31.12 2.86 30.97 54.88z"/>
   <path class="fil37" d="M3217.73 1437.89l44.23 462.06c0,0 32.73,10.62 62.3,2.42 0,0 17.2,-252.6 15.56,-314.36 -1.61,-61.74 13.95,-165.24 -3.53,-176.64 -17.47,-11.41 -118.56,26.52 -118.56,26.52z"/>
   <path class="fil22" d="M3335.43 1314.36c0.46,5.27 2.47,103.76 2.63,107.46 0.15,4.07 -10.98,12.2 -50.33,18.04 -14.14,2.1 -30.75,3.53 -49.87,3.75 -49.06,0.55 -67.8,-20.07 -67.8,-20.07 -3.34,0.06 3.71,-23.92 4.86,-179.62 -0.84,0 -1.77,0.16 -2.57,-0.15 -17.39,-6.75 -33.57,-20.86 -33.57,-20.86 0,0 19.71,-54.76 38.33,-82.62 4.55,-6.79 16.8,-12.14 33.07,-15.63 4.27,-0.91 8.85,-1.7 13.64,-2.35 22.21,-3.04 49.06,-3.14 73.9,0.47 4.33,0.59 8.6,1.33 12.78,2.18 18.4,3.74 34.98,9.73 46.74,18.29 17.32,12.58 30.22,77.02 30.22,77.02 0,0 -16.33,18.52 -53.05,27.55 -1.95,37.09 -1.15,42.12 1.02,66.54z"/>
   <path class="fil37" d="M3158.55 1414.52l14.97 -186.53c0.87,-10.74 10.09,-18.87 20.85,-18.38l101.99 4c8.41,0.32 15.19,6.99 15.62,15.4 1.24,24.49 5.94,72.08 23.45,85.35l9.25 135.02 -114.02 103.21c0,0 -12.93,-75.64 -30.75,-96.66 -9.96,-11.76 -41.36,-41.41 -41.36,-41.41z"/>
   <path class="fil37" d="M3310.5 1124.96l-12.32 95.31 -12.8 -2.01 12.34 -95.48c4.33,0.59 8.6,1.33 12.78,2.18z"/>
   <path class="fil37" d="M3223.82 1122.31l-15.81 85.5 -1.3 7.17 -1.42 -0.33 -11.26 -2.52 16.15 -87.47c4.27,-0.91 8.85,-1.7 13.64,-2.35z"/>
   <path class="fil14" d="M3387.46 1321.92c0,0 -7.67,23.27 -106.1,55.46 0,0 -1.12,-26.29 4.85,-29.81 18.5,-10.86 62.61,-43.28 64.13,-48.99 0.99,-3.79 -9.07,-32.42 -21.78,-61.21 23.36,-2.59 38.39,-4.69 55.59,-13.91 6.4,45.28 15.22,76.96 3.31,98.46z"/>
   <path class="fil14" d="M3270.13 1348.84c0,0 -8.2,-6.29 -14.51,-7.22 -6.31,-0.93 -16.95,-4.95 -15.22,-1.22 1.73,3.74 13.36,9.63 13.36,9.63l16.37 -1.19z"/>
   <path class="fil38" d="M3254.38 1390.31l-32.08 3.93c-3.55,0.43 -6.89,-1.76 -7.91,-5.17l-21.97 -72.78c-1.3,-4.37 1.64,-8.86 6.16,-9.42l32.08 -3.91c3.55,-0.44 6.89,1.74 7.92,5.16l21.96 72.79c1.3,4.37 -1.64,8.87 -6.16,9.4z"/>
   <path class="fil39" d="M3243.03 1391.7l-32.08 3.92c-3.55,0.44 -6.9,-1.75 -7.92,-5.16l-21.96 -72.8c-1.33,-4.35 1.61,-8.84 6.16,-9.4l32.07 -3.91c3.56,-0.44 6.87,1.74 7.92,5.16l21.97 72.79c1.29,4.35 -1.64,8.85 -6.16,9.4z"/>
   <path class="fil39" d="M3220.36 1318.36l0 0c-0.96,0.11 -1.95,-0.54 -2.26,-1.46l-21.5 -63.86c-0.31,-0.9 0.22,-1.74 1.14,-1.85 0.93,-0.12 1.95,0.53 2.26,1.44l21.5 63.86c0.28,0.9 -0.22,1.74 -1.14,1.87z"/>
   <path class="fil14" d="M3286.21 1347.57c0,0 -5.72,3.53 -9.77,2.47 -3.37,-0.89 -6.31,-1.2 -10.18,-3.84 -4.08,-2.78 -13.15,0.89 -15.81,2.68 -7.48,4.99 -32.72,4.78 -32.72,9.77 0,4.99 10.98,19 24.28,23.17 13.3,4.15 39.35,-4.44 39.35,-4.44l4.85 -29.81z"/>
   <path class="fil14" d="M3286.52 1120.48c0.53,14.82 -12.59,22.04 -32.26,19.21 -19.71,-2.79 -20.08,-18.08 -20.08,-18.08l0.5 -14.77 0.52 -17.49 0.53 -15.63 47.64 6.46c-0.16,1.19 -0.1,3.94 0.09,7.54l0 0.01c0.43,9.38 1.76,24.49 3.06,32.75z"/>
   <path class="fil31" d="M3283.46 1087.72l0 0.01c-0.46,0.66 -11.35,15.49 -48.78,19.11l0.52 -17.49 48.26 -1.63 0 0z"/>
   <path class="fil14" d="M3226.05 1097.59c0,0 58.62,11.84 65.45,-24.77 6.81,-36.63 18.96,-59.78 -18.19,-68.88 -37.15,-9.11 -47.01,3.5 -52.27,15.17 -5.26,11.67 -10.09,74.45 5.01,78.48z"/>
   <path class="fil38" d="M3288.78 1080.96c0,0 20.42,4.59 22.33,-32.52 0.75,-14.29 4.3,-64.45 -36.53,-62.74 -40.8,1.72 -59.42,25.59 -63.13,29.78 -27.84,31.44 39.93,8.04 48.96,15.35 9.04,7.3 0.44,19.32 10.74,23.62 10.3,4.3 18.47,4.3 16.76,13.76 -1.7,9.44 0.87,12.75 0.87,12.75z"/>
   <path class="fil12" d="M3206 1016.2c0,0 21.84,7.61 29.51,8.16 2.26,0.17 36.16,2.49 36.16,2.49l49.5 8.73c0,0 9.65,-36.74 -14.57,-59.83l0 0c-0.62,-0.59 -1.24,-1.16 -1.89,-1.72 -6.56,-5.64 -15.31,-10.33 -26.97,-13.26 -59.21,-14.87 -71.49,53.29 -71.74,55.43z"/>
   <path class="fil34" d="M3234.83 1023.33l9.38 1.24c7.3,-9.67 34.33,-43.21 62.88,-48.18 -0.18,-0.25 -0.34,-0.46 -0.49,-0.64l0 0c-0.5,-0.6 -0.9,-0.9 -1.61,-1.79l-0.28 0.07c-36.5,8.74 -63.69,40.7 -69.88,49.3z"/>
   <path class="fil12" d="M3271.67 1026.85c0,0 6.35,7.21 8.02,14.13 1.67,6.93 33.81,11.09 36.03,7.49 2.2,-3.6 5.45,-12.89 5.45,-12.89l-49.5 -8.73z"/>
   <path class="fil34" d="M3271.67 1026.85c0,0 -59.23,1.11 -86.3,-13.14 -2.04,-1.09 -1.7,-4.16 0.56,-4.71 4.05,-0.99 10.98,-2.09 22.42,-2.52 0,0 21.19,17.6 63.32,20.37z"/>
   <polygon class="fil16" points="220.04,1937.57 852.9,1937.57 852.9,1477.26 220.04,1477.26 "/>
   <polygon class="fil16" points="933.05,955.79 846.75,955.79 846.75,1925.84 993.08,1925.84 993.08,1447.41 933.05,1201.59 "/>
   <polygon class="fil23" points="933.05,1201.59 1411.43,1201.59 1411.43,955.79 933.05,955.79 "/>
   <polygon class="fil23" points="993.08,1925.84 1471.47,1925.84 1471.47,1447.4 993.08,1447.4 "/>
   <polygon class="fil40" points="1471.47,1447.41 993.08,1447.41 933.05,1201.59 1411.43,1201.59 "/>
   <polygon class="fil16" points="1000.98,1250.42 988.47,1250.42 983.69,1232.61 996.2,1232.61 "/>
   <polygon class="fil16" points="1029.43,1250.42 1016.93,1250.42 1012.14,1232.61 1024.65,1232.61 "/>
   <polygon class="fil16" points="1057.89,1250.42 1045.38,1250.42 1040.6,1232.61 1053.1,1232.61 "/>
   <polygon class="fil16" points="1086.34,1250.42 1073.84,1250.42 1069.05,1232.61 1081.56,1232.61 "/>
   <polygon class="fil16" points="1114.8,1250.42 1102.29,1250.42 1097.51,1232.61 1110.02,1232.61 "/>
   <polygon class="fil16" points="1143.25,1250.42 1130.74,1250.42 1125.96,1232.61 1138.47,1232.61 "/>
   <polygon class="fil16" points="1009.91,1283.67 997.4,1283.67 992.62,1265.86 1005.13,1265.86 "/>
   <polygon class="fil16" points="1038.36,1283.67 1025.86,1283.67 1021.07,1265.86 1033.58,1265.86 "/>
   <polygon class="fil16" points="1066.82,1283.67 1054.31,1283.67 1049.53,1265.86 1062.03,1265.86 "/>
   <polygon class="fil16" points="1095.27,1283.67 1082.77,1283.67 1077.98,1265.86 1090.49,1265.86 "/>
   <polygon class="fil16" points="1123.73,1283.67 1111.22,1283.67 1106.44,1265.86 1118.95,1265.86 "/>
   <polygon class="fil16" points="1152.18,1283.67 1139.67,1283.67 1134.89,1265.86 1147.4,1265.86 "/>
   <polygon class="fil16" points="1019.16,1318.1 1006.65,1318.1 1001.87,1300.29 1014.38,1300.29 "/>
   <polygon class="fil16" points="1047.61,1318.1 1035.11,1318.1 1030.32,1300.29 1042.83,1300.29 "/>
   <polygon class="fil16" points="1076.07,1318.1 1063.56,1318.1 1058.78,1300.29 1071.28,1300.29 "/>
   <polygon class="fil16" points="1104.52,1318.1 1092.01,1318.1 1087.23,1300.29 1099.74,1300.29 "/>
   <polygon class="fil16" points="1132.98,1318.1 1120.47,1318.1 1115.69,1300.29 1128.19,1300.29 "/>
   <polygon class="fil16" points="1161.43,1318.1 1148.92,1318.1 1144.14,1300.29 1156.65,1300.29 "/>
   <polygon class="fil16" points="1028.09,1351.36 1015.58,1351.36 1010.8,1333.55 1023.31,1333.55 "/>
   <polygon class="fil16" points="1056.54,1351.36 1044.04,1351.36 1039.25,1333.55 1051.76,1333.55 "/>
   <polygon class="fil16" points="1085,1351.36 1072.49,1351.36 1067.7,1333.55 1080.21,1333.55 "/>
   <polygon class="fil16" points="1113.46,1351.36 1100.95,1351.36 1096.16,1333.55 1108.67,1333.55 "/>
   <polygon class="fil16" points="1141.91,1351.36 1129.4,1351.36 1124.62,1333.55 1137.12,1333.55 "/>
   <polygon class="fil16" points="1170.36,1351.36 1157.85,1351.36 1153.07,1333.55 1165.58,1333.55 "/>
   <polygon class="fil16" points="1199.01,1250.42 1186.5,1250.42 1181.72,1232.61 1194.22,1232.61 "/>
   <polygon class="fil16" points="1227.46,1250.42 1214.95,1250.42 1210.17,1232.61 1222.67,1232.61 "/>
   <polygon class="fil16" points="1255.91,1250.42 1243.4,1250.42 1238.62,1232.61 1251.13,1232.61 "/>
   <polygon class="fil16" points="1284.37,1250.42 1271.86,1250.42 1267.08,1232.61 1279.59,1232.61 "/>
   <polygon class="fil16" points="1312.82,1250.42 1300.31,1250.42 1295.53,1232.61 1308.04,1232.61 "/>
   <polygon class="fil16" points="1341.28,1250.42 1328.77,1250.42 1323.99,1232.61 1336.5,1232.61 "/>
   <polygon class="fil16" points="1207.94,1283.67 1195.43,1283.67 1190.64,1265.86 1203.15,1265.86 "/>
   <polygon class="fil16" points="1236.4,1283.67 1223.88,1283.67 1219.1,1265.86 1231.6,1265.86 "/>
   <polygon class="fil16" points="1264.84,1283.67 1252.34,1283.67 1247.56,1265.86 1260.06,1265.86 "/>
   <polygon class="fil16" points="1293.3,1283.67 1280.8,1283.67 1276,1265.86 1288.51,1265.86 "/>
   <polygon class="fil16" points="1321.75,1283.67 1309.24,1283.67 1304.46,1265.86 1316.97,1265.86 "/>
   <polygon class="fil16" points="1350.21,1283.67 1337.71,1283.67 1332.91,1265.86 1345.42,1265.86 "/>
   <polygon class="fil16" points="1217.18,1318.1 1204.68,1318.1 1199.89,1300.29 1212.4,1300.29 "/>
   <polygon class="fil16" points="1245.64,1318.1 1233.14,1318.1 1228.36,1300.29 1240.86,1300.29 "/>
   <polygon class="fil16" points="1274.09,1318.1 1261.58,1318.1 1256.8,1300.29 1269.31,1300.29 "/>
   <polygon class="fil16" points="1302.55,1318.1 1290.04,1318.1 1285.26,1300.29 1297.77,1300.29 "/>
   <polygon class="fil16" points="1331,1318.1 1318.49,1318.1 1313.71,1300.29 1326.22,1300.29 "/>
   <polygon class="fil16" points="1359.46,1318.1 1346.95,1318.1 1342.17,1300.29 1354.68,1300.29 "/>
   <polygon class="fil16" points="1226.11,1351.36 1213.61,1351.36 1208.83,1333.55 1221.33,1333.55 "/>
   <polygon class="fil16" points="1254.58,1351.36 1242.07,1351.36 1237.27,1333.55 1249.78,1333.55 "/>
   <polygon class="fil16" points="1283.02,1351.36 1270.52,1351.36 1265.74,1333.55 1278.25,1333.55 "/>
   <polygon class="fil16" points="1311.48,1351.36 1298.98,1351.36 1294.18,1333.55 1306.69,1333.55 "/>
   <polygon class="fil16" points="1339.93,1351.36 1327.42,1351.36 1322.64,1333.55 1335.15,1333.55 "/>
   <polygon class="fil16" points="1368.39,1351.36 1355.89,1351.36 1351.09,1333.55 1363.6,1333.55 "/>
   <polygon class="fil10" points="969.77,1177.39 1147.38,1177.39 1147.38,1034.29 969.77,1034.29 "/>
   <polygon class="fil41" points="1134.89,1177.39 1147.58,1177.39 1147.58,1034.29 1134.89,1034.29 "/>
   <path class="fil16" d="M1029.49 1874.2l422.26 0 0 -170.36 -422.26 0 0 170.36zm425.05 2.79l-427.85 0 0 -175.94 427.85 0 0 175.94z"/>
   <path class="fil15" d="M1256.46 996.88c0,5.33 -3.03,9.66 -6.77,9.66 -3.75,0 -6.79,-4.33 -6.79,-9.66 0,-5.33 3.04,-9.66 6.79,-9.66 3.74,0 6.77,4.33 6.77,9.66z"/>
   <path class="fil12" d="M1288.17 996.88c0,5.33 -3.03,9.66 -6.78,9.66 -3.74,0 -6.78,-4.33 -6.78,-9.66 0,-5.33 3.04,-9.66 6.78,-9.66 3.75,0 6.78,4.33 6.78,9.66z"/>
   <path class="fil41" d="M1319.89 996.88c0,5.33 -3.03,9.66 -6.77,9.66 -3.76,0 -6.8,-4.33 -6.8,-9.66 0,-5.33 3.04,-9.66 6.8,-9.66 3.74,0 6.77,4.33 6.77,9.66z"/>
   <path class="fil15" d="M1351.6 996.88c0,5.33 -3.03,9.66 -6.78,9.66 -3.74,0 -6.77,-4.33 -6.77,-9.66 0,-5.33 3.03,-9.66 6.77,-9.66 3.75,0 6.78,4.33 6.78,9.66z"/>
   <path class="fil12" d="M1383.31 996.88c0,5.33 -3.03,9.66 -6.78,9.66 -3.74,0 -6.78,-4.33 -6.78,-9.66 0,-5.33 3.04,-9.66 6.78,-9.66 3.75,0 6.78,4.33 6.78,9.66z"/>
   <path class="fil16" d="M1247.03 1148.37l134.88 0 0 -112.68 -134.88 0 0 112.68zm137.68 2.81l-140.47 0 0 -118.28 140.47 0 0 118.28z"/>
   <polygon class="fil42" points="1018.45,1053.59 1040.13,1053.59 1040.13,1049.57 1018.45,1049.57 "/>
   <polygon class="fil42" points="976.34,1053.59 1010.51,1053.59 1010.51,1049.57 976.34,1049.57 "/>
   <polygon class="fil42" points="976.34,1064.28 1028.04,1064.28 1028.04,1060.26 976.34,1060.26 "/>
   <polygon class="fil42" points="1035.02,1064.28 1069.31,1064.28 1069.31,1060.26 1035.02,1060.26 "/>
   <polygon class="fil42" points="1044.82,1053.59 1082.26,1053.59 1082.26,1049.57 1044.82,1049.57 "/>
   <polygon class="fil42" points="976.34,1082.7 1010.51,1082.7 1010.51,1078.69 976.34,1078.69 "/>
   <polygon class="fil42" points="976.34,1093.39 1028.04,1093.39 1028.04,1089.38 976.34,1089.38 "/>
   <polygon class="fil42" points="1035.02,1093.39 1069.31,1093.39 1069.31,1089.38 1035.02,1089.38 "/>
   <polygon class="fil42" points="1018.45,1082.7 1040.13,1082.7 1040.13,1078.69 1018.45,1078.69 "/>
   <polygon class="fil42" points="1044.82,1082.7 1082.26,1082.7 1082.26,1078.69 1044.82,1078.69 "/>
   <polygon class="fil42" points="976.34,1114.76 1010.51,1114.76 1010.51,1110.75 976.34,1110.75 "/>
   <polygon class="fil42" points="976.34,1125.44 1028.04,1125.44 1028.04,1121.44 976.34,1121.44 "/>
   <polygon class="fil42" points="1035.02,1125.44 1069.31,1125.44 1069.31,1121.44 1035.02,1121.44 "/>
   <polygon class="fil42" points="1018.45,1114.76 1040.13,1114.76 1040.13,1110.75 1018.45,1110.75 "/>
   <polygon class="fil42" points="1044.82,1114.76 1082.26,1114.76 1082.26,1110.75 1044.82,1110.75 "/>
   <polygon class="fil42" points="976.34,1145.63 1010.51,1145.63 1010.51,1141.62 976.34,1141.62 "/>
   <polygon class="fil42" points="976.34,1156.33 1028.04,1156.33 1028.04,1152.32 976.34,1152.32 "/>
   <polygon class="fil42" points="1035.02,1156.33 1069.31,1156.33 1069.31,1152.32 1035.02,1152.32 "/>
   <polygon class="fil42" points="1018.45,1145.63 1040.13,1145.63 1040.13,1141.62 1018.45,1141.62 "/>
   <polygon class="fil42" points="1044.82,1145.63 1082.26,1145.63 1082.26,1141.62 1044.82,1141.62 "/>
   <polygon class="fil23" points="203.29,1505.38 993.08,1505.38 993.08,1477.26 203.29,1477.26 "/>
   <path class="fil43" d="M384.69 1284.15l-15.16 180.3c0,0 -1.59,10.94 6.53,10.95 13.37,0.03 66.54,0 66.54,0 0,0 -10.07,-2.27 -9.94,-7.39 0.14,-6.04 17.72,-185.56 17.72,-185.56l-65.69 1.7z"/>
   <path class="fil44" d="M446.91 1472.12c-2.63,0.02 -53.41,0.17 -66.42,0 -5.67,-0.07 -6.67,-5.03 -6.72,-8.25 -0.02,-1.55 0.18,-2.69 0.18,-2.69l0.39 -4.68 1 -11.94 0.89 -10.56 1.14 -13.55 0.97 -11.45 10.77 -128.11 65.69 -1.71c0,0 -7.41,75.13 -12.64,129.82 -0.59,6.09 -1.14,11.93 -1.66,17.39 -0.17,1.74 -0.33,3.45 -0.48,5.09 -0.49,5.18 -0.93,9.93 -1.32,14.12 -0.2,2.22 -0.39,4.27 -0.56,6.16 -0.67,7.37 -1.06,12.08 -1.07,12.98 0,0.52 0.05,1 0.13,1.46 1.08,5.74 8.72,5.92 9.71,5.92z"/>
   <polygon class="fil45" points="225.16,1186.05 262.09,1334.41 267.15,1354.73 284.35,1423.82 603.94,1423.82 540.54,1186.05 "/>
   <polygon class="fil44" points="225.16,1186.05 220.04,1187.77 277.55,1428.99 284.35,1423.82 "/>
   <polygon class="fil43" points="277.55,1428.99 595.17,1428.99 603.94,1423.82 284.35,1423.82 "/>
   <polygon class="fil45" points="389.08,1475.47 457.86,1475.47 457.86,1472.19 389.08,1472.19 "/>
   <polygon class="fil45" points="588.46,1380.02 536.6,1189.2 224.65,1189.2 224.65,1186.05 540.53,1186.05 592.22,1379.59 "/>
   <polygon class="fil43" points="440.37,1428.99 440.02,1431.48 375.34,1444.56 376.23,1434 376.66,1428.99 "/>
   <path class="fil46" d="M411.14 1472.19l-14.17 0c-7.06,0 -13.07,-0.02 -16.48,-0.07 -5.67,-0.07 -6.67,-5.03 -6.72,-8.25l64.37 -12.11c-0.67,7.37 -1.06,12.08 -1.07,12.98l0 0c0,0.52 0.05,1 0.13,1.46 1.08,5.74 8.72,5.92 9.71,5.92 -1.51,0.02 -18.81,0.06 -35.77,0.07z"/>
   <path class="fil47" d="M403.6 1472.21c-2.28,0 -4.5,0 -6.63,-0.02l14.17 0c-2.54,0.02 -5.07,0.02 -7.54,0.02z"/>
   <polygon class="fil47" points="284.35,1423.82 284.35,1423.82 267.15,1354.73 424.74,1375.69 "/>
   <polygon class="fil16" points="225.16,1186.05 540.53,1186.05 591.7,1377.16 271.11,1377.16 "/>
   <polygon class="fil48" points="576.83,1368.87 281.54,1368.87 248.1,1235.66 245.54,1225.43 243.35,1216.72 238.22,1196.29 529.26,1196.29 534.89,1216.72 537.29,1225.43 540.11,1235.66 "/>
   <polygon class="fil49" points="500.85,1205.61 487.57,1205.79 487.28,1204.64 500.55,1204.46 "/>
   <polygon class="fil49" points="497.92,1208.78 488.37,1208.92 488.08,1207.76 497.62,1207.63 "/>
   <polygon class="fil49" points="508.89,1208.63 499.34,1208.77 499.04,1207.61 508.59,1207.48 "/>
   <polygon class="fil49" points="516.82,1208.51 510.9,1208.6 510.61,1207.45 516.52,1207.37 "/>
   <polygon class="fil49" points="511.5,1205.45 503.31,1205.56 503.01,1204.41 511.21,1204.3 "/>
   <polygon class="fil49" points="522.69,1205.3 514.5,1205.41 514.2,1204.26 522.4,1204.15 "/>
   <polygon class="fil49" points="536.27,1357.02 522.99,1357.2 522.69,1356.05 535.97,1355.87 "/>
   <polygon class="fil49" points="533.34,1360.19 523.79,1360.34 523.49,1359.19 533.04,1359.04 "/>
   <polygon class="fil49" points="544.3,1360.05 534.76,1360.18 534.46,1359.03 544,1358.89 "/>
   <polygon class="fil49" points="552.24,1359.94 546.32,1360.02 546.02,1358.86 551.94,1358.77 "/>
   <polygon class="fil49" points="546.92,1356.88 538.73,1356.99 538.43,1355.83 546.62,1355.71 "/>
   <polygon class="fil49" points="558.11,1356.7 549.92,1356.83 549.62,1355.67 557.81,1355.56 "/>
   <polygon class="fil49" points="293.4,1214.4 262.27,1214.33 261.66,1211.72 292.78,1211.79 "/>
   <polygon class="fil49" points="286.32,1221.47 263.94,1221.42 263.33,1218.8 285.71,1218.85 "/>
   <polygon class="fil49" points="312.03,1221.53 289.65,1221.47 289.04,1218.87 311.41,1218.92 "/>
   <polygon class="fil49" points="330.63,1221.57 316.76,1221.55 316.15,1218.92 330.02,1218.97 "/>
   <polygon class="fil49" points="318.37,1214.47 299.17,1214.43 298.56,1211.8 317.76,1211.85 "/>
   <polygon class="fil49" points="344.61,1214.53 325.4,1214.48 324.79,1211.88 343.99,1211.92 "/>
   <polygon class="fil49" points="293.98,1237.41 267.69,1237.36 267.08,1234.74 293.37,1234.81 "/>
   <polygon class="fil49" points="313.44,1237.47 298.76,1237.43 298.14,1234.82 312.83,1234.85 "/>
   <polygon class="fil49" points="342.62,1237.54 320.11,1237.49 319.49,1234.86 342,1234.92 "/>
   <polygon class="fil49" points="300.44,1244.31 269.31,1244.22 268.7,1241.61 299.82,1241.68 "/>
   <polygon class="fil49" points="293.36,1251.37 270.98,1251.31 270.37,1248.69 292.74,1248.75 "/>
   <polygon class="fil49" points="319.07,1251.42 296.69,1251.37 296.07,1248.76 318.45,1248.82 "/>
   <polygon class="fil49" points="337.67,1251.47 323.8,1251.44 323.18,1248.83 337.05,1248.86 "/>
   <polygon class="fil49" points="325.41,1244.36 306.21,1244.32 305.59,1241.7 324.8,1241.75 "/>
   <polygon class="fil49" points="351.64,1244.42 332.44,1244.38 331.83,1241.77 351.03,1241.81 "/>
   <polygon class="fil50" points="301.69,1270.14 275.4,1270.07 274.78,1267.47 301.07,1267.53 "/>
   <polygon class="fil50" points="321.15,1270.19 306.46,1270.16 305.85,1267.53 320.53,1267.58 "/>
   <polygon class="fil50" points="350.33,1270.26 327.81,1270.2 327.2,1267.59 349.71,1267.65 "/>
   <polygon class="fil50" points="308.14,1277.02 277.02,1276.95 276.4,1274.34 307.53,1274.41 "/>
   <polygon class="fil50" points="301.06,1284.08 278.68,1284.03 278.07,1281.42 300.45,1281.48 "/>
   <polygon class="fil50" points="326.77,1284.15 304.39,1284.1 303.78,1281.49 326.15,1281.55 "/>
   <polygon class="fil50" points="345.37,1284.2 331.5,1284.17 330.89,1281.55 344.76,1281.59 "/>
   <polygon class="fil50" points="333.11,1277.09 313.91,1277.04 313.3,1274.43 332.5,1274.47 "/>
   <polygon class="fil50" points="359.35,1277.15 340.15,1277.11 339.53,1274.5 358.73,1274.54 "/>
   <polygon class="fil49" points="309.06,1301.46 282.77,1301.38 282.15,1298.78 308.44,1298.83 "/>
   <polygon class="fil49" points="328.52,1301.5 313.83,1301.47 313.21,1298.85 327.9,1298.89 "/>
   <polygon class="fil49" points="357.69,1301.57 335.18,1301.51 334.56,1298.9 357.08,1298.96 "/>
   <polygon class="fil49" points="315.51,1308.33 284.39,1308.26 283.77,1305.64 314.89,1305.72 "/>
   <polygon class="fil49" points="308.43,1315.4 286.05,1315.34 285.44,1312.73 307.81,1312.79 "/>
   <polygon class="fil49" points="334.14,1315.47 311.76,1315.41 311.15,1312.79 333.52,1312.85 "/>
   <polygon class="fil49" points="352.74,1315.51 338.87,1315.47 338.26,1312.86 352.13,1312.9 "/>
   <polygon class="fil49" points="340.49,1308.39 321.28,1308.35 320.67,1305.74 339.87,1305.78 "/>
   <polygon class="fil49" points="366.72,1308.46 347.51,1308.42 346.9,1305.79 366.1,1305.85 "/>
   <polygon class="fil50" points="316.63,1333.6 290.34,1333.55 289.72,1330.92 316.01,1330.99 "/>
   <polygon class="fil50" points="336.08,1333.65 321.4,1333.62 320.78,1331.01 335.47,1331.04 "/>
   <polygon class="fil50" points="365.26,1333.72 342.75,1333.68 342.13,1331.05 364.65,1331.11 "/>
   <polygon class="fil50" points="323.08,1340.48 291.95,1340.41 291.34,1337.8 322.46,1337.87 "/>
   <polygon class="fil50" points="316,1347.54 293.62,1347.5 293,1344.88 315.38,1344.94 "/>
   <polygon class="fil50" points="341.71,1347.62 319.33,1347.56 318.71,1344.95 341.09,1345.01 "/>
   <polygon class="fil50" points="360.31,1347.66 346.44,1347.63 345.82,1345.01 359.7,1345.05 "/>
   <polygon class="fil50" points="348.05,1340.55 328.85,1340.5 328.24,1337.89 347.44,1337.93 "/>
   <polygon class="fil50" points="374.28,1340.61 355.08,1340.57 354.47,1337.96 373.67,1338 "/>
   <polygon class="fil45" points="429.94,1216.58 398.81,1216.51 398.2,1213.9 429.32,1213.97 "/>
   <polygon class="fil45" points="422.86,1223.65 400.48,1223.6 399.86,1220.98 422.24,1221.03 "/>
   <polygon class="fil45" points="448.57,1223.72 426.19,1223.66 425.57,1221.05 447.95,1221.11 "/>
   <polygon class="fil45" points="467.17,1223.76 453.3,1223.73 452.68,1221.11 466.55,1221.15 "/>
   <polygon class="fil45" points="454.91,1216.65 435.71,1216.6 435.1,1213.99 454.3,1214.03 "/>
   <polygon class="fil45" points="481.15,1216.71 461.94,1216.67 461.33,1214.06 480.53,1214.1 "/>
   <polygon class="fil45" points="430.52,1239.6 404.23,1239.54 403.62,1236.92 429.91,1236.99 "/>
   <polygon class="fil45" points="449.98,1239.65 435.3,1239.61 434.68,1237 449.36,1237.03 "/>
   <polygon class="fil45" points="479.16,1239.72 456.65,1239.67 456.03,1237.05 478.54,1237.1 "/>
   <polygon class="fil45" points="436.97,1246.49 405.85,1246.41 405.23,1243.8 436.36,1243.87 "/>
   <polygon class="fil45" points="429.9,1253.55 407.52,1253.5 406.9,1250.87 429.28,1250.93 "/>
   <polygon class="fil45" points="455.6,1253.61 433.23,1253.55 432.61,1250.94 454.99,1251 "/>
   <polygon class="fil45" points="474.21,1253.65 460.34,1253.62 459.72,1251.02 473.59,1251.04 "/>
   <polygon class="fil45" points="461.95,1246.55 442.75,1246.51 442.13,1243.88 461.34,1243.94 "/>
   <polygon class="fil45" points="488.18,1246.6 468.98,1246.56 468.36,1243.95 487.56,1243.99 "/>
   <polygon class="fil49" points="438.23,1272.33 411.94,1272.26 411.32,1269.65 437.61,1269.72 "/>
   <polygon class="fil49" points="457.69,1272.37 443,1272.34 442.39,1269.73 457.07,1269.76 "/>
   <polygon class="fil49" points="486.86,1272.44 464.35,1272.38 463.73,1269.78 486.25,1269.83 "/>
   <polygon class="fil49" points="444.68,1279.2 413.55,1279.13 412.94,1276.53 444.06,1276.6 "/>
   <polygon class="fil49" points="437.6,1286.27 415.22,1286.21 414.6,1283.6 436.98,1283.66 "/>
   <polygon class="fil49" points="463.31,1286.34 440.93,1286.28 440.31,1283.67 462.69,1283.73 "/>
   <polygon class="fil49" points="481.91,1286.38 468.04,1286.35 467.42,1283.73 481.29,1283.77 "/>
   <polygon class="fil49" points="469.65,1279.28 450.45,1279.22 449.83,1276.61 469.04,1276.65 "/>
   <polygon class="fil49" points="495.88,1279.33 476.68,1279.29 476.07,1276.68 495.27,1276.72 "/>
   <polygon class="fil49" points="445.6,1303.64 419.3,1303.57 418.69,1300.96 444.98,1301.02 "/>
   <polygon class="fil49" points="465.05,1303.68 450.37,1303.65 449.75,1301.03 464.44,1301.07 "/>
   <polygon class="fil49" points="494.23,1303.75 471.72,1303.69 471.1,1301.09 493.61,1301.14 "/>
   <polygon class="fil49" points="452.05,1310.52 420.92,1310.45 420.31,1307.82 451.43,1307.91 "/>
   <polygon class="fil49" points="444.97,1317.58 422.59,1317.52 421.97,1314.91 444.35,1314.97 "/>
   <polygon class="fil49" points="470.68,1317.65 448.3,1317.59 447.68,1314.97 470.06,1315.03 "/>
   <polygon class="fil49" points="489.28,1317.69 475.41,1317.65 474.79,1315.04 488.66,1315.08 "/>
   <polygon class="fil49" points="477.02,1310.57 457.82,1310.53 457.21,1307.92 476.41,1307.97 "/>
   <polygon class="fil49" points="503.25,1310.65 484.05,1310.6 483.43,1307.98 502.64,1308.03 "/>
   <polygon class="fil49" points="453.16,1335.79 426.87,1335.73 426.26,1333.11 452.55,1333.18 "/>
   <polygon class="fil49" points="472.62,1335.83 457.94,1335.8 457.32,1333.19 472.01,1333.22 "/>
   <polygon class="fil49" points="501.8,1335.9 479.28,1335.86 478.67,1333.24 501.18,1333.29 "/>
   <polygon class="fil49" points="459.62,1342.67 428.49,1342.59 427.87,1339.99 459,1340.06 "/>
   <polygon class="fil49" points="452.54,1349.73 430.16,1349.69 429.54,1347.06 451.92,1347.12 "/>
   <polygon class="fil49" points="478.24,1349.8 455.87,1349.74 455.25,1347.13 477.63,1347.19 "/>
   <polygon class="fil49" points="496.85,1349.84 482.98,1349.81 482.36,1347.19 496.23,1347.23 "/>
   <polygon class="fil49" points="484.59,1342.74 465.39,1342.68 464.77,1340.07 483.98,1340.11 "/>
   <polygon class="fil49" points="510.82,1342.79 491.62,1342.75 491,1340.14 510.2,1340.18 "/>
   <path class="fil51" d="M596.91 1883.15c0,0 -2.85,44.34 -11.43,44.95 -1.14,0.08 -43.51,0 -43.51,0l-54.1 -0.44c0,0 0.38,-13.03 16.2,-15.76 15.82,-2.72 42.31,-13.77 51.93,-34.65 10.13,-21.96 40.91,5.9 40.91,5.9z"/>
   <path class="fil50" d="M751.76 1518.4c2.07,1.73 57.17,61.43 52.67,107.28 -1.33,13.47 -12.93,23.59 -26.46,23.59l-67.11 0c0,0 -68.48,12.24 -70.12,27.04 -1.63,14.8 -15.64,94.58 -43.42,207.94 0,0 -20.46,7.05 -32.87,2.01 -16.41,-6.65 -18.8,-13.71 -18.8,-13.71 0,0 16.56,-253.85 29.62,-271.71 13.07,-17.86 147.7,-70.97 191.29,-76.26 43.59,-5.29 -14.8,-6.18 -14.8,-6.18z"/>
   <path class="fil14" d="M362.54 1455.08c0,0 -38.94,-9.06 -48.9,0 -9.96,9.04 -13.14,22.18 -13.14,22.18l62.04 0 0 -22.18z"/>
   <path class="fil50" d="M502.1 1883.15c0,0 -2.85,44.34 -11.43,44.95 -1.14,0.08 -43.52,0 -43.52,0l-54.09 -0.44c0,0 0.38,-13.03 16.2,-15.76 15.82,-2.72 42.31,-13.77 51.93,-34.65 10.13,-21.96 40.91,5.9 40.91,5.9z"/>
   <path class="fil10" d="M802.66 1518.4c1.57,1.31 13.49,33.39 21.45,69.84 6.86,31.35 -17,61.03 -49.1,61.03l-156.12 0c0,0 -68.48,12.24 -70.12,27.04 -1.63,14.8 -15.64,94.58 -43.41,207.94 0,0 -20.54,5.39 -36.57,-1.46 -8.53,-3.64 -15.26,-12.39 -15.26,-12.39 0,0 16.71,-251.7 29.77,-269.56 13.07,-17.86 147.7,-70.97 191.29,-76.26 43.59,-5.29 128.07,-6.18 128.07,-6.18z"/>
   <path class="fil14" d="M716.12 1291.46l-24.14 23.17 -41.14 0.02c-0.05,-3.31 0.09,-17.11 0.23,-29.61 0.02,-0.74 0.03,-1.47 0.03,-2.19 0.04,-2.78 0.07,-5.46 0.1,-7.9 0.08,-6.89 0.16,-11.88 0.16,-11.88l10.57 -7.24 23.5 -16.08 12.7 -8.67c0.01,0.21 1.05,11.57 1.21,13.21 2.81,29.43 16.78,47.17 16.78,47.17z"/>
   <path class="fil50" d="M656.31 1287.28c0.78,-0.34 45.3,-20.31 50.5,-18.58 5.21,1.71 11.7,17.61 11.7,17.61l-78.38 17.71c0,0 6.16,-12.53 16.18,-16.74z"/>
   <path class="fil22" d="M848.84 1420.66c-8.49,-52.3 -44.29,-91.44 -59.62,-106.1 -10.28,-15.49 -70.71,-28.25 -70.71,-28.25 0,0 -50.07,11.32 -78.38,17.71 0,0 -44.18,4.81 -69.09,46.01 -15.41,25.48 -59.53,83.76 -88.51,85.58 -28.98,1.81 -119.99,19.47 -119.99,19.47l0 22.38 138.75 3.81c1.7,0.04 3.38,-0.08 5.05,-0.4 11.94,-2.25 63.12,-12.43 88.57,-25.68 4.06,65.55 8.87,165.64 31.75,181.53 24.22,16.81 194.48,19.06 212.52,-6.56 9.22,-13.12 -2.09,-90.76 -16.23,-165.62 17.57,-8.37 29.44,-21.96 25.89,-43.88z"/>
   <path class="fil52" d="M691.55 1253.45l-2.09 1.31c0,0 -19.37,13.94 -38.26,20.19 0.08,-6.89 0.16,-11.88 0.16,-11.88l10.57 -7.24 29.62 -2.38z"/>
   <path class="fil14" d="M636.94 1263.44c0,0 63.3,7.48 67.35,-32.01 4.06,-39.49 14.96,-65.12 -25.28,-71.57 -40.24,-6.45 -49.66,7.81 -54.22,20.66 -4.56,12.85 -4.21,79.95 12.15,82.92z"/>
   <path class="fil50" d="M626.47 1176.48c0,0 11.95,42.84 20.6,39.27 8.66,-3.58 16.56,-6.5 17.69,6.87 1.14,13.38 -8.52,30.86 19.67,28.01 28.2,-2.86 54.73,-81.91 44.57,-94.03 -29.3,-35 -143.24,-21.9 -102.53,19.88z"/>
   <path class="fil53" d="M581.64 1657.77l313.11 0c11.89,0 21.53,-9.65 21.53,-21.53l0 -14.01 -334.64 0 0 35.54z"/>
   <path class="fil54" d="M544.12 1657.77l236.88 0c8.79,0 15.92,-7.14 15.92,-15.93l0 -3.69c0,-8.79 -7.13,-15.92 -15.92,-15.92l-236.88 0c-8.79,0 -15.92,7.13 -15.92,15.92l0 3.69c0,8.79 7.13,15.93 15.92,15.93z"/>
   <polygon class="fil10" points="741.32,1914.77 761.52,1914.77 767.19,1657.77 736.34,1657.77 "/>
   <polygon class="fil10" points="653.55,1914.77 849.97,1914.77 849.97,1897.03 749.86,1888 653.55,1897.03 "/>
   <path class="fil10" d="M869.05 1911.98c0,-8.93 -7.23,-16.16 -16.16,-16.16 -8.92,0 -16.15,7.23 -16.15,16.16 0,8.93 7.23,16.16 16.15,16.16 8.93,0 16.16,-7.23 16.16,-16.16z"/>
   <path class="fil10" d="M672.63 1911.98c0,-8.93 -7.23,-16.16 -16.15,-16.16 -8.93,0 -16.16,7.23 -16.16,16.16 0,8.93 7.23,16.16 16.16,16.16 8.92,0 16.15,-7.23 16.15,-16.16z"/>
   <path class="fil10" d="M660.59 1674.63l182.34 0c9.31,0 16.86,-7.55 16.86,-16.86l-216.06 0c0,9.31 7.55,16.86 16.86,16.86z"/>
   <path class="fil54" d="M885.35 1657.77c8.49,0 15.37,-6.88 15.37,-15.37l0 -236.66c0,-44.34 -28.99,-80.29 -64.76,-80.29l-146.44 0c-35.77,0 -64.76,35.95 -64.76,80.29l0 252.03 260.59 0z"/>
   <path class="fil55" d="M888.24 1657.77c15.48,0 28.04,-12.55 28.04,-28.04l0 -223.99c0,-44.34 -28.99,-80.29 -64.76,-80.29l-146.44 0c-35.77,0 -64.76,35.95 -64.76,80.29l0 252.03 247.92 0z"/>
   <polygon class="fil56" points="3670.4,1925.69 3877.08,1925.69 3877.08,1755.28 3670.4,1755.28 "/>
   <polygon class="fil16" points="3773.72,1925.69 3980.39,1925.69 3980.39,1755.28 3773.72,1755.28 "/>
   <polygon class="fil57" points="3670.53,1882.48 3703.26,1882.48 3700.38,1873.26 3703.26,1866.68 3670.53,1866.68 "/>
   <polygon class="fil56" points="3773.72,1808.01 3806.48,1808.01 3803.6,1798.8 3806.48,1792.22 3773.72,1792.22 "/>
   <polygon class="fil57" points="3773.72,1792.22 3740.99,1792.22 3743.87,1801.44 3740.99,1808.01 3773.72,1808.01 "/>
   <polygon class="fil56" points="3980.42,1884.31 3947.66,1884.31 3950.54,1893.53 3947.66,1900.11 3980.42,1900.11 "/>
   <polygon class="fil15" points="3907.38,1789.96 3966.86,1789.96 3966.86,1766.83 3907.38,1766.83 "/>
   <polygon class="fil56" points="3390.3,1925.86 3597.4,1925.86 3597.4,1755.11 3390.3,1755.11 "/>
   <polygon class="fil20" points="3493.87,1925.86 3700.97,1925.86 3700.97,1755.11 3493.87,1755.11 "/>
   <polygon class="fil22" points="3390.43,1882.56 3423.25,1882.56 3420.37,1873.32 3423.25,1866.72 3390.43,1866.72 "/>
   <polygon class="fil21" points="3493.87,1807.94 3526.69,1807.94 3523.78,1798.71 3526.69,1792.12 3493.87,1792.12 "/>
   <polygon class="fil22" points="3493.87,1792.12 3461.05,1792.12 3463.96,1801.35 3461.05,1807.94 3493.87,1807.94 "/>
   <polygon class="fil21" points="3700.97,1884.39 3668.15,1884.39 3671.05,1893.63 3668.15,1900.22 3700.97,1900.22 "/>
   <polygon class="fil15" points="3627.81,1789.86 3687.41,1789.86 3687.41,1766.68 3627.81,1766.68 "/>
   <polygon class="fil11" points="3497.61,1755.27 3691.79,1755.27 3691.79,1595.16 3497.61,1595.16 "/>
   <polygon class="fil12" points="3594.71,1755.27 3788.88,1755.27 3788.88,1595.16 3594.71,1595.16 "/>
   <polygon class="fil13" points="3497.73,1714.66 3528.51,1714.66 3525.79,1706.01 3528.51,1699.83 3497.73,1699.83 "/>
   <polygon class="fil14" points="3594.71,1644.71 3625.49,1644.71 3622.77,1636.06 3625.49,1629.87 3594.71,1629.87 "/>
   <polygon class="fil13" points="3594.71,1629.87 3563.93,1629.87 3566.65,1638.52 3563.93,1644.71 3594.71,1644.71 "/>
   <polygon class="fil14" points="3788.88,1716.38 3758.13,1716.38 3760.82,1725.04 3758.13,1731.22 3788.88,1731.22 "/>
   <polygon class="fil15" points="3720.3,1627.76 3776.17,1627.76 3776.17,1606.02 3720.3,1606.02 "/>
   <polygon class="fil16" points="1161.43,1087.83 1170.06,1087.83 1170.06,1079.21 1161.43,1079.21 "/>
   <polygon class="fil16" points="1183.84,1087.83 1192.46,1087.83 1192.46,1079.21 1183.84,1079.21 "/>
   <polygon class="fil16" points="1206.24,1087.83 1214.87,1087.83 1214.87,1079.21 1206.24,1079.21 "/>
   <polygon class="fil16" points="1161.43,1107.06 1170.06,1107.06 1170.06,1098.43 1161.43,1098.43 "/>
   <polygon class="fil16" points="1183.84,1107.06 1192.46,1107.06 1192.46,1098.43 1183.84,1098.43 "/>
   <polygon class="fil16" points="1206.24,1107.06 1214.87,1107.06 1214.87,1098.43 1206.24,1098.43 "/>
   <polygon class="fil16" points="1161.43,1128.35 1170.06,1128.35 1170.06,1119.73 1161.43,1119.73 "/>
   <polygon class="fil16" points="1183.84,1128.35 1192.46,1128.35 1192.46,1119.73 1183.84,1119.73 "/>
   <polygon class="fil16" points="1206.24,1128.35 1214.87,1128.35 1214.87,1119.73 1206.24,1119.73 "/>
   <path class="fil38" d="M1251.33 1315.62l13.98 -2.07c1.55,-0.23 2.2,-1.81 1.56,-3.76l-13.6 -41.42c-0.82,-2.48 -3.37,-4.48 -5.33,-4.18l-13.98 2.05c-1.55,0.25 -2.2,1.83 -1.56,3.78l13.6 41.41c0.82,2.48 3.36,4.49 5.33,4.19z"/>
   <path class="fil39" d="M1256.28 1314.9l13.98 -2.07c1.55,-0.23 2.2,-1.82 1.56,-3.77l-13.6 -41.41c-0.82,-2.48 -3.38,-4.48 -5.33,-4.2l-13.99 2.07c-1.54,0.23 -2.19,1.82 -1.55,3.76l13.6 41.42c0.82,2.49 3.36,4.48 5.33,4.2z"/>
   <path class="fil39" d="M1242.79 1273.08l0 0c0.41,-0.06 0.61,-0.54 0.45,-1.06l-11.04 -36.62c-0.16,-0.53 -0.63,-0.91 -1.04,-0.85 -0.39,0.07 -0.61,0.54 -0.44,1.06l11.05 36.63c0.16,0.53 0.61,0.9 1.02,0.84z"/>
   <path class="fil14" d="M1239.11 1134.04c0,0 -10.1,-17.18 -18.11,-23.53 -8,-6.37 -29.15,-8.14 -29.97,-6.51 -2.54,5.03 8.38,12.31 10.65,16.93 2.27,4.62 1.3,11.28 12.06,16.72 11.11,5.63 17.56,9.32 17.56,9.32l7.81 -12.93z"/>
   <path class="fil38" d="M1230.57 1131.7c5.19,-8.07 6.75,-8.5 6.75,-8.5 0,0 85.79,34.23 93.99,37.09 8.18,2.86 130.61,10.05 130.61,10.05l36.94 81.2c0,0 -163.14,-37.2 -183.75,-44.85 -34.04,-12.64 -88.67,-62.13 -88.67,-62.13 0,0 0.06,-6.52 4.13,-12.86z"/>
   <path class="fil50" d="M1443.74 1890.96c0,0 -1.88,30.12 -7.46,37.21l-86.07 0c0.54,-3.01 2.98,-10.42 13.74,-12.31 13.6,-2.35 36.36,-11.91 44.59,-29.89 8.66,-18.91 35.2,4.99 35.2,4.99z"/>
   <path class="fil50" d="M1596.47 1886.76c0,0 5.36,39.13 -2,39.81 -0.98,0.08 -32.73,0.07 -45.17,0 -15.47,-0.1 -40.19,0.08 -40.19,0.08 -3.21,0.14 -5.29,-3.32 -3.66,-6.08 1.79,-3.02 5.19,-6.26 11.69,-7.5 13.55,-2.61 36.15,-12.57 44.05,-30.68 8.35,-19.06 35.28,4.37 35.28,4.37z"/>
   <path class="fil11" d="M1403.27 1490.12c0,0 21.63,75.72 83.66,207.23 62.03,131.5 66.81,191.43 66.81,191.43l42.73 -2.02c0,0 -4.02,-156.51 -33.32,-222.88 -29.29,-66.37 -35.26,-247.96 -35.26,-247.96l-124.62 74.2z"/>
   <path class="fil12" d="M1368.52 1424.96c0,0 -1.72,117.26 18.56,261.22 20.3,143.98 13.42,205.09 13.42,205.09l48.58 1.62c0,0 29.04,-144.03 20.72,-216.08 -8.32,-72.07 39.76,-247.27 39.76,-247.27l-141.04 -4.58z"/>
   <path class="fil14" d="M1464.4 1150.56l-22.92 16.97 -33.13 -6.96c0.47,-3.02 2.66,-15.54 4.64,-26.89 0.13,-0.67 0.24,-1.33 0.36,-1.98 1.71,-9.65 3.17,-17.94 3.17,-17.94l30.95 -15.42 11.52 -5.76c-0.02,0.22 -0.89,10.73 -1,12.26 -2.17,27.22 6.41,45.72 6.41,45.72z"/>
   <path class="fil50" d="M1410.68 1141.99c0.72,-0.3 45.05,-13.39 49.87,-11.78 4.81,1.59 7.66,10.9 7.66,10.9l-68.44 19.49c0,0 1.65,-14.71 10.91,-18.61z"/>
   <path class="fil22" d="M1530.04 1439.44c-7.5,34.27 -164.16,-73.28 -162.07,-94.19 0.22,-2.3 0.46,-4.63 0.69,-6.93 2.9,-29.12 5.66,-57.61 5.86,-76.22 0.15,-16.12 2.37,-32.63 5.33,-47.6 2.72,-13.84 6.07,-26.39 8.98,-36.18 2.05,-6.89 5.88,-12.95 10.94,-17.72 3.61,-3.38 7.83,-6.1 12.5,-7.96 1.27,-0.54 2.56,-0.98 3.89,-1.36 18.87,-5.48 44.98,-12.24 52.05,-10.18 19.18,5.64 33.41,39.39 43.51,82.4 18.86,80.54 23.23,193.6 18.32,215.94z"/>
   <path class="fil58" d="M1455.66 1105.32c-6.79,12.99 -32.1,24.23 -42.67,28.36 0.13,-0.67 0.24,-1.33 0.36,-1.98 1.71,-9.65 3.17,-17.94 3.17,-17.94l30.95 -15.42c6.83,-0.11 11,1.62 8.19,6.98z"/>
   <path class="fil14" d="M1401.49 1111.94c0,0 55.82,17.41 66.13,-17.51 10.31,-34.92 24.45,-56.19 -10.75,-68.78 -35.2,-12.59 -46.09,-1.32 -52.36,9.5 -6.28,10.82 -17.27,71.37 -3.02,76.79z"/>
   <path class="fil50" d="M1406.7 1031.78c0,0 3.55,40.64 11.96,38.88 8.4,-1.77 16.03,-3.08 14.79,9.18 -1.23,12.25 -12.87,26.39 13.02,28.56 25.9,2.17 63.14,-64.63 56.02,-77.28 -20.52,-36.49 -125.46,-43.85 -95.79,0.66z"/>
   <path class="fil38" d="M1372.7 1424.96c15.52,5.61 -0.27,-15.42 0,-19.8 1.21,-19.27 -6.35,-43.64 -4.04,-66.84l94.76 -56.63c0,0 22.47,142.38 -90.72,143.27z"/>
   <path class="fil12" d="M1530.04 1439.44c-40.44,74.97 -46.88,103.59 -46.88,103.59 -35.21,-4.01 -95.54,-73.22 -114.67,-91.69 0,0 -2.61,-85.18 -0.52,-106.09l29.24 -0.85c0,0 52.86,13.4 66.56,-4.78 13.7,-18.18 7.77,-107.42 7.77,-107.42l40.18 -8.7c18.86,80.54 29.18,195.81 18.32,215.94z"/>
   <path class="fil14" d="M1299.26 1296.02c0,0 -11.56,-2.25 -14.56,-4.72 -4.44,-3.66 -7.95,-9.77 -10.11,-10.45 -3.66,-1.13 -12.62,-12.41 -13.38,-13.2 -0.29,-0.31 -2.71,0.86 -2.12,2.72 0.59,1.87 1.94,5.9 2.42,7.35 2.11,6.41 2.01,8.38 -5.64,5.9 -1,-0.33 -18.69,-5.95 -20.51,-1.93 -1.81,4.01 5.52,23.35 14.75,27.52 9.23,4.17 32.03,0.4 33.68,0.88 13.94,4.05 15.47,-14.07 15.47,-14.07z"/>
   <path class="fil22" d="M1289.86 1292.25c0,0 93.98,15.99 102.3,11.93 13.29,-6.47 -5.16,-101.82 -5.16,-101.82 0,0 -0.8,-21.61 24.44,-26.7 21.95,-4.44 43.1,11.99 43.1,11.99 0,0 19.26,17.22 16.79,36.32 -5.44,42.34 -13.92,128.47 -42.24,141.67 -36.53,17.01 -142.24,-47.22 -142.24,-47.22 0,0 -3.52,-4.32 -3.02,-12.31 0.45,-7.06 6.03,-13.86 6.03,-13.86z"/>
   <path class="fil12" d="M1479.33 1230.51l-7.79 1.69c0,0 -16.46,-71.25 -71.77,-71.6 3.61,-3.38 7.83,-6.1 12.5,-7.96 20.28,5.43 55.46,22.76 67.06,77.87z"/>
   <path class="fil14" d="M1208.23 1124.76c0,0 -15.24,-9.34 -15.95,-5.33 -0.36,2 6.42,7.46 9.14,9.8 2.72,2.34 9.67,6.92 9.67,6.92l-2.86 -11.39z"/>
   <path class="fil59" d="M4101.46 1941l-4095.97 0c-3.02,0 -5.49,-2.47 -5.49,-5.48l0 -4.19c0,-3.02 2.47,-5.49 5.49,-5.49l4095.97 0c3.03,0 5.5,2.47 5.5,5.49l0 4.19c0,3.01 -2.47,5.48 -5.5,5.48z"/>
  </g>
 </g>
</svg>
