<?xml version="1.0" encoding="UTF-8"?>
<!DOCTYPE svg PUBLIC "-//W3C//DTD SVG 1.1//EN" "http://www.w3.org/Graphics/SVG/1.1/DTD/svg11.dtd">
<!-- Creator: CorelDRAW 2019 (64-Bit) -->
<svg xmlns="http://www.w3.org/2000/svg" xml:space="preserve" width="1534px" height="1248px" version="1.1" style="shape-rendering:geometricPrecision; text-rendering:geometricPrecision; image-rendering:optimizeQuality; fill-rule:evenodd; clip-rule:evenodd"
viewBox="0 0 550.22 447.59"
 xmlns:xlink="http://www.w3.org/1999/xlink"
 xmlns:xodm="http://www.corel.com/coreldraw/odm/2003">
 <defs>
  <style type="text/css">
   <![CDATA[
    .fil21 {fill:#22323A;fill-rule:nonzero}
    .fil10 {fill:#264560;fill-rule:nonzero}
    .fil15 {fill:#294C6B;fill-rule:nonzero}
    .fil22 {fill:#2A557C;fill-rule:nonzero}
    .fil9 {fill:#2B577E;fill-rule:nonzero}
    .fil7 {fill:#2C5274;fill-rule:nonzero}
    .fil32 {fill:#2E3D47;fill-rule:nonzero}
    .fil20 {fill:#2E414C;fill-rule:nonzero}
    .fil26 {fill:#333333;fill-rule:nonzero}
    .fil18 {fill:#355B83;fill-rule:nonzero}
    .fil14 {fill:#375F88;fill-rule:nonzero}
    .fil2 {fill:#3A3D3F;fill-rule:nonzero}
    .fil8 {fill:#3C6794;fill-rule:nonzero}
    .fil42 {fill:#3E505A;fill-rule:nonzero}
    .fil36 {fill:#3E5770;fill-rule:nonzero}
    .fil19 {fill:#435B6E;fill-rule:nonzero}
    .fil33 {fill:#484F5B;fill-rule:nonzero}
    .fil39 {fill:#4D5D67;fill-rule:nonzero}
    .fil34 {fill:#516784;fill-rule:nonzero}
    .fil31 {fill:#526879;fill-rule:nonzero}
    .fil1 {fill:#534741;fill-rule:nonzero}
    .fil16 {fill:#5A87AD;fill-rule:nonzero}
    .fil41 {fill:#5C7789;fill-rule:nonzero}
    .fil13 {fill:#5D8CB4;fill-rule:nonzero}
    .fil40 {fill:#5F7384;fill-rule:nonzero}
    .fil11 {fill:#6089AD;fill-rule:nonzero}
    .fil6 {fill:#627079;fill-rule:nonzero}
    .fil44 {fill:#628C88;fill-rule:nonzero}
    .fil38 {fill:#65829E;fill-rule:nonzero}
    .fil12 {fill:#6699C4;fill-rule:nonzero}
    .fil24 {fill:#738FA9;fill-rule:nonzero}
    .fil3 {fill:#7B4F34;fill-rule:nonzero}
    .fil23 {fill:#91A6BA;fill-rule:nonzero}
    .fil4 {fill:#AEC8CE;fill-rule:nonzero}
    .fil27 {fill:#AFBDC6;fill-rule:nonzero}
    .fil37 {fill:#B1B2B3;fill-rule:nonzero}
    .fil25 {fill:#B7C4D2;fill-rule:nonzero}
    .fil28 {fill:#C1D0DB;fill-rule:nonzero}
    .fil45 {fill:#C6DCE0;fill-rule:nonzero}
    .fil35 {fill:#D8D9DA;fill-rule:nonzero}
    .fil17 {fill:#E1E1E1;fill-rule:nonzero}
    .fil29 {fill:#E29530;fill-rule:nonzero}
    .fil5 {fill:#E5C5A8;fill-rule:nonzero}
    .fil0 {fill:#EBEBEB;fill-rule:nonzero}
    .fil43 {fill:#F2F2F2;fill-rule:nonzero}
    .fil30 {fill:white;fill-rule:nonzero}
   ]]>
  </style>
 </defs>
 <g id="__x0023_Layer_x0020_1">
  <metadata id="CorelCorpID_0Corel-Layer"/>
  <g id="_1727206600528">
   <path class="fil0" d="M386.87 447.59c-45.94,0 -91.84,-1.3 -137.77,-2.6 -45.93,-1.31 -91.89,-2.61 -137.93,-2.61 -2.69,0 -5.38,0 -8.07,0.01 -18.57,0.07 -37.43,1.1 -55.98,1.8 -6.75,0.25 -14.71,1 -22.39,1 -5.14,0 -10.15,-0.33 -14.6,-1.38 -6.99,-1.65 -6.47,-7.39 -1.15,-10.36 9.72,-5.43 24.37,-6.05 35.43,-6.66 28.92,-1.61 57.84,-3.39 86.74,-5.33 42.72,-2.87 85.41,-6.1 128.06,-9.7l0 9.63 12.05 -0.8c0.11,0.4 0.21,0.8 0.32,1.2 0.22,0.8 0.91,1.14 1.69,1.14 1.36,0 2.96,-1.04 2.62,-2.39 -0.03,-0.08 -0.05,-0.17 -0.07,-0.25l2.59 -0.17c0.08,0.36 0.16,0.73 0.25,1.09 0.17,0.77 0.75,1.09 1.38,1.1 1.1,0 2.38,-0.97 2.09,-2.25 -0.01,-0.06 -0.02,-0.12 -0.04,-0.19l3.28 -0.21c0.08,0.33 0.15,0.66 0.22,1 0.15,0.72 0.66,1.02 1.22,1.02 0.95,0 2.06,-0.89 1.81,-2.08 -0.01,-0.06 -0.02,-0.11 -0.03,-0.16l2.87 -0.19c0.07,0.31 0.13,0.61 0.19,0.92 0.13,0.68 0.58,0.97 1.08,0.97 0.83,0 1.8,-0.83 1.58,-1.95 -0.06,-0.32 -0.12,-0.65 -0.18,-0.97l1.67 -3.89c0.21,-0.5 0.21,-1.06 0.01,-1.55l-1.68 -4.04c3.42,-0.31 6.84,-0.61 10.25,-0.92 9.29,-0.84 18.57,-1.75 27.85,-2.66 30.68,-3.01 61.36,-4.89 92.1,-6.73 12.18,-0.72 24.4,-1.26 36.61,-1.26 9.67,0 19.35,0.34 28.99,1.18 18.75,1.65 41.39,4.96 55.87,17.3 8.12,6.93 4.67,15.67 -7.28,21.57 -12.61,6.23 -28.63,6.41 -42.58,7.28 -36.4,2.28 -72.75,3.09 -109.07,3.09z"/>
   <path class="fil1" d="M104.33 426.3l4.38 4.09c2.82,2.64 2.17,7.41 -1.36,8.96 -2.09,0.91 -5.02,0.77 -9.08,-2.01l-9.33 -10.61 1.52 -3.43 9.74 -1.47 4.13 4.47z"/>
   <path class="fil2" d="M109.47 306.39l4.89 66.1 -11.75 51.47 -13.53 -0.28 -6.22 -43.79c0,0 -35.93,-58.32 -33.24,-60.18 2.68,-1.85 59.85,-13.32 59.85,-13.32z"/>
   <path class="fil1" d="M13.75 429.46l1.91 5.68c1.24,3.66 -1.6,7.55 -5.44,7.24 -2.27,-0.19 -4.79,-1.71 -7.04,-6.08l-3.18 -13.76 2.96 -2.3 9.28 3.33 1.51 5.89z"/>
   <path class="fil2" d="M75.18 326.34l-27.06 60.51 -34.78 39.73 -11.77 -6.67 15.31 -41.49c0,0 -3.96,-68.39 -0.71,-68.75 3.24,-0.36 59.01,16.67 59.01,16.67z"/>
   <polygon class="fil3" points="133.22,219.55 138.84,220.16 142.73,217 143.81,217.47 143.27,218.82 147.23,217.1 150.59,218.05 152.09,222.39 150.53,226.9 145.99,227.98 140.71,226.44 132.98,225.94 "/>
   <polygon class="fil2" points="135.17,216.33 79.19,212.26 64.91,195.3 43.95,204.78 67.81,235.33 77.08,238.3 136.97,229.38 "/>
   <path class="fil2" d="M19.41 207.51c-11.2,13.64 -12.64,33.28 -12.39,51.41 0.23,16.07 1.36,32.14 3.4,48.09 0.72,5.67 1.78,11.79 5.79,15.68 2.64,2.56 6.19,3.75 9.64,4.75 25.77,7.45 53.24,8.02 79.14,1.65 2.87,-0.71 5.88,-1.59 7.95,-3.81 1.55,-1.66 2.4,-3.89 3.11,-6.1 7.06,-22.03 3.32,-46.36 -2.67,-68.88 -4.32,-16.22 -10.07,-32.63 -21.12,-44.86 -20.18,-22.35 -54.16,-20.66 -72.85,2.07z"/>
   <path class="fil4" d="M54.25 215.83c0.83,1.88 1.59,3.8 2.41,5.64 1.54,3.47 2.95,7 4.22,10.57 2.55,7.15 4.58,14.47 6.21,21.88 3.3,14.98 4.97,30.28 6.11,45.56 0.65,8.66 1.12,17.33 1.61,26.01 0.05,0.84 0.13,1.77 0.72,2.38 0.41,0.41 1,0.6 1.56,0.76 8.44,2.36 17.71,1.64 25.69,-2 -0.28,-29.99 -0.57,-60.12 -5.39,-89.73 -1.18,-7.26 -2.67,-14.51 -5.15,-21.45 -1.23,-3.47 -2.71,-6.85 -4.52,-10.05 -0.87,-1.56 -1.78,-3.29 -2.94,-4.65 -0.93,-1.08 -2.28,-2.03 -3.39,-2.93 -2.52,-2.02 -5.41,-3.58 -8.5,-4.55 -0.4,-0.12 -0.82,-0.24 -1.24,-0.21 -0.43,0.04 -0.82,0.22 -1.21,0.37 -2.08,0.83 -4.36,1.01 -6.53,1.55 -1.55,0.39 -3.05,0.96 -4.61,1.32 -1.69,0.37 -3.43,0.48 -5.17,0.56 -5.76,0.24 -11.54,0.14 -17.29,-0.33 3.97,1.25 6.92,4.53 9.66,7.68 1.96,2.26 3.94,4.54 5.48,7.11 0.85,1.43 1.58,2.96 2.27,4.51z"/>
   <polygon class="fil5" points="433.5,180.37 431.24,173.65 434.33,169.84 438.31,173.87 439.28,171.55 440.88,171.69 442.86,181.17 438.67,183.89 "/>
   <path class="fil6" d="M496.8 219.88c0.08,-1.15 -0.04,-2.32 -0.34,-3.44 -1.33,-4.84 -5.35,-5.38 -9.63,-5.99 -5.46,-0.77 -10.92,-1.53 -16.38,-2.3l-27.5 -29.87 -7.09 5.2 26.31 42.39c6.67,0.61 13.35,1.2 19.99,2.02 5.67,0.71 10.26,2.32 13.45,-3.73 0.7,-1.32 1.1,-2.79 1.19,-4.28z"/>
   <path class="fil7" d="M384.93 112.51c1.35,-3.95 5.65,-6.06 9.6,-4.72 3.95,1.35 6.07,5.65 4.72,9.6 -1.35,3.95 -5.64,6.06 -9.6,4.72 -3.95,-1.35 -6.06,-5.64 -4.72,-9.6zm-13.12 -4.47c-3.81,11.2 2.17,23.37 13.37,27.19 11.2,3.82 23.38,-2.17 27.19,-13.37 3.82,-11.2 -2.17,-23.37 -13.37,-27.19 -11.2,-3.82 -23.37,2.17 -27.19,13.37z"/>
   <path class="fil8" d="M344.31 93.92c10.18,-23.2 35.7,-35.75 60.29,-29.65l-11.88 34.89c-5.33,-0.22 -10.44,2.3 -13.52,6.64l-34.89 -11.88zm-2.9 8.52l34.89 11.89c-0.21,5.32 2.3,10.43 6.64,13.51l-11.88 34.89c-23.2,-10.18 -35.75,-35.7 -29.65,-60.29zm48.24 19.67c-3.95,-1.35 -6.06,-5.64 -4.72,-9.6 1.35,-3.95 5.65,-6.06 9.6,-4.72 3.95,1.35 6.07,5.65 4.72,9.6 -1.35,3.95 -5.64,6.06 -9.6,4.72zm1.82 8.63c5.32,0.22 10.43,-2.3 13.51,-6.64l34.89 11.88c-10.18,23.21 -35.7,35.75 -60.29,29.66l11.89 -34.9zm51.31 -3.28l-34.9 -11.88c0.22,-5.33 -2.3,-10.44 -6.64,-13.52l11.89 -34.89c23.2,10.18 35.75,35.7 29.65,60.29zm-117.29 -23.65c-0.75,4.47 -1.04,8.93 -0.9,13.34l-11.1 3.82 3.63 18.33 11.73 -0.69c1.57,4.18 3.54,8.2 5.9,11.99l-7.71 8.87 12.3 14.05 9.8 -6.45c3.4,2.8 7.12,5.3 11.11,7.43l-2.24 11.53 17.68 6.02 5.26 -10.5c4.47,0.75 8.93,1.04 13.34,0.9l3.83 11.1 18.32 -3.63 -0.69 -11.73c4.18,-1.56 8.19,-3.54 11.99,-5.9l8.87 7.72 14.05 -12.31 -6.45 -9.8c2.8,-3.4 5.3,-7.12 7.43,-11.11l11.53 2.24 6.02 -17.68 -10.5 -5.26c0.76,-4.47 1.05,-8.93 0.9,-13.34l11.1 -3.82 -3.63 -18.33 -11.73 0.7c-1.56,-4.19 -3.54,-8.2 -5.89,-12l7.71 -8.87 -12.3 -14.05 -9.81 6.46c-3.4,-2.81 -7.12,-5.31 -11.11,-7.44l2.24 -11.53 -17.68 -6.02 -5.26 10.5c-4.47,-0.75 -8.93,-1.04 -13.34,-0.9l-3.82 -11.1 -18.33 3.63 0.7 11.73c-4.18,1.56 -8.2,3.54 -12,5.9l-8.86 -7.71 -14.06 12.3 6.46 9.8c-2.81,3.4 -5.31,7.12 -7.44,11.11l-11.53 -2.24 -6.02 17.68 10.5 5.26z"/>
   <path class="fil7" d="M336.82 96.12c-10.38,30.48 5.97,63.72 36.44,74.1 30.48,10.38 63.72,-5.97 74.1,-36.44 10.38,-30.48 -5.96,-63.72 -36.44,-74.1 -30.48,-10.38 -63.72,5.97 -74.1,36.44zm-2.43 -0.83c10.84,-31.81 45.54,-48.88 77.36,-38.04 31.81,10.84 48.88,45.54 38.04,77.36 -10.84,31.81 -45.54,48.88 -77.36,38.04 -31.81,-10.84 -48.88,-45.54 -38.04,-77.36z"/>
   <path class="fil9" d="M340.35 108.02c-3.07,22.78 9.26,45.3 30.71,54.71l4.2 -12.32c2.46,2.15 4.94,4.18 7.42,6.12l-3.1 9.11c5.95,1.47 11.95,1.85 17.78,1.25 6.85,4.38 13.43,7.98 19.37,10.91 -0.33,0.12 -0.65,0.27 -0.98,0.39l0.69 11.73 -18.32 3.63 -3.83 -11.1c-4.41,0.14 -8.87,-0.15 -13.34,-0.9l-5.26 10.5 -17.68 -6.02 2.24 -11.53c-3.99,-2.13 -7.71,-4.63 -11.11,-7.43l-9.8 6.45 -12.3 -14.05 7.71 -8.87c-2.36,-3.79 -4.33,-7.81 -5.9,-11.99l-11.73 0.69 -3.63 -18.33 11.1 -3.82c-0.14,-4.41 0.15,-8.87 0.9,-13.34l-10.5 -5.26 6.02 -17.68 7.84 1.52c3.18,9.28 7.08,17.8 11.5,25.63z"/>
   <path class="fil10" d="M335.82 99.37c-8.2,29.55 8.05,60.83 37.44,70.85 10.75,3.66 21.85,3.99 32.16,1.56 1.09,0.62 2.17,1.22 3.23,1.81 -11.5,3.27 -24.07,3.2 -36.22,-0.94 -31.62,-10.77 -48.66,-45.11 -38.23,-76.77 0.53,1.18 1.07,2.34 1.62,3.49z"/>
   <path class="fil11" d="M421.61 53.99c0.06,0.22 2.22,-9.19 2.22,-9.19l-14.16 -4.74c0,0 9.29,4.95 11.94,13.93z"/>
   <path class="fil12" d="M195.55 191.28l23.84 3.59c0.23,1.37 0.76,2.69 1.58,3.88l-10.83 21.89c-1.21,2.45 -4.43,3.12 -6.48,1.31 -5.88,-5.16 -10.23,-12.17 -12.06,-20.39 -0.44,-1.97 -0.72,-3.93 -0.85,-5.88 -0.17,-2.66 2.17,-4.79 4.8,-4.4zm21.7 33.25l10.72 -21.64c2.22,0.23 4.51,-0.3 6.45,-1.62l18.63 15.26c2.05,1.68 2.04,4.82 -0.02,6.49 -4.45,3.59 -9.77,6.24 -15.72,7.57 -5.9,1.32 -11.79,1.19 -17.3,-0.14 -2.6,-0.62 -3.94,-3.52 -2.76,-5.92zm21.38 -30.28c0.11,-1.02 0.06,-2.05 -0.16,-3.06l20.12 -13.43c2.22,-1.48 5.28,-0.53 6.22,1.97 0.62,1.66 1.13,3.38 1.53,5.15 1.81,8.13 0.9,16.23 -2.14,23.35 -1.1,2.57 -4.35,3.4 -6.52,1.62l-19.05 -15.6zm-9.22 -6.86c3.22,0.24 5.63,3.05 5.39,6.27 -0.24,3.22 -3.05,5.63 -6.27,5.39 -3.22,-0.24 -5.63,-3.05 -5.39,-6.27 0.24,-3.22 3.05,-5.63 6.27,-5.39zm24.48 -16.23l-20.27 13.52c-0.83,-0.45 -1.71,-0.77 -2.62,-0.97l-5.29 -23.68c-0.59,-2.65 1.47,-5.16 4.19,-5.1 9.16,0.22 17.79,3.74 24.46,9.63 2.05,1.81 1.8,5.08 -0.47,6.6zm-30.8 14.32c-0.24,0.18 -0.47,0.37 -0.7,0.58 -0.32,0.3 -0.62,0.61 -0.89,0.94l-29.32 -4.42c2.94,-10.13 10,-18.8 19.68,-23.62 2.43,-1.21 5.35,0.18 5.94,2.83l5.29 23.69zm-61.27 13.7l-6.2 3.11c0.29,2.35 0.7,4.69 1.22,7.03 0.52,2.33 1.15,4.63 1.88,6.88l6.94 0.17c7.88,0.21 12.48,9 8.14,15.59l-3.83 5.81c2.85,3.78 6.08,7.29 9.64,10.47l6.11 -3.31c6.93,-3.77 15.3,1.55 14.84,9.42l-0.41 6.93c4.4,1.88 8.94,3.31 13.58,4.29l3.63 -5.94c4.12,-6.73 14.03,-6.31 17.57,0.74l3.11 6.2c2.34,-0.3 4.69,-0.7 7.02,-1.22 2.34,-0.52 4.64,-1.15 6.88,-1.89l0.18 -6.93c0.2,-7.89 9,-12.48 15.58,-8.14l5.82 3.83c3.78,-2.85 7.29,-6.08 10.47,-9.65l-3.32 -6.1c-3.76,-6.93 1.55,-15.3 9.43,-14.84l6.93 0.41c1.88,-4.4 3.31,-8.95 4.29,-13.58l-5.95 -3.64c-6.73,-4.12 -6.31,-14.02 0.75,-17.56l6.2 -3.11c-0.3,-2.35 -0.7,-4.69 -1.23,-7.03 -0.52,-2.33 -1.15,-4.63 -1.88,-6.88l-6.93 -0.17c-7.89,-0.21 -12.48,-9 -8.14,-15.59l3.83 -5.82c-2.86,-3.77 -6.08,-7.28 -9.65,-10.46l-6.1 3.31c-6.93,3.77 -15.3,-1.55 -14.84,-9.42l0.41 -6.93c-4.4,-1.88 -8.95,-3.31 -13.58,-4.29l-3.64 5.94c-4.12,6.73 -14.03,6.31 -17.56,-0.74l-3.11 -6.2c-2.35,0.3 -4.69,0.7 -7.03,1.22 -2.34,0.52 -4.63,1.15 -6.88,1.89l-0.18 6.93c-0.2,7.89 -8.99,12.48 -15.58,8.14l-5.82 -3.83c-3.78,2.85 -7.28,6.08 -10.47,9.65l3.32 6.1c3.77,6.93 -1.55,15.3 -9.42,14.84l-6.94 -0.41c-1.87,4.4 -3.3,8.95 -4.28,13.58l5.94 3.64c6.73,4.11 6.31,14.02 -0.74,17.56z"/>
   <path class="fil13" d="M229 242.12c-1.22,0 -2.45,-0.05 -3.69,-0.14 -26.89,-2.02 -47.12,-25.54 -45.1,-52.42 1.93,-25.65 23.41,-45.24 48.72,-45.24 1.23,0 2.46,0.05 3.7,0.14 9.64,0.73 18.42,4.21 25.62,9.62l-3.19 1.63c-2.14,1.1 -4.03,2.47 -5.62,4.03 -5.15,-3.16 -11.11,-5.17 -17.53,-5.65 -1,-0.08 -1.99,-0.12 -2.97,-0.12 -20.32,0 -37.56,15.73 -39.11,36.31 -1.62,21.58 14.62,40.45 36.2,42.07 0.99,0.08 1.98,0.12 2.97,0.12 19.01,0 35.34,-13.78 38.62,-32.42 0.12,0 0.25,0 0.38,0 3.23,0 6.51,-0.65 9.63,-2.03 -2.47,25.08 -23.69,44.1 -48.63,44.1z"/>
   <path class="fil8" d="M230.01 204.27c-4.17,2.08 -9.22,0.38 -11.3,-3.78 -2.07,-4.17 -0.38,-9.22 3.79,-11.3 4.16,-2.07 9.22,-0.38 11.29,3.79 2.08,4.16 0.38,9.22 -3.78,11.29zm10.16 -14.38c-3.84,-7.51 -13.04,-10.48 -20.54,-6.64 -7.51,3.84 -10.48,13.04 -6.64,20.54 3.83,7.51 13.03,10.48 20.54,6.64 7.51,-3.84 10.48,-13.03 6.64,-20.54z"/>
   <path class="fil8" d="M238.84 202l-8.96 -17.61 1.22 -1.02c5.96,-4.99 10.69,-11.24 14.27,-18.15 2.02,-3.9 5.3,-7.26 9.69,-9.51l85.85 -43.91c3.86,-1.97 8.01,-2.8 12.06,-2.6 6.69,0.32 13.41,-0.18 19.9,-1.84l15.38 -3.92 8.99 17.59 -12.17 10.17c-5.15,4.3 -9.49,9.45 -13.14,15.07 -2.21,3.4 -5.31,6.28 -9.17,8.25l-83.86 42.9c-4.57,2.33 -9.54,3.06 -14.26,2.39 -6.89,-0.97 -13.9,-0.78 -20.66,0.91l-5.14 1.28z"/>
   <path class="fil14" d="M389.53 127.47c0,0 0,0 0,0l0.03 -0.02 -0.03 0.02z"/>
   <polygon class="fil15" points="379.19,105.75 379.19,105.75 379.19,105.75 "/>
   <path class="fil14" d="M389.53 127.47c-4.09,-0.91 -7.78,-3.49 -10,-7.43 -2.56,-4.58 -2.52,-9.92 -0.34,-14.29l0 0 0.71 -0.15c-2.04,4.32 -2.03,9.53 0.48,14.01 2.16,3.85 5.75,6.4 9.72,7.37l-0.54 0.47 -0.03 0.02z"/>
   <path class="fil16" d="M241.14 201.43c0,-0.01 0,-0.01 0,-0.01l0.04 -0.01 -0.04 0.02z"/>
   <path class="fil17" d="M232.57 182.1l0 -0.01c0,0 0,0 0,0 0,0 0,0.01 0,0.01z"/>
   <path class="fil18" d="M240.36 201.69c0.01,-0.03 0.02,-0.05 0.02,-0.08l0.76 -0.19c0,0 0,0 0,0.01l-0.78 0.26z"/>
   <path class="fil18" d="M240.38 201.61c1.1,-3.74 1.06,-7.76 -0.96,-11.45 -1.79,-3.3 -4.72,-5.63 -8.02,-6.88l1.17 -1.18c0,0 0,-0.01 0,-0.01 3.47,1.2 6.52,3.65 8.42,7.13 2.16,3.97 2.3,8.01 0.9,11.96l-0.71 0.23 -0.04 0.01 -0.76 0.19z"/>
   <path class="fil8" d="M380.38 119.61c4.13,7.35 13.44,9.97 20.79,5.85 7.35,-4.13 9.97,-13.44 5.84,-20.79 -4.12,-7.35 -13.43,-9.97 -20.78,-5.85 -7.35,4.13 -9.97,13.44 -5.85,20.79z"/>
   <path class="fil19" d="M405.04 115.94c-2.1,6.26 -8.88,9.64 -15.14,7.54 -6.27,-2.1 -9.64,-8.88 -7.54,-15.14 2.1,-6.26 8.88,-9.64 15.14,-7.54 6.26,2.1 9.64,8.88 7.54,15.14z"/>
   <polygon class="fil20" points="387.07,117.43 385.8,109.04 392.43,103.75 400.33,106.85 401.6,115.24 394.96,120.53 "/>
   <path class="fil21" d="M397.85 113.53c-0.77,2.3 -3.25,3.53 -5.54,2.76 -2.3,-0.76 -3.53,-3.25 -2.77,-5.54 0.77,-2.3 3.26,-3.53 5.55,-2.76 2.3,0.77 3.53,3.25 2.76,5.54z"/>
   <polygon class="fil22" points="392.99,105.58 399.03,108.25 399.73,114.81 394.41,118.7 388.37,116.03 387.66,109.47 "/>
   <polygon class="fil23" points="393.2,107.46 397.5,109.37 398,114.04 394.2,116.82 389.9,114.92 389.4,110.24 "/>
   <polygon class="fil24" points="389.4,110.24 387.66,109.47 392.99,105.58 399.03,108.25 397.5,109.37 393.2,107.46 "/>
   <polygon class="fil25" points="393.7,112.14 389.4,110.24 393.2,107.46 397.5,109.37 "/>
   <path class="fil3" d="M61.33 159.96c-0.67,-1.32 -1.45,-2.65 -2.63,-3.55 -0.32,-0.25 -0.67,-0.45 -0.98,-0.71 -10.74,-8.85 -28.68,-3.05 -28.51,14.69 0.09,9.55 7.84,18.28 16.82,19.8 0.16,2.49 1.13,5.37 1.45,7.23 0.07,0.39 0.15,0.81 0.45,1.06 0.25,0.22 0.61,0.25 0.95,0.26 3.13,0.08 6.27,-1.06 8.65,-3.15 0.17,-0.15 0.34,-0.32 0.43,-0.54 0.11,-0.26 0.07,-0.57 0.03,-0.86 -0.29,-2.02 -0.75,-4.01 -1.33,-5.96 4.64,-2.61 7.32,-8 7.83,-13.36 0.5,-5.12 -0.85,-10.31 -3.16,-14.91z"/>
   <path class="fil26" d="M55.5 186.56c0.14,0.32 0.3,0.65 0.56,0.89 0.72,0.65 1.86,0.31 2.75,-0.08 1.64,-0.73 3.29,-1.54 4.62,-2.75 1.33,-1.21 2.34,-2.88 2.4,-4.67 0.02,-0.65 -0.1,-1.35 -0.54,-1.82 -0.44,-0.48 -1.27,-0.64 -1.74,-0.2 -0.27,0.25 -0.38,0.62 -0.54,0.95 -0.45,0.88 -1.34,1.46 -2.25,1.85 -1,0.43 -2.19,0.69 -3.17,0.19 -1.23,-0.62 -1.63,-2.13 -2.15,-3.41 -0.89,-2.18 -3.94,-3.07 -3.83,-0.08 0.11,2.72 2.76,6.65 3.89,9.13z"/>
   <path class="fil20" d="M180.68 207.82l7.19 15.13c1.22,2.57 4.3,3.66 6.87,2.44 2.57,-1.22 3.67,-4.3 2.44,-6.87l-7.18 -15.13c-1.22,-2.57 -4.3,-3.66 -6.87,-2.44 -2.58,1.22 -3.67,4.3 -2.45,6.87z"/>
   <path class="fil19" d="M185.03 218.44c4.33,-0.59 8.65,-1.13 12.99,-1.63 1.22,-0.15 1.57,1.75 0.33,1.9 -4.33,0.5 -8.66,1.04 -12.98,1.63 -1.23,0.16 -1.57,-1.73 -0.34,-1.9z"/>
   <path class="fil19" d="M182.43 212.96c4.32,-0.59 8.65,-1.13 12.98,-1.63 1.23,-0.14 1.58,1.75 0.34,1.9 -4.34,0.5 -8.66,1.04 -12.99,1.63 -1.22,0.17 -1.57,-1.73 -0.33,-1.9z"/>
   <path class="fil19" d="M180.7 207.91c4.32,-0.59 8.65,-1.14 12.98,-1.64 1.23,-0.14 1.57,1.76 0.33,1.91 -4.33,0.5 -8.66,1.04 -12.98,1.63 -1.22,0.16 -1.57,-1.74 -0.33,-1.9z"/>
   <path class="fil27" d="M181.19 202.88c2.38,-0.62 4.76,-1.22 7.17,-1.77 1.76,-0.41 4.37,-1.54 6.25,-0.8 1.8,0.71 2.97,3.18 3.94,4.73 1.35,2.15 2.56,4.38 3.62,6.68 0.95,2.06 1.76,4.17 2.48,6.31 0.56,1.67 1.04,3.35 -0.25,4.69 -2.81,2.92 -8.38,3.23 -12.23,3.63 -2.29,0.24 -3.08,-3.38 -0.77,-3.63 3.21,-0.33 6.37,-0.7 9.28,-2.03 1.09,-0.5 0.95,-0.52 0.56,-1.72 -0.3,-0.91 -0.63,-1.81 -0.98,-2.71 -0.61,-1.56 -1.3,-3.1 -2.05,-4.61 -0.75,-1.51 -1.56,-2.99 -2.44,-4.43 -0.48,-0.78 -0.98,-1.71 -1.56,-2.42 -0.81,-0.98 -0.81,-0.85 -1.88,-0.78 -1.58,0.09 -3.28,0.72 -4.81,1.09 -1.86,0.44 -3.71,0.91 -5.56,1.4 -2.22,0.58 -2.98,-3.05 -0.77,-3.63z"/>
   <path class="fil20" d="M173 206.14c1.65,-0.69 3.37,-1.12 5.02,-1.82 0.25,-0.13 0.51,-0.24 0.76,-0.35 2.18,-0.96 3.96,2.28 1.78,3.35 -0.57,0.28 -1.13,0.54 -1.71,0.79 -1.32,0.7 -2.44,1.66 -2.17,3.36 0.37,2.23 1.56,4.53 2.63,6.51 1.13,2.09 2.49,4.05 4.08,5.83 0.93,1.05 0.87,1.31 2.2,0.99 1.19,-0.29 2.36,-0.6 3.55,-0.9 1.2,-0.3 2.01,0.52 2.2,1.48 0.5,0.69 0.59,1.64 -0.24,2.35 -2.46,2.11 -5.89,4.3 -9.16,2.26 -1.68,-1.04 -2.54,-3.17 -3.49,-4.81 -1.14,-1.97 -2.28,-3.94 -3.42,-5.9 -1.61,-2.79 -5,-6.69 -4.53,-10.12 0.2,-1.49 1.16,-2.46 2.5,-3.02z"/>
   <path class="fil27" d="M208.65 213.42c4.92,-1.11 9.66,-2.58 14.45,-4.17 3.21,-1.06 6.37,-2.01 9.44,-3.41 3.02,-1.38 6,-2.85 9.07,-4.13 2.3,-0.96 9.39,-4.68 11.27,-1.78 1.14,1.76 -0.48,4.25 -1.43,5.71 -1.41,2.15 -2.9,4.35 -4.44,6.39 -4.61,6.11 -10.02,11.63 -16.05,16.37 -4.76,3.74 -9.99,7.03 -15.71,8.98 -0.66,0.22 -1.33,0.43 -2,0.61 -0.28,0.08 -0.59,0.16 -0.86,0.07 -0.41,-0.13 -0.63,-0.56 -0.81,-0.96 -2.87,-6.34 -5.35,-12.86 -7.42,-19.5 -0.26,-0.85 -0.52,-1.78 -0.19,-2.6 0.53,-1.34 3.48,-1.31 4.68,-1.58z"/>
   <path class="fil19" d="M173.84 206.53c-0.97,0.24 -1.43,1.31 -0.97,2.26l8.44 17.47c0.38,0.78 1.25,1.2 2.04,0.99l7.87 -2.1 7.95 16.6c-0.11,-0.11 -0.78,-0.11 -1.53,-0.1 -0.75,0.01 -1.6,0.02 -2.05,-0.1 -1.59,-0.43 -2.93,-0.47 -4.59,-0.44 -10.55,0.19 -21.67,1.17 -29.8,8.68 -13.08,12.08 -25.86,24.51 -38.65,36.89 -12.98,12.56 -25.82,25.25 -38.38,38.23 -0.25,0.26 -0.5,0.52 -0.75,0.78 -6.21,6.43 -12.35,12.93 -18.5,19.4 -3.21,3.37 -6.41,6.74 -9.64,10.08 -3.46,3.6 -5.45,7.16 -11.07,6.11 -5.01,-0.94 -10.24,-3.8 -13.87,-7.33 -2.99,-2.89 -5.15,-6.44 -6.48,-10.37 -1.44,-4.25 -3.76,-9.47 0.38,-12.84 1.82,-1.48 3.61,-2.95 5.32,-4.55 26.57,-23.03 53.67,-46.04 79.72,-69.85 1.85,-1.69 3.69,-3.37 5.54,-5.05 6.85,-6.22 18.14,-17.26 24.78,-23.7 12.94,-12.56 13.65,-20.79 20.28,-34.97 2.68,-5.72 5.13,-11.55 7.42,-17.44l14.12 29.49 -7.58 1.86z"/>
   <path class="fil28" d="M190.53 157.47c10.52,-3.3 38.54,6.77 45.85,8.86 7.3,2.09 3.42,8.1 3.42,8.1 -1.23,0.34 -2.45,0.69 -3.67,1.04 -3.3,0.95 -6.6,1.95 -9.87,2.99 -2.4,0.76 -4.78,1.54 -7.17,2.34 -1.19,0.39 -2.38,0.78 -3.57,1.19 -0.95,0.33 -1.78,0.94 -2.71,1.35 -1.04,0.46 -2.07,0.92 -3.07,1.47 -1.89,1.04 -3.91,2.42 -5.35,4.05 -0.51,0.57 -1.23,1.99 -0.82,2.81 0.05,0.1 22.51,45.17 22.51,45.17 0.27,0.53 -0.07,1.17 -0.66,1.25l-26.25 3.66c0,0 1.1,-1.08 0.41,-4.36 -0.47,-2.24 -1.19,-4.43 -1.98,-6.59 -0.82,-2.24 -1.76,-4.44 -2.71,-6.64l6.54 -1.75c2.01,-0.54 2.91,-2.81 1.89,-4.76l-7.88 -15c-0.38,-0.73 -1.21,-1.13 -1.98,-0.94l-7.65 1.88c-5.17,-10.96 -10.88,-21.66 -17.11,-32.05 -0.46,1.22 -0.93,2.43 -1.4,3.64l-0.64 -1.33c3.58,-5.72 13.35,-13.08 23.87,-16.38z"/>
   <path class="fil28" d="M194.89 224.16c0.95,2.2 1.89,4.4 2.71,6.64 0.79,2.16 1.51,4.35 1.98,6.59 0.69,3.28 -0.41,4.36 -0.41,4.36l-7.95 -16.6 3.67 -0.99z"/>
   <path class="fil28" d="M185.81 203.59l-4.39 1.08 -14.12 -29.49c0.47,-1.21 0.94,-2.42 1.4,-3.64 6.23,10.39 11.94,21.09 17.11,32.05z"/>
   <path class="fil29" d="M124.95 286.27c-0.24,0.22 -0.47,0.45 -0.7,0.67 -13.83,13.38 -27.51,26.9 -40.88,40.73 -0.27,0.28 -0.54,0.55 -0.81,0.83 -6.61,6.85 -13.15,13.77 -19.7,20.67 -3.41,3.59 -6.83,7.17 -10.26,10.73 -3.7,3.83 -5.82,7.63 -11.8,6.51 -5.34,-1 -10.91,-4.04 -14.78,-7.8 -3.18,-3.09 -5.48,-6.87 -6.9,-11.05 -1.53,-4.53 -4,-10.09 0.41,-13.68 1.93,-1.58 3.84,-3.14 5.67,-4.85 25.22,-21.86 51.96,-44.74 76.9,-67.19l22.85 24.43z"/>
   <path class="fil30" d="M33.8 339.04c-3.12,2.92 -3.28,7.81 -0.36,10.93 2.91,3.12 7.81,3.28 10.93,0.36 3.12,-2.91 3.28,-7.81 0.36,-10.93 -2.92,-3.11 -7.81,-3.28 -10.93,-0.36z"/>
   <path class="fil31" d="M124.08 275.52c-0.92,0 -1.85,-0.37 -2.53,-1.1l-6.96 -7.44c-1.3,-1.39 -1.23,-3.57 0.16,-4.88 8.92,-8.34 38.47,-36.12 40.1,-39.41 1.44,-2.91 3.01,-5.77 4.55,-8.63 0.88,-1.63 3.54,-8.95 5.14,-9.61 0.25,-0.1 0.49,-0.15 0.73,-0.15 3.27,0 5.93,8.95 6.97,11.11 2.21,4.6 4.36,9.24 6.49,13.88 0.66,1.45 -0.23,3.13 -1.8,3.4 -3.47,0.59 -9.08,2 -12.98,5.23 -5.04,4.16 -29.46,28.59 -37.43,36.58 -0.68,0.68 -1.56,1.02 -2.44,1.02z"/>
   <path class="fil19" d="M34.27 339.46c-2.96,2.77 -3.12,7.43 -0.35,10.4 2.77,2.96 7.44,3.11 10.4,0.34 2.97,-2.77 3.12,-7.44 0.35,-10.4 -2.77,-2.96 -7.44,-3.12 -10.4,-0.34zm-0.6 -0.64c3.32,-3.1 8.53,-2.92 11.63,0.39 3.1,3.31 2.93,8.53 -0.38,11.63 -3.32,3.1 -8.53,2.92 -11.63,-0.39 -3.1,-3.31 -2.93,-8.53 0.38,-11.63z"/>
   <path class="fil32" d="M486.6 334.93l-5.3 21.94 -2.85 63.7 -0.05 0 -0.03 -0.92 -8.07 0.23 -12.56 -67.66 -2.54 -40.07c8.74,1.44 24.34,-0.56 32.99,0.08l-1.59 22.7z"/>
   <polygon class="fil33" points="470.3,419.88 471.44,419.85 478.35,419.65 478.38,420.7 478.51,424.41 468.88,429.45 463.82,424.83 "/>
   <path class="fil32" d="M518.39 326.49l-6.71 28.87 -2.85 63.7 -0.04 0 -0.04 -0.92 -8.06 0.23 -14.43 -62.67 -0.67 -45.07c8.74,1.44 22.74,-4.61 32.8,-4.25l0 20.11z"/>
   <polygon class="fil33" points="500.69,418.37 501.83,418.34 508.73,418.14 508.77,419.19 508.9,422.89 499.26,427.93 494.2,423.32 "/>
   <path class="fil1" d="M480.23 177.89c-1.14,2.46 -1.57,5.23 -1.48,7.95 0.03,0.72 0.04,1.55 -0.5,2.02 -0.58,0.51 0.04,1.47 -0.47,0.89 -0.52,-0.57 -2.26,-2.56 -2.39,-3.33 -0.31,-1.78 -0.45,-3.6 -0.41,-5.42 0.03,-1.57 0.22,-3.24 1.13,-4.51 0.55,-0.75 1.31,-1.31 2.05,-1.86 1.09,-0.79 2.21,-1.58 3.5,-1.93 2.22,-0.61 3.67,0.1 1.8,1.86 -1.34,1.26 -2.44,2.64 -3.23,4.33z"/>
   <path class="fil5" d="M496.6 207.56c-3.08,0.53 -6.16,1.07 -9.24,1.61 -0.68,-2.69 -1.17,-5.43 -1.46,-8.2 -2.74,-0.26 -5.98,-0.9 -7.13,-3.71 -0.35,-0.88 -0.44,-1.87 -0.52,-2.83 -0.34,-3.99 -0.67,-7.97 -1,-11.96 -0.12,-1.37 -0.23,-2.79 0.13,-4.11 0.65,-2.31 2.62,-3.81 4.58,-4.81 5.02,-2.56 11.06,-2.94 16.08,-0.26 1.33,0.71 2.61,1.66 3.46,3.03 1.29,2.1 1.36,4.81 1.38,7.36 0.01,2.34 0.03,4.69 0.05,7.03 0.02,2.7 -0.14,5.82 -2.08,7.4 -1.03,0.83 -2.43,1.08 -3.29,2.13 -1.52,1.85 -0.53,4.84 -0.96,7.32z"/>
   <path class="fil1" d="M487.85 196.7c1.23,0.71 2.46,0.63 3.73,0.12 0.65,-0.25 1.02,0.86 0.37,1.12 -1.53,0.6 -3.08,0.67 -4.57,-0.18 -0.61,-0.35 -0.15,-1.41 0.47,-1.06zm-10.13 0.1c0.68,2.45 2.04,4.73 4.13,5.96 2.37,1.41 5.21,1.3 7.89,1.15 1.46,-0.08 2.92,-0.16 4.39,-0.23 3.7,-0.21 7.35,-0.98 8.95,-5.09 0.73,-1.9 0.85,-4.04 0.56,-6.09 -0.08,-0.56 -0.19,-1.14 -0.49,-1.61 -0.3,-0.46 -0.83,-0.8 -1.34,-0.69 -0.65,0.15 -0.98,0.9 -1.36,1.49 -0.83,1.29 -2.41,2.09 -3.77,1.55 -0.41,-0.17 -0.76,-0.43 -1.12,-0.7 -0.15,-0.11 -0.29,-0.22 -0.44,-0.32 -1.48,-1.03 -3.22,-1.42 -4.94,-1.51 -1.49,-0.08 -3.71,-0.47 -4.71,0.9 -0.58,0.79 -1.16,1.59 -1.74,2.38 -0.24,0.33 -0.48,0.66 -0.81,0.88 -0.33,0.23 -0.73,0.33 -1.12,0.37 -0.99,0.09 -2.14,-0.29 -2.56,-1.28 -0.18,-0.44 -0.2,-0.93 -0.25,-1.4 -0.05,-0.47 -0.16,-0.97 -0.48,-1.31 -1.19,-1.27 -1.35,0.92 -1.33,1.66 0.02,1.32 0.19,2.63 0.54,3.89z"/>
   <path class="fil1" d="M474.96 171.35c-0.33,-0.94 -0.59,-1.91 -0.79,-2.9 0.93,0.25 1.92,0.26 2.85,0.03 -0.04,-0.58 -0.08,-1.15 -0.12,-1.72 -0.04,-0.48 6.28,-1.31 6.79,-1.39 4.8,-0.78 9.18,-1.51 13.74,0.78 3.9,1.96 6.55,5.13 7.46,9.46 0.86,4.13 -0.06,9.69 -2.17,13.35 -0.07,-1.12 0.35,-3.79 0.02,-4.83 -0.24,-1.04 -0.68,-2.04 -1.25,-2.94 -1.14,-1.81 -2.79,-3.27 -4.65,-4.26 -2.97,-1.58 -6.33,-2.28 -9.65,-2.49 -3.04,-0.19 -6.74,-0.29 -9.65,0.75 -1.4,0.5 -1.61,0.88 -2.58,-0.51 -0.18,-0.25 -1.62,-3.18 -1.5,-3.19 0.5,-0.04 1,-0.09 1.5,-0.14z"/>
   <path class="fil6" d="M502.8 207.15c-8.85,-3.52 -18.95,-0.9 -26.95,7.59 -12.29,13.05 -14.43,30.68 -18.29,47.37 -1.07,4.63 -12.02,55.42 -9.12,55.93 8.13,1.43 17.73,0.41 26.07,0.57 10.57,0.2 21.13,0.13 31.71,0.13 4.56,-0.05 11.07,1.17 13.49,-2.46 3.64,-5.48 3.76,-17.45 4.55,-23.9 1.94,-15.78 1.84,-31.8 -0.33,-47.55 -1.36,-9.89 -3.66,-19.98 -9.46,-28.12 -3.34,-4.67 -7.35,-7.84 -11.67,-9.56z"/>
   <path class="fil34" d="M273.7 85.85c-12.83,8.79 -30.39,5.57 -39.22,-7.33 -8.77,-12.87 -5.51,-30.4 7.35,-39.18 12.82,-8.84 30.39,-5.57 39.18,7.28 8.85,12.87 5.54,30.43 -7.31,39.23zm46.74 -17.71c0.22,-2.41 0.28,-4.81 0.21,-7.17l-12.12 -3.54 -2.78 -12.21 9.38 -8.45c-2,-4.46 -4.51,-8.65 -7.46,-12.49l-11.89 4.27 -9.43 -8.23 2.61 -12.36c-4.04,-2.32 -8.39,-4.21 -12.97,-5.59l-7.17 10.43 -12.46 -1.21 -5.08 -11.59c-4.91,0.51 -9.67,1.58 -14.21,3.17l0.33 12.64 -10.79 6.37 -10.91 -6.36c-3.6,3.24 -6.84,6.89 -9.62,10.91l7.68 10.02 -4.96 11.48 -12.57 1.29c-0.52,2.43 -0.92,4.94 -1.15,7.51 -0.19,2.35 -0.26,4.66 -0.21,6.96l12.12 3.58 2.74 12.21 -9.44 8.42c2.01,4.47 4.5,8.69 7.45,12.55l11.91 -4.24 9.41 8.26 -2.67 12.36c4.17,2.4 8.64,4.36 13.37,5.76l7.14 -10.45 12.47 1.15 5.1 11.58c4.91,-0.54 9.67,-1.63 14.21,-3.23l-0.38 -12.64 10.77 -6.41 10.93 6.33c3.6,-3.26 6.83,-6.92 9.59,-10.94l-7.74 -9.99 4.93 -11.53 12.58 -1.3c0.49,-2.4 0.87,-4.84 1.08,-7.32z"/>
   <path class="fil35" d="M278.81 93.3c-16.95,11.62 -40.14,7.29 -51.75,-9.66 -11.65,-16.99 -7.32,-40.15 9.63,-51.78 16.96,-11.62 40.16,-7.27 51.78,9.69 11.62,16.95 7.3,40.13 -9.66,51.75zm13 -54.04c-12.88,-18.8 -38.6,-23.62 -57.41,-10.74 -18.79,12.9 -23.59,38.58 -10.68,57.41 12.88,18.79 38.59,23.59 57.38,10.71 18.8,-12.88 23.59,-38.59 10.71,-57.38z"/>
   <path class="fil36" d="M228.68 104.44l0.38 0.33 -2.45 12.28 -0.22 0.08c4.17,2.4 8.64,4.36 13.37,5.76l-0.09 -0.21 7.23 -10.24 12.47 1.15 5.25 11.38 -0.15 0.2c4.91,-0.54 9.67,-1.63 14.21,-3.23l-0.2 -0.11 -0.18 -12.53 10.77 -6.41 10.94 6.12 -0.01 0.21c3.6,-3.26 6.83,-6.92 9.59,-10.94l-0.22 0.03 -7.52 -10.02 4.93 -11.53 12.44 -1.47 0.14 0.17c0.49,-2.4 0.87,-4.84 1.08,-7.32 0.22,-2.41 0.28,-4.81 0.21,-7.17l-0.15 0.16 -3.4 -1.05c-27.26,30.69 -61.72,41.26 -88.42,44.36z"/>
   <path class="fil37" d="M281.1 96.64c6.45,-4.42 11.25,-10.35 14.25,-16.99 -2.52,1.8 -5.07,3.48 -7.63,5.05 -2.41,3.26 -5.38,6.18 -8.91,8.6 -7.72,5.29 -16.72,7.26 -25.34,6.26 -2.94,0.83 -5.86,1.56 -8.72,2.19 11.83,3.92 25.28,2.47 36.35,-5.11z"/>
   <path class="fil38" d="M238.16 13.15l0.03 -10.2c0,0 6.32,-2.42 10.96,-2.63 0,0 -7.68,1.82 -10.99,12.83z"/>
   <polygon class="fil3" points="78.23,291.86 81.41,296.53 86.33,297.44 86.68,298.57 85.3,299.03 89.18,300.94 90.63,304.11 88.3,308.07 83.84,309.8 80.08,307.05 77.84,302.02 73.21,295.81 "/>
   <polygon class="fil2" points="81.94,291.26 48.76,245.98 52.43,224.12 31.62,214.3 23.82,252.27 27.57,261.25 73.17,301.08 "/>
   <path class="fil19" d="M218.09 413.48c0,8.41 -6.81,15.23 -15.22,15.23 -8.41,0 -15.23,-6.82 -15.23,-15.23 0,-8.41 6.82,-15.23 15.23,-15.23 8.41,0 15.22,6.82 15.22,15.23z"/>
   <polygon class="fil20" points="197,422.55 192.08,412.93 197.95,403.87 208.73,404.42 213.65,414.03 207.79,423.1 "/>
   <path class="fil21" d="M208.44 413.48c0,3.08 -2.49,5.58 -5.57,5.58 -3.08,0 -5.58,-2.5 -5.58,-5.58 0,-3.08 2.5,-5.57 5.58,-5.57 3.08,0 5.57,2.49 5.57,5.57z"/>
   <path class="fil20" d="M293.75 419.1l-34.54 2.29 0 -15.67 34.54 2.12 2.06 4.94c0.2,0.49 0.2,1.05 -0.01,1.55l-2.05 4.77z"/>
   <path class="fil19" d="M288.62 419.6c-0.94,-4.6 -1.99,-9.27 -3.15,-14.03 -0.49,-2.04 -3.77,-1.48 -3.24,0.62 1.24,4.92 2.35,9.73 3.36,14.47 0.41,1.95 3.42,0.83 3.03,-1.06z"/>
   <path class="fil19" d="M294.31 419.19c-0.83,-4.32 -1.75,-8.7 -2.76,-13.16 -0.44,-1.9 -3.31,-1.37 -2.85,0.6 1.09,4.59 2.07,9.1 2.95,13.54 0.36,1.84 3.01,0.8 2.66,-0.98z"/>
   <path class="fil19" d="M275.89 420.54c-1.34,-5.16 -2.82,-10.43 -4.47,-15.83 -0.71,-2.32 -5.46,-1.78 -4.69,0.63 1.8,5.63 3.41,11.1 4.85,16.45 0.6,2.21 4.85,0.87 4.31,-1.25z"/>
   <path class="fil19" d="M282.13 420.06c-1.07,-4.91 -2.28,-9.91 -3.6,-15.02 -0.57,-2.19 -4.35,-1.61 -3.74,0.65 1.43,5.28 2.71,10.45 3.87,15.52 0.48,2.1 3.92,0.88 3.47,-1.15z"/>
   <path class="fil39" d="M264.13 409.56l0.8 -3.23 2.16 0.12c0.31,1 0.62,2 0.93,2.99l-3.89 0.12zm8.66 -0.27c-0.25,-0.85 -0.5,-1.7 -0.76,-2.55l3.09 0.17c0.2,0.77 0.4,1.53 0.6,2.29l-2.93 0.09zm6.77 -0.21c-0.17,-0.65 -0.33,-1.29 -0.49,-1.94l3.45 0.2c0.13,0.55 0.27,1.09 0.4,1.63l-3.36 0.11zm6.7 -0.21c-0.1,-0.44 -0.21,-0.89 -0.31,-1.33l3.01 0.18c0.08,0.35 0.16,0.7 0.24,1.05l-2.94 0.1z"/>
   <path class="fil40" d="M282.92 408.97c-0.13,-0.54 -0.27,-1.08 -0.4,-1.63l3.43 0.2c0.1,0.44 0.21,0.89 0.31,1.33l-3.34 0.1z"/>
   <path class="fil39" d="M292.14 408.68c-0.06,-0.26 -0.12,-0.53 -0.17,-0.79l1.75 0.1 0.36 0.63 -1.94 0.06z"/>
   <path class="fil40" d="M289.2 408.77c-0.08,-0.35 -0.16,-0.7 -0.24,-1.05l3.01 0.17c0.05,0.26 0.11,0.53 0.17,0.79l-2.94 0.09z"/>
   <path class="fil40" d="M268.02 409.44c-0.31,-0.99 -0.62,-1.99 -0.93,-2.99l4.94 0.29c0.26,0.85 0.51,1.7 0.76,2.55l-4.77 0.15z"/>
   <path class="fil40" d="M275.72 409.2c-0.2,-0.76 -0.4,-1.52 -0.6,-2.29l3.95 0.23c0.16,0.65 0.32,1.29 0.49,1.94l-3.84 0.12z"/>
   <path class="fil41" d="M250.18 398.13c-4.58,2.57 -7.28,9 -7.28,15.06 0,6.06 2.7,12.49 7.28,15.06 6.94,3.88 15.89,-1.83 15.89,-15.06 0,-13.23 -8.95,-18.94 -15.89,-15.06z"/>
   <path class="fil19" d="M262.18 413.19c0,13.23 -7.73,18.94 -13.72,15.06 -3.95,-2.57 -6.28,-9 -6.28,-15.06 0,-6.06 2.33,-12.49 6.28,-15.06 5.99,-3.88 13.72,1.83 13.72,15.06z"/>
   <polygon class="fil20" points="245.56,421.03 243.63,412.76 245.98,404.7 252.34,402.73 256.75,413.93 251.63,423.99 "/>
   <path class="fil21" d="M252.12 413.19c0,3.53 -1.77,5.96 -3.66,5.52 -1.62,-0.39 -2.78,-2.84 -2.78,-5.52 0,-2.68 1.16,-5.13 2.78,-5.51 1.89,-0.45 3.66,1.99 3.66,5.51z"/>
   <path class="fil20" d="M428.11 269.25l-18.93 -32.41 11.89 -6.81 18.93 32.4 -2.89 5.76c-0.48,0.96 -1.49,1.54 -2.57,1.47l-6.43 -0.41z"/>
   <path class="fil19" d="M415.75 249c3.92,-3.7 7.77,-7.49 11.54,-11.36 1.58,-1.62 -1.19,-4.6 -2.78,-2.98 -3.77,3.88 -7.62,7.66 -11.53,11.36 -1.65,1.55 1.13,4.53 2.77,2.98z"/>
   <path class="fil19" d="M419.83 256.1c3.92,-3.7 7.76,-7.48 11.53,-11.35 1.59,-1.63 -1.19,-4.61 -2.77,-2.98 -3.78,3.87 -7.62,7.66 -11.54,11.36 -1.64,1.55 1.13,4.52 2.78,2.97z"/>
   <path class="fil19" d="M423.9 263.21c3.92,-3.7 7.77,-7.49 11.54,-11.36 1.58,-1.62 -1.19,-4.6 -2.78,-2.98 -3.77,3.87 -7.62,7.66 -11.54,11.36 -1.64,1.55 1.14,4.53 2.78,2.98z"/>
   <path class="fil19" d="M427.98 270.31c3.92,-3.7 7.76,-7.48 11.53,-11.35 1.59,-1.63 -1.19,-4.61 -2.77,-2.98 -3.78,3.87 -7.62,7.65 -11.54,11.35 -1.65,1.56 1.13,4.53 2.78,2.98z"/>
   <path class="fil30" d="M436.84 268.84l-0.07 -0.13c0.13,-0.15 0.25,-0.33 0.34,-0.52l0.65 -1.29 0.01 0.02 -0.93 1.92z"/>
   <path class="fil42" d="M436.77 268.71l-2.68 -4.3c0.57,-0.56 1.13,-1.12 1.7,-1.68l1.97 4.17 -0.65 1.29c-0.09,0.19 -0.21,0.37 -0.34,0.52zm-4.88 -7.84l-2.09 -3.35c0.81,-0.8 1.61,-1.59 2.4,-2.39l1.74 3.69c-0.68,0.68 -1.37,1.37 -2.05,2.05zm-4.29 -6.9l-2.08 -3.35c1.04,-1.02 2.07,-2.05 3.1,-3.09l1.74 3.69c-0.92,0.92 -1.84,1.84 -2.76,2.75zm-4.29 -6.89l-2.08 -3.36c1.28,-1.25 2.55,-2.51 3.81,-3.79l1.74 3.69c-1.15,1.16 -2.31,2.31 -3.47,3.46zm-4.28 -6.9l-1.89 -3.03 4.91 -3.56 1.14 2.42c-1.38,1.4 -2.77,2.79 -4.16,4.17z"/>
   <path class="fil31" d="M421.23 243.72l-2.2 -3.54c1.39,-1.38 2.78,-2.77 4.16,-4.17l1.85 3.92c-1.26,1.28 -2.53,2.54 -3.81,3.79z"/>
   <path class="fil31" d="M425.52 250.62l-2.21 -3.54c1.16,-1.15 2.32,-2.3 3.47,-3.46l1.84 3.91c-1.03,1.04 -2.06,2.07 -3.1,3.09z"/>
   <path class="fil31" d="M429.8 257.52l-2.2 -3.55c0.92,-0.91 1.84,-1.83 2.76,-2.75l1.84 3.91c-0.79,0.8 -1.59,1.59 -2.4,2.39z"/>
   <path class="fil31" d="M434.09 264.41l-2.2 -3.54c0.68,-0.68 1.37,-1.37 2.05,-2.05l1.85 3.91c-0.57,0.56 -1.13,1.12 -1.7,1.68z"/>
   <path class="fil41" d="M424.17 216.47c-4.63,-2.12 -11.84,-0.55 -17.34,2.92 -5.51,3.48 -9.98,9.29 -10.01,14.36 -0.03,7.67 9.67,11.41 21.69,3.82 12.02,-7.59 12.69,-17.89 5.66,-21.1z"/>
   <path class="fil19" d="M416.55 234.52c-12.02,7.59 -21.1,4.81 -20.59,-2.12 0.33,-4.57 5,-10.09 10.5,-13.57 5.51,-3.48 12.53,-5.34 16.85,-3.71 6.55,2.47 5.26,11.81 -6.76,19.4z"/>
   <polygon class="fil20" points="401.68,227.04 408.22,220.78 416.72,218 421.72,221.86 413.78,231.74 402.05,233.5 "/>
   <path class="fil21" d="M412.11 227.69c-3.2,2.02 -6.31,2.03 -6.85,0.29 -0.47,-1.49 1.17,-3.8 3.61,-5.34 2.43,-1.54 5.24,-2.04 6.41,-0.99 1.35,1.23 0.03,4.01 -3.17,6.04z"/>
   <path class="fil43" d="M473.48 235.89c-4.3,25.32 -8.59,50.64 -12.89,75.96 8.54,0.33 17.1,0.38 25.64,0.15 -2.84,-18.83 -2.78,-37.96 -2.7,-57 0.04,-10.32 0.1,-20.79 2.95,-30.7 1.72,-5.99 4.45,-11.7 8.03,-16.8 -15.87,0.02 -18.84,15.47 -21.03,28.39z"/>
   <path class="fil44" d="M479.77 223.32c-4.33,14.14 -7.32,28.69 -8.9,43.39 -0.83,7.66 -0.85,16.5 4.82,21.73 3.95,-2.38 4.57,-7.76 4.58,-12.37 0.05,-11.78 -1,-23.58 -0.01,-35.32 0.52,-6.28 1.67,-12.56 3.81,-18.5 1.99,-5.5 6.1,-9.96 8.2,-15.06 -7.5,-1.52 -10.94,11.06 -12.5,16.13z"/>
   <polygon class="fil5" points="425.66,258.75 419.37,257.15 417.97,252.88 423.04,251.82 421.74,249.92 422.64,248.75 430.93,251.93 430.94,256.52 "/>
   <path class="fil6" d="M500.24 212.44c-0.71,-0.17 -1.48,-0.25 -2.33,-0.22 -3.5,0.15 -6.79,1.95 -9.37,4.34 -4.09,3.77 -7.02,8.86 -10.66,13.07 -4.16,4.82 -8.32,9.64 -12.48,14.45l-36.66 6.35 0.48 8.05 45.71 0.78c5.21,-6.67 10.28,-13.2 15.87,-19.49 5.01,-5.63 11.56,-10.68 13.74,-18.17 1.22,-4.24 -0.44,-8.18 -4.3,-9.16z"/>
   <path class="fil19" d="M242.2 195.48c0,8.85 -7.18,16.02 -16.03,16.02 -8.85,0 -16.02,-7.17 -16.02,-16.02 0,-8.85 7.17,-16.03 16.02,-16.03 8.85,0 16.03,7.18 16.03,16.03z"/>
   <polygon class="fil20" points="220,205.02 214.82,194.9 221,185.36 232.35,185.94 237.52,196.05 231.35,205.6 "/>
   <path class="fil21" d="M232.04 195.48c0,3.24 -2.63,5.87 -5.87,5.87 -3.24,0 -5.87,-2.63 -5.87,-5.87 0,-3.24 2.63,-5.87 5.87,-5.87 3.24,0 5.87,2.63 5.87,5.87z"/>
   <path class="fil36" d="M77.85 253.69c0.28,3.96 -0.51,7.54 -0.51,11.51 0,1.86 5.15,7.86 8.78,9.45 5.96,-3.23 10.78,-8.49 10.78,-12.64 0,-3.99 -2.26,-11.88 -3.67,-15.62 -2.96,-7.86 -6.47,-15.49 -9.99,-23.12 -2.85,-6.2 -5.76,-12.47 -9.86,-17.97 -1.74,-2.34 -5.78,-4.87 -6.97,-7.29 -1.01,-2.04 0.57,-4.59 -1.58,-6.08 -3.32,-2.32 -6.05,1.98 -6.11,4.76 -0.02,0.86 0.1,1.78 0.66,2.43 0.9,1.04 2.06,0.43 3.04,1.42 0.87,0.87 1.56,3.06 2.02,4.23 2.89,7.33 5.36,14.93 7.75,22.43 2.75,8.62 5.02,17.44 5.66,26.49z"/>
   <path class="fil45" d="M57.89 204.01c-2.67,-1.76 -5.59,-3.14 -8.65,-4.06 -4.29,-1.3 -8.81,-1.71 -13.15,-2.85 -1.33,-0.35 -2.87,-1.02 -3.09,-2.38 -0.27,-1.73 1.75,-2.84 3.44,-3.31 6.45,-1.77 13.2,-2.01 19.88,-2.24 1.32,-0.05 2.76,-0.05 3.79,0.77 4.09,3.3 -4.94,12.27 -2.22,14.07z"/>
   <path class="fil45" d="M70.89 200.92c1.07,-2.76 1.11,-5.79 1.14,-8.74 0.01,-1.15 -0.02,-2.39 -0.74,-3.27 -0.79,-0.97 -2.16,-1.2 -3.41,-1.24 -2.52,-0.07 -5.05,0.37 -7.4,1.27 -2.01,0.77 -3.38,0.94 -1.78,2.3 1.54,1.3 3.64,2.05 5.27,3.51 2.31,2.06 4.61,4.11 6.92,6.17z"/>
  </g>
 </g>
</svg>
