<?xml version="1.0" encoding="UTF-8"?>
<!DOCTYPE svg PUBLIC "-//W3C//DTD SVG 1.1//EN" "http://www.w3.org/Graphics/SVG/1.1/DTD/svg11.dtd">
<!-- Creator: CorelDRAW 2019 (64-Bit) -->
<svg xmlns="http://www.w3.org/2000/svg" xml:space="preserve" width="1080px" height="1080px" version="1.1" style="shape-rendering:geometricPrecision; text-rendering:geometricPrecision; image-rendering:optimizeQuality; fill-rule:evenodd; clip-rule:evenodd"
viewBox="0 0 1080 1080"
 xmlns:xlink="http://www.w3.org/1999/xlink"
 xmlns:xodm="http://www.corel.com/coreldraw/odm/2003">
 <defs>
  <style type="text/css">
   <![CDATA[
    .str1 {stroke:#57534E;stroke-width:25;stroke-miterlimit:22.9256}
    .str2 {stroke:#57534E;stroke-width:25;stroke-miterlimit:22.9256}
    .str0 {stroke:#FB3300;stroke-width:25;stroke-miterlimit:22.9256}
    .fil0 {fill:none}
    .fil3 {fill:#FEFEFE}
    .fil4 {fill:#FF3300}
    .fil1 {fill:#57534E;fill-rule:nonzero}
    .fil2 {fill:#FF3300;fill-rule:nonzero}
   ]]>
  </style>
   <clipPath id="id0">
    <path d="M0 0l1080 0 0 1080 -1080 0 0 -1080z"/>
   </clipPath>
     <clipPath id="id1">
      <path d="M0 0l1080 0 0 584.78 -1080 0 0 -584.78z"/>
     </clipPath>
     <clipPath id="id2">
      <path d="M0 0l1080 0 0 1080 -1080 0 0 -1080z"/>
     </clipPath>
 </defs>
 <g id="Layer_x0020_1">
  <metadata id="CorelCorpID_0Corel-Layer"/>
  <g>
  </g>
  <g style="clip-path:url(#id0)">
   <g>
    <g id="_1411297795264">
     <line class="fil0 str0" x1="40.4" y1="1033.22" x2="1052.73" y2= "1033.22" />
     <path class="fil1" d="M528.03 760.85c-46.73,0 -93.35,0 -139.98,0 -0.49,-10.14 -6.5,-17.47 -18.13,-22.03 -11.53,-4.51 -30.26,-6.79 -56.19,-6.79 -11.73,0 -23.46,0 -35.09,0 -32.13,0 -53.25,3.58 -63.48,10.77 -10.27,7.22 -15.47,24.71 -15.47,52.26 0,17.69 0,35.38 0,53.07 0,27.26 5.2,44.58 15.47,51.8 10.23,7.19 31.35,10.8 63.48,10.8 12.91,0 25.92,0 38.94,0 27.5,0 46.72,-2.4 57.66,-7.19 10.84,-4.74 16.27,-12.91 16.27,-24.61 0,-4.17 0,-8.35 0,-12.55 -26.72,0 -53.33,0 -79.94,0 0,-20.11 0,-40.21 0,-60.32 72.15,0 144.3,0 216.46,0 0,18.39 0,36.77 0,55.15 0,21.76 -3.95,40.64 -11.64,56.51 -7.68,15.87 -19.43,28.83 -34.89,38.82 -30.97,20.01 -79.94,30.01 -146.77,30.01 -31.74,0 -63.38,0 -95.02,0 -58.95,0 -103.43,-11.5 -133.86,-34.52 -15.2,-11.49 -26.62,-25.77 -34.11,-42.76 -7.49,-16.99 -11.33,-36.73 -11.33,-59.16 0,-16.32 0,-32.65 0,-48.98 0,-25.11 3.94,-46.87 11.92,-65.22 7.99,-18.35 20.02,-33.36 36.08,-44.98 31.94,-23.12 82.41,-34.78 151.6,-34.78 25.33,0 50.67,0 76.1,0 56.09,0 102.13,8.69 138,25.9 35.98,17.27 53.92,38.95 53.92,65.12 0,4.57 0,9.14 0,13.68zm99.95 221.69c0,-53.72 -0.01,-107.45 -0.01,-161.17 0,-53.73 0.01,-107.46 0.01,-161.18 65.35,0 130.7,0 196.05,0 65.35,0 130.81,0 196.26,0 0,23.95 0,47.9 0,71.84 -42.09,0 -84.18,0 -126.18,0 -41.99,0 -84.08,0 -126.07,0 0,18.62 0,37.23 0,55.85 81.62,0 163.24,0 244.95,0 0,20.7 0,41.4 0,62.1 -81.71,0 -163.33,0 -244.95,0 0,20.28 0,40.51 0,60.75 42.98,0 85.96,0 128.93,0 42.98,0 85.96,0 129.13,0 0,23.95 0,47.9 0,71.81 -66.44,0 -132.77,0 -199.11,0 -66.34,0 -132.68,0 -199.01,0z"/>
     <g>
     </g>
    </g>
    <g style="clip-path:url(#id1)">
     <g id="_1411297797504">
      <path class="fil2" d="M684.6 757.26c-95.54,78.11 -236.56,64.44 -314.79,-31.42 -78.23,-95.86 -63.87,-236.28 31.66,-314.54 95.53,-78.26 236.1,-64.6 314.49,31.07 78.38,95.66 64.17,236.77 -31.36,314.89zm357.36 -171.39c0.13,-19.18 -1.04,-38.19 -3.18,-56.83l-98.14 -19.8 -30.19 -94.56 68.4 -73.1c-18.79,-33.89 -41.46,-65.26 -67.33,-93.68l-91.06 41.8 -80.1 -58.66 12.36 -99.49c-33.53,-15.54 -69.14,-27.59 -106.27,-35.37l-49.6 87.19 -99.31 -1.14 -47.95 -88.14c-38.45,7.36 -75.36,19.03 -110.15,34.65l11.16 99.63 -80.97 57.58 -90.51 -42.88c-26.23,27.98 -49.35,59.03 -68.62,92.71l67.44 73.94 -31.5 94.11 -98.43 18.59c-2.45,19.62 -3.9,39.7 -3.99,60.15 0.05,18.68 1.08,37.02 2.98,55.14l98.16 20.09 29.89 94.65 -68.84 72.91c18.86,33.91 41.41,65.62 67.29,94.11l91.22 -41.51 79.93 58.89 -12.77 99.5c34.6,16.09 71.24,28.57 109.52,36.5l49.34 -87.41 99.32 0.72 48.12 88.02c38.43,-7.53 75.29,-19.39 110.06,-35.09l-11.44 -99.58 80.71 -57.93 90.61 42.64c26.25,-28.2 49.3,-59.3 68.43,-92.94l-67.85 -73.68 31.15 -94.4 98.51 -18.75c2.25,-19.28 3.6,-38.84 3.6,-58.58z"/>
      <circle class="fil3" cx="542.12" cy="581.7" r="307.17"/>
     </g>
    </g>
    <g style="clip-path:url(#id2)">
     <polygon class="fil0" points="-63.5,0 1210.98,0 1210.98,584.78 -63.5,584.78 "/>
     <path class="fil0 str1" d="M265.47 607.93c0,-165.24 126.08,-299.19 281.59,-299.19 155.52,0 281.59,133.95 281.59,299.19"/>
     <line class="fil0 str2" x1="40.4" y1="613.08" x2="280.32" y2= "613.08" />
     <line class="fil0 str2" x1="814.23" y1="612.81" x2="1052.73" y2= "612.81" />
     <path class="fil4" d="M548.65 622.05l-242.8 0c0,-150.1 108.71,-271.77 242.8,-271.77 134.1,0 242.8,121.67 242.8,271.77l-242.8 0z"/>
    </g>
   </g>
  </g>
  <polygon class="fil0" points="0,0 1080,0 1080,1080 0,1080 "/>
 </g>
</svg>
