<?xml version="1.0" encoding="UTF-8"?>
<!DOCTYPE svg PUBLIC "-//W3C//DTD SVG 1.1//EN" "http://www.w3.org/Graphics/SVG/1.1/DTD/svg11.dtd">
<!-- Creator: CorelDRAW 2019 (64-Bit) -->
<svg xmlns="http://www.w3.org/2000/svg" xml:space="preserve" width="1497px" height="1540px" version="1.1" style="shape-rendering:geometricPrecision; text-rendering:geometricPrecision; image-rendering:optimizeQuality; fill-rule:evenodd; clip-rule:evenodd"
viewBox="0 0 1367.79 1407.3"
 xmlns:xlink="http://www.w3.org/1999/xlink"
 xmlns:xodm="http://www.corel.com/coreldraw/odm/2003">
 <defs>
  <style type="text/css">
   <![CDATA[
    .fil1 {fill:#FEFEFE;fill-rule:nonzero}
    .fil3 {fill:#434242;fill-rule:nonzero}
    .fil11 {fill:#FFE276;fill-rule:nonzero}
    .fil21 {fill:#FFD339;fill-rule:nonzero}
    .fil8 {fill:#FECC00;fill-rule:nonzero}
    .fil10 {fill:#423A18;fill-rule:nonzero}
    .fil13 {fill:#F9CAB4;fill-rule:nonzero}
    .fil9 {fill:#F8AF03;fill-rule:nonzero}
    .fil12 {fill:#F6B5AA;fill-rule:nonzero}
    .fil15 {fill:#F4A18C;fill-rule:nonzero}
    .fil22 {fill:#F29226;fill-rule:nonzero}
    .fil19 {fill:#F7C633;fill-rule:nonzero}
    .fil16 {fill:#F6C134;fill-rule:nonzero}
    .fil18 {fill:#41381D;fill-rule:nonzero}
    .fil20 {fill:#ED9F1B;fill-rule:nonzero}
    .fil17 {fill:#EC9B1C;fill-rule:nonzero}
    .fil23 {fill:#CDDBE3;fill-rule:nonzero}
    .fil24 {fill:#3B3F40;fill-rule:nonzero}
    .fil5 {fill:#C7DDE9;fill-rule:nonzero}
    .fil2 {fill:#B9CCD8;fill-rule:nonzero}
    .fil7 {fill:#363B3D;fill-rule:nonzero}
    .fil4 {fill:#6A7D86;fill-rule:nonzero}
    .fil25 {fill:#4B585E;fill-rule:nonzero}
    .fil6 {fill:#84A5B6;fill-rule:nonzero}
    .fil14 {fill:#5B493B;fill-rule:nonzero}
    .fil0 {fill:#E7F5F7;fill-rule:nonzero}
   ]]>
  </style>
 </defs>
 <g id="__x0023_Layer_x0020_1">
  <metadata id="CorelCorpID_0Corel-Layer"/>
  <g id="_1727130344320">
   <path class="fil0" d="M200.46 1167.64l307.19 -373.23 -328.46 102.28 306.18 -165.46 -151.06 -14.66c35.89,-14.83 66.06,-40.66 86.34,-73.29l60.49 -5.87 -45.54 -23.91c6.77,-17.24 11.02,-35.75 12.29,-55.06l19.11 5.7c-0.97,11.08 -2.83,21.9 -5.5,32.4 -0.72,2.84 1,5.74 3.84,6.46 0.44,0.11 0.88,0.16 1.31,0.16 2.38,0 4.54,-1.6 5.15,-4 2.64,-10.36 4.52,-21.02 5.58,-31.92l32.66 9.74 -31.77 -38.59c-0.57,-16.2 -2.94,-31.95 -6.92,-47.05 -0.63,-2.39 -2.78,-3.96 -5.14,-3.96 -0.44,0 -0.9,0.05 -1.35,0.17 -2.84,0.75 -4.54,3.66 -3.79,6.5 2.58,9.79 4.45,19.87 5.55,30.18l-26.33 -31.99c-1.74,-5.73 -3.76,-11.34 -6.04,-16.82 3.37,-4.96 6.1,-10.33 8.15,-16.06 0.34,-0.83 0.53,-1.75 0.53,-2.7l0 0c0,-3.91 -3.15,-7.09 -7.05,-7.1l-0.05 0 -0.37 0.01c-1.07,0.06 -2.08,0.35 -2.97,0.83l-8.43 4.29c-9.2,-16.08 -20.76,-30.64 -34.2,-43.21l4.99 -9.79 33.08 5.23c0.37,0.06 0.74,0.09 1.12,0.09 2.37,0 4.63,-1.2 5.95,-3.24 0.76,-1.18 1.14,-2.52 1.14,-3.87 -0.01,-1.34 -0.39,-2.69 -1.16,-3.86 -1.28,-1.97 -2.66,-3.88 -4.13,-5.71l142.55 117.32 -43.85 -140.79c19.35,29.57 46.97,53.23 79.57,67.72l14.11 26.1c-10.15,-3.16 -19.97,-7.09 -29.37,-11.73 -0.76,-0.38 -1.56,-0.55 -2.35,-0.55 -1.96,0 -3.84,1.09 -4.77,2.96 -1.3,2.64 -0.22,5.82 2.42,7.12 13.01,6.42 26.78,11.56 41.12,15.25l6.28 11.63 0.97 -9.9c14.93,3.3 30.45,5.03 46.38,5.03 3.63,0 7.25,-0.09 10.85,-0.27 2.93,-0.14 5.19,-2.64 5.04,-5.57 -0.14,-2.84 -2.49,-5.05 -5.3,-5.05 -0.09,0 -0.18,0 -0.27,0.01l0 0c-3.42,0.17 -6.86,0.25 -10.32,0.25 -15.6,0 -30.77,-1.74 -45.35,-5.06l1.9 -19.57c13.93,3.36 28.48,5.14 43.45,5.14 14.8,0 29.2,-1.74 43,-5.04l1.9 19.57c-6.27,1.41 -12.64,2.53 -19.11,3.34 -2.91,0.37 -4.97,3.03 -4.61,5.94 0.34,2.69 2.63,4.65 5.27,4.65 0.22,0 0.45,-0.01 0.67,-0.04 6.36,-0.8 12.64,-1.89 18.81,-3.23l0.55 5.59 3.4 -6.49c13.86,-3.31 27.2,-7.96 39.86,-13.8 2.67,-1.23 3.83,-4.39 2.6,-7.05 -0.89,-1.95 -2.82,-3.09 -4.82,-3.09 -0.75,0 -1.51,0.15 -2.23,0.49 -9.22,4.26 -18.81,7.84 -28.71,10.7l13.23 -25.22c30.38,-12.44 56.69,-32.75 76.41,-58.39l-39.32 131.73 376.53 -309.88 -151.32 183.86c-41.77,22.67 -73.8,61.02 -88.19,107.15l-28.47 34.59c-0.88,-1 -2.14,-1.67 -3.57,-1.79 -0.15,-0.01 -0.29,-0.01 -0.43,-0.01 -2.74,0 -5.07,2.11 -5.29,4.89 -0.24,2.93 -0.41,5.87 -0.52,8.83l-29.41 35.73 29.98 -9.34c0.84,10.12 2.38,20.05 4.58,29.73 0.56,2.47 2.75,4.14 5.18,4.14 0.39,0 0.78,-0.04 1.18,-0.13 2.86,-0.65 4.66,-3.5 4.01,-6.36l0 0c-2.26,-9.95 -3.79,-20.18 -4.54,-30.62l19.17 -5.97c0.9,19.43 4.81,38.08 11.28,55.48l-48.55 26.24 64.43 6.25c20.12,32.59 50.1,58.44 85.78,73.39l-145.99 14.17 304.6 159.94 -333.49 -99.5 309.88 376.51 -369.41 -304.03c18.28,-22.3 26.9,-50.35 24.26,-79.09l-4.28 -46.66c13.44,-5.52 22.28,-11.2 24.8,-12.9 6.63,-2.74 15.76,-6.83 23.04,-11.28 6.46,-3.95 13.8,-9.43 13.15,-16.75 -0.33,-3.71 -2.7,-8.55 -12.13,-10.58 -19.51,-4.16 -29.82,-9.3 -33.92,-11.74 -0.06,-0.45 -0.13,-0.89 -0.2,-1.34 -12.63,-77.51 -65.6,-127.59 -134.96,-127.59 -7.96,0 -16.08,0.68 -24.14,2.03 -74.41,12.45 -122.67,97.91 -107.59,190.52 0.25,1.54 0.54,3.06 0.83,4.58l0.18 0.92c0.45,2.41 2.11,4.42 4.39,5.33 0.85,0.33 1.76,0.51 2.65,0.51 1.48,0 2.95,-0.46 4.19,-1.35 1.24,-0.89 2.55,-1.83 3.92,-2.79 2.35,12.88 4.44,22.3 4.67,23.31 0.44,2.02 1.75,3.75 3.57,4.74 1.06,0.58 2.24,0.86 3.42,0.86 0.86,0 1.7,-0.14 2.51,-0.44 0.43,-0.16 2.46,-0.94 5.67,-2.49l3.03 33.04c2.5,27.25 15.03,52.38 35.28,70.76 14.02,12.73 30.89,21.47 48.98,25.6l-45.26 0 -0.92 0.26c-0.41,0.1 -1.98,0.54 -4.47,1.23l-1.49 -15.33 -9.72 18.52c-13.07,3.76 -32.27,9.48 -49.8,15.42 -1.25,-2.29 -3.67,-3.74 -6.3,-3.74 -0.42,0 -0.85,0.04 -1.28,0.11 -3.49,0.63 -7.74,1.59 -11.9,3l18.56 -62.21 -376.51 309.88zm747.84 -487.01c-1.27,0 -2.54,0.45 -3.56,1.36 -2.18,1.96 -2.36,5.32 -0.39,7.5 3.64,4.06 7.44,7.97 11.38,11.73 1.03,0.98 2.35,1.47 3.67,1.47 1.4,0 2.8,-0.55 3.84,-1.64 2.03,-2.12 1.95,-5.49 -0.17,-7.51l0 0c-3.75,-3.58 -7.35,-7.3 -10.82,-11.15 -1.05,-1.17 -2.5,-1.76 -3.95,-1.76zm-506.53 -29.65c-1.78,0 -3.52,0.89 -4.53,2.51l0.01 0c-2.74,4.41 -5.64,8.7 -8.69,12.88 -1.74,2.37 -1.23,5.69 1.15,7.43 0.94,0.69 2.04,1.02 3.13,1.02 1.63,0 3.25,-0.75 4.29,-2.17 3.21,-4.4 6.27,-8.92 9.15,-13.56 1.54,-2.49 0.78,-5.77 -1.72,-7.31 -0.87,-0.55 -1.84,-0.8 -2.79,-0.8zm497.49 -239.23c-1.58,0 -3.13,0.7 -4.18,2.03 -22.09,28.12 -37.3,61.92 -43.09,98.83 -0.46,2.9 1.52,5.62 4.42,6.08 0.28,0.04 0.56,0.06 0.83,0.06 2.57,0 4.83,-1.87 5.25,-4.49l0 0c5.51,-35.07 19.95,-67.18 40.95,-93.91 1.81,-2.31 1.41,-5.65 -0.9,-7.47 -0.97,-0.76 -2.13,-1.13 -3.28,-1.13zm-511.72 12.74c12.28,16.5 22.13,34.9 29,54.7 0.76,2.2 2.82,3.57 5.02,3.57 0.58,0 1.17,-0.09 1.74,-0.3 2.78,-0.96 4.24,-3.99 3.28,-6.76 -7.24,-20.83 -17.6,-40.21 -30.52,-57.56 -1.04,-1.39 -2.64,-2.14 -4.27,-2.14 -1.1,0 -2.21,0.35 -3.16,1.06 -2.36,1.75 -2.84,5.08 -1.09,7.43l0 0zm571.5 -64.72c-0.9,0 -1.82,0.24 -2.65,0.72 -4.73,2.74 -9.33,5.65 -13.82,8.73 -2.41,1.66 -3.03,4.97 -1.37,7.39 1.03,1.5 2.7,2.31 4.39,2.31 1.04,0 2.09,-0.3 3,-0.94l0 0c4.26,-2.92 8.64,-5.69 13.13,-8.29 2.53,-1.48 3.4,-4.73 1.93,-7.27 -0.99,-1.7 -2.77,-2.65 -4.61,-2.65zm-197.36 562.39c-20.63,-6.35 -43.6,-12.98 -58.25,-17.16l-2.75 -5.09c21.47,-5.39 40.71,-17.16 55.47,-34.14l16.09 51.66c-0.82,-0.17 -1.61,-0.32 -2.36,-0.46 -0.43,-0.07 -0.86,-0.11 -1.29,-0.11 -3.18,0 -6.06,2.13 -6.91,5.3zm404.67 -222.81c12.04,-8.07 23.09,-17.53 32.9,-28.15l30.99 3.01c0.78,0.41 1.63,0.61 2.47,0.61 0.51,0 1.03,-0.07 1.52,-0.22l93.56 9.08 -161.44 15.67zm-1112.45 -6.12l-93.9 -9.11 128.92 -12.52c1.59,1.71 3.22,3.4 4.87,5.05l-7.61 14.93 -5.96 -0.95c-2.69,-2.67 -5.3,-5.42 -7.84,-8.24 -1.05,-1.17 -2.5,-1.76 -3.95,-1.76 -1.27,0 -2.54,0.45 -3.56,1.36 -1.72,1.55 -2.19,3.97 -1.35,6l-1.58 -0.26c-0.37,-0.05 -0.74,-0.08 -1.11,-0.08 -2.38,0 -4.64,1.2 -5.95,3.24 -0.48,0.73 -0.8,1.52 -0.98,2.34zm247.32 -321.37l-17.28 -21c2.09,-0.2 3.96,-1.64 4.59,-3.78 0.84,-2.82 -0.77,-5.78 -3.58,-6.61 -4.03,-1.19 -8.1,-2.27 -12.22,-3.22l-112.58 -136.79 207.87 171.09c-10.09,-5.27 -21.37,-8.06 -33.09,-8.06l-0.01 0c-11.94,0 -23.45,2.9 -33.7,8.37zm-2.68 -26.5c-2.14,0 -4.15,1.3 -4.96,3.42 -1.05,2.74 0.32,5.82 3.07,6.86l0 0c6.44,2.46 12.74,5.24 18.85,8.31 0.76,0.39 1.58,0.57 2.38,0.57 1.94,0 3.82,-1.07 4.75,-2.92 1.32,-2.63 0.27,-5.82 -2.36,-7.14 -6.43,-3.24 -13.05,-6.16 -19.83,-8.75 -0.63,-0.24 -1.27,-0.35 -1.9,-0.35zm161.08 -74.62l-14.94 -47.98c0.92,-4.26 1.97,-8.47 3.15,-12.63l14.12 26.13c-1.57,9.69 -2.39,19.65 -2.39,29.78 0,1.57 0.02,3.14 0.06,4.7zm368.11 -18.47c-0.65,-8.72 -1.9,-17.28 -3.71,-25.62l13.51 -25.75c1,1.12 2.45,1.77 3.96,1.77 0.36,0 0.71,-0.03 1.07,-0.11l-14.83 49.71zm-389.04 -48.73l-7.58 -24.35 9.67 17.89c-0.73,2.14 -1.43,4.29 -2.09,6.46zm406.8 -10.8c-0.5,-1.37 -1.01,-2.73 -1.53,-4.08l6.36 -12.12 -4.83 16.2zm-209.76 -110.87l1.98 -20.37c0.79,0.47 1.72,0.74 2.7,0.74 0.03,0 0.06,0 0.09,0l0 0c1.13,-0.02 2.27,-0.03 3.41,-0.03 1.94,0 3.88,0.02 5.81,0.08l1.9 19.56c-2.56,-0.1 -5.13,-0.15 -7.71,-0.15 -2.75,0 -5.47,0.06 -8.18,0.17zm2.91 -29.96l5.04 -51.91 5.01 51.63c-1.59,-0.03 -3.19,-0.05 -4.78,-0.05 -1.2,0 -2.39,0.01 -3.58,0.03 -0.6,0.01 -1.16,0.11 -1.69,0.3z"/>
   <path class="fil1" d="M868.23 266.04c0,101.81 -82.52,184.33 -184.32,184.33 -101.82,0 -184.35,-82.52 -184.35,-184.33 0,-101.81 82.53,-184.34 184.35,-184.34 101.8,0 184.32,82.53 184.32,184.34z"/>
   <path class="fil1" d="M847.47 144.41c12.28,16.49 22.13,34.9 29,54.69 0.97,2.77 3.99,4.24 6.77,3.28 2.77,-0.97 4.23,-3.99 3.27,-6.77 -7.24,-20.83 -17.6,-40.21 -30.52,-57.55 -1.75,-2.36 -5.08,-2.84 -7.43,-1.09 -2.36,1.75 -2.84,5.08 -1.09,7.44l0 0zm33.53 69.55c4.38,16.62 6.72,34.07 6.72,52.08 0,17.41 -2.19,34.29 -6.29,50.41 -0.72,2.84 1,5.73 3.84,6.46 2.85,0.73 5.74,-1 6.46,-3.84 4.32,-16.96 6.61,-34.74 6.61,-53.03 0,-18.93 -2.45,-37.3 -7.06,-54.79 -0.75,-2.84 -3.65,-4.53 -6.49,-3.79 -2.84,0.75 -4.53,3.66 -3.79,6.5zm-23.82 159.44c-2.74,4.41 -5.64,8.7 -8.69,12.88 -1.74,2.37 -1.22,5.69 1.15,7.43 2.36,1.73 5.69,1.22 7.42,-1.15 3.22,-4.4 6.27,-8.92 9.15,-13.55 1.55,-2.5 0.78,-5.78 -1.71,-7.32 -2.5,-1.55 -5.77,-0.79 -7.32,1.71l0 0zm-87.98 77.81c-18.5,8.54 -38.5,14.39 -59.5,17.03 -2.91,0.37 -4.97,3.03 -4.61,5.94 0.37,2.92 3.03,4.98 5.94,4.61 22.1,-2.79 43.15,-8.95 62.62,-17.93 2.67,-1.23 3.83,-4.39 2.6,-7.05 -1.23,-2.67 -4.39,-3.83 -7.05,-2.6zm-74.97 18.4c-3.42,0.17 -6.86,0.25 -10.32,0.25 -32.35,0 -62.9,-7.52 -90.05,-20.91 -2.63,-1.3 -5.82,-0.22 -7.12,2.41 -1.3,2.64 -0.22,5.82 2.42,7.12 28.57,14.09 60.75,22.01 94.75,22.01 3.63,0 7.25,-0.09 10.85,-0.27 2.93,-0.14 5.19,-2.64 5.04,-5.57 -0.14,-2.93 -2.64,-5.19 -5.57,-5.04l0 0zm-151.1 -56.16c-3.74,-3.58 -7.35,-7.3 -10.82,-11.15 -1.96,-2.19 -5.32,-2.36 -7.5,-0.4 -2.19,1.96 -2.36,5.32 -0.4,7.5 3.65,4.06 7.44,7.97 11.38,11.73 2.12,2.03 5.49,1.95 7.51,-0.17 2.03,-2.12 1.96,-5.49 -0.17,-7.51l0 0zm-58 -102.1c-3.31,-14.57 -5.06,-29.73 -5.06,-45.31 0,-5.54 0.22,-11.02 0.65,-16.45 0.24,-2.92 -1.95,-5.48 -4.87,-5.72 -2.92,-0.23 -5.49,1.95 -5.72,4.88 -0.45,5.7 -0.69,11.47 -0.69,17.29 0,16.37 1.84,32.33 5.32,47.66 0.65,2.86 3.5,4.66 6.36,4.01 2.86,-0.65 4.66,-3.5 4.01,-6.36l0 0zm-2.58 -77.18c5.5,-35.07 19.95,-67.17 40.95,-93.91 1.81,-2.31 1.41,-5.65 -0.9,-7.46 -2.31,-1.82 -5.65,-1.42 -7.46,0.89 -22.08,28.12 -37.3,61.92 -43.09,98.83 -0.46,2.9 1.53,5.62 4.43,6.08 2.89,0.45 5.61,-1.53 6.07,-4.43l0 0zm86.11 -136.28c4.26,-2.92 8.64,-5.69 13.12,-8.29 2.54,-1.47 3.4,-4.73 1.93,-7.27 -1.47,-2.53 -4.72,-3.4 -7.26,-1.93 -4.72,2.74 -9.33,5.65 -13.81,8.73 -2.42,1.66 -3.03,4.97 -1.37,7.39 1.66,2.42 4.96,3.04 7.38,1.37l0.01 0zm111.84 -35.65c1.13,-0.02 2.27,-0.03 3.41,-0.03 20.13,0 39.58,2.92 57.95,8.36 2.82,0.83 5.77,-0.77 6.61,-3.59 0.83,-2.81 -0.78,-5.77 -3.59,-6.6 -19.34,-5.73 -39.81,-8.8 -60.97,-8.8 -1.2,0 -2.39,0.01 -3.58,0.03 -2.94,0.05 -5.28,2.46 -5.23,5.4 0.05,2.93 2.47,5.28 5.4,5.23l0 0zm76.08 13.31c6.45,2.46 12.74,5.24 18.85,8.32 2.63,1.32 5.82,0.26 7.14,-2.36 1.32,-2.63 0.26,-5.82 -2.36,-7.14 -6.43,-3.24 -13.05,-6.16 -19.84,-8.75 -2.74,-1.04 -5.82,0.33 -6.86,3.07 -1.04,2.74 0.33,5.81 3.07,6.86l0 0z"/>
   <path class="fil1" d="M448.29 546.13c0,101.81 -82.52,184.34 -184.33,184.34 -101.8,0 -184.34,-82.53 -184.34,-184.34 0,-101.81 82.54,-184.34 184.34,-184.34 101.81,0 184.33,82.53 184.33,184.34z"/>
   <path class="fil1" d="M427.54 424.49c12.28,16.5 22.13,34.9 29,54.7 0.96,2.77 3.99,4.24 6.76,3.27 2.78,-0.96 4.24,-3.99 3.28,-6.76 -7.24,-20.83 -17.6,-40.21 -30.52,-57.56 -1.75,-2.35 -5.08,-2.84 -7.43,-1.08 -2.36,1.75 -2.84,5.08 -1.09,7.43l0 0zm33.53 69.56c4.38,16.62 6.71,34.07 6.71,52.08 0,17.4 -2.18,34.29 -6.28,50.41 -0.72,2.84 1,5.74 3.84,6.46 2.85,0.72 5.74,-1 6.46,-3.84 4.32,-16.97 6.61,-34.74 6.61,-53.03 0,-18.93 -2.45,-37.3 -7.06,-54.79 -0.75,-2.84 -3.65,-4.53 -6.49,-3.79 -2.84,0.75 -4.54,3.66 -3.79,6.5zm-23.82 159.44c-2.74,4.41 -5.64,8.7 -8.69,12.88 -1.74,2.37 -1.23,5.69 1.15,7.43 2.36,1.73 5.68,1.22 7.42,-1.15 3.21,-4.4 6.27,-8.92 9.15,-13.56 1.54,-2.49 0.78,-5.77 -1.72,-7.31 -2.49,-1.55 -5.77,-0.78 -7.32,1.71l0.01 0zm-87.98 77.81c-18.5,8.54 -38.5,14.38 -59.5,17.03 -2.91,0.37 -4.97,3.03 -4.61,5.94 0.37,2.91 3.03,4.98 5.94,4.61 22.1,-2.79 43.15,-8.95 62.62,-17.93 2.67,-1.23 3.83,-4.39 2.6,-7.05 -1.23,-2.67 -4.39,-3.83 -7.05,-2.6l0 0zm-74.97 18.39c-3.42,0.18 -6.87,0.26 -10.34,0.26 -32.33,0 -62.88,-7.52 -90.03,-20.91 -2.64,-1.3 -5.82,-0.22 -7.12,2.41 -1.3,2.64 -0.22,5.82 2.42,7.12 28.57,14.09 60.74,22.01 94.73,22.01 3.65,0 7.27,-0.09 10.87,-0.27 2.93,-0.15 5.19,-2.64 5.04,-5.57 -0.15,-2.93 -2.64,-5.19 -5.57,-5.05l0 0zm-151.1 -56.15c-3.75,-3.58 -7.35,-7.3 -10.82,-11.15 -1.96,-2.19 -5.32,-2.37 -7.51,-0.4 -2.18,1.96 -2.36,5.32 -0.39,7.5 3.64,4.06 7.44,7.97 11.38,11.73 2.12,2.03 5.48,1.95 7.51,-0.17 2.03,-2.12 1.95,-5.49 -0.17,-7.51l0 0zm-58 -102.1c-3.31,-14.57 -5.06,-29.73 -5.06,-45.31 0,-5.54 0.22,-11.02 0.65,-16.45 0.24,-2.92 -1.95,-5.49 -4.87,-5.72 -2.93,-0.23 -5.49,1.95 -5.72,4.88 -0.45,5.7 -0.69,11.47 -0.69,17.29 0,16.37 1.84,32.33 5.32,47.66 0.65,2.87 3.5,4.66 6.36,4.01 2.86,-0.65 4.66,-3.5 4.01,-6.36l0 0zm-2.58 -77.18c5.5,-35.07 19.95,-67.18 40.95,-93.91 1.81,-2.31 1.41,-5.65 -0.9,-7.47 -2.31,-1.81 -5.65,-1.4 -7.46,0.9 -22.08,28.12 -37.3,61.92 -43.09,98.83 -0.46,2.9 1.52,5.62 4.42,6.08 2.9,0.45 5.62,-1.53 6.08,-4.43l0 0zm86.1 -136.28c4.27,-2.92 8.64,-5.69 13.13,-8.29 2.54,-1.48 3.4,-4.73 1.93,-7.27 -1.47,-2.54 -4.73,-3.4 -7.26,-1.93 -4.72,2.74 -9.33,5.65 -13.81,8.73 -2.42,1.66 -3.04,4.97 -1.38,7.39 1.67,2.42 4.97,3.03 7.39,1.37l0 0zm111.85 -35.65c1.13,-0.02 2.26,-0.03 3.39,-0.03 20.15,0 39.6,2.92 57.97,8.36 2.81,0.84 5.77,-0.77 6.6,-3.58 0.84,-2.82 -0.77,-5.78 -3.58,-6.61 -19.34,-5.73 -39.81,-8.8 -60.99,-8.8 -1.19,0 -2.38,0.01 -3.57,0.03 -2.93,0.05 -5.27,2.46 -5.22,5.4 0.05,2.93 2.46,5.27 5.4,5.23l0 0zm76.08 13.31c6.44,2.46 12.74,5.24 18.85,8.31 2.62,1.32 5.81,0.27 7.13,-2.35 1.32,-2.63 0.27,-5.82 -2.36,-7.14 -6.43,-3.24 -13.05,-6.16 -19.83,-8.75 -2.75,-1.05 -5.82,0.33 -6.86,3.07 -1.05,2.74 0.32,5.82 3.07,6.86l0 0z"/>
   <path class="fil1" d="M1288.17 546.13c0,101.81 -82.53,184.34 -184.33,184.34 -101.81,0 -184.35,-82.53 -184.35,-184.34 0,-101.81 82.54,-184.34 184.35,-184.34 101.8,0 184.33,82.53 184.33,184.34z"/>
   <path class="fil1" d="M1267.41 424.49c12.28,16.5 22.12,34.9 29,54.7 0.96,2.77 3.99,4.24 6.77,3.27 2.77,-0.96 4.23,-3.99 3.27,-6.76 -7.24,-20.83 -17.6,-40.21 -30.52,-57.56 -1.75,-2.35 -5.08,-2.84 -7.43,-1.08 -2.36,1.75 -2.85,5.08 -1.09,7.43l0 0zm33.53 69.56c4.38,16.62 6.71,34.07 6.71,52.08 0,17.4 -2.18,34.29 -6.28,50.41 -0.72,2.84 0.99,5.74 3.84,6.46 2.84,0.72 5.74,-1 6.46,-3.84 4.32,-16.97 6.61,-34.74 6.61,-53.03 0,-18.93 -2.45,-37.3 -7.06,-54.79 -0.75,-2.84 -3.66,-4.53 -6.49,-3.79 -2.84,0.75 -4.54,3.66 -3.79,6.5zm-23.82 159.44c-2.74,4.41 -5.64,8.7 -8.7,12.88 -1.73,2.37 -1.22,5.69 1.15,7.43 2.37,1.73 5.7,1.22 7.43,-1.15 3.22,-4.4 6.27,-8.92 9.15,-13.56 1.54,-2.49 0.78,-5.77 -1.72,-7.31 -2.49,-1.55 -5.77,-0.78 -7.32,1.71l0.01 0zm-87.98 77.81c-18.51,8.54 -38.5,14.38 -59.5,17.03 -2.91,0.37 -4.98,3.03 -4.61,5.94 0.37,2.91 3.03,4.98 5.94,4.61 22.1,-2.79 43.15,-8.95 62.62,-17.93 2.67,-1.23 3.83,-4.39 2.6,-7.05 -1.23,-2.67 -4.39,-3.83 -7.05,-2.6l0 0zm-74.97 18.39c-3.43,0.18 -6.87,0.26 -10.33,0.26 -32.34,0 -62.89,-7.52 -90.04,-20.91 -2.64,-1.3 -5.82,-0.22 -7.12,2.41 -1.3,2.64 -0.22,5.82 2.42,7.12 28.56,14.09 60.74,22.01 94.74,22.01 3.64,0 7.26,-0.09 10.86,-0.27 2.93,-0.15 5.18,-2.64 5.04,-5.57 -0.15,-2.93 -2.64,-5.19 -5.57,-5.05l0 0zm-151.1 -56.15c-3.75,-3.58 -7.35,-7.3 -10.82,-11.15 -1.96,-2.19 -5.33,-2.37 -7.51,-0.4 -2.18,1.96 -2.36,5.32 -0.39,7.5 3.64,4.06 7.44,7.97 11.38,11.73 2.12,2.03 5.48,1.95 7.51,-0.17 2.03,-2.12 1.95,-5.49 -0.17,-7.51l0 0zm-58 -102.1c-3.31,-14.57 -5.06,-29.73 -5.06,-45.31 0,-5.54 0.22,-11.02 0.65,-16.45 0.24,-2.92 -1.95,-5.49 -4.87,-5.72 -2.93,-0.23 -5.49,1.95 -5.72,4.88 -0.46,5.7 -0.69,11.47 -0.69,17.29 0,16.37 1.84,32.33 5.32,47.66 0.65,2.87 3.5,4.66 6.36,4.01 2.86,-0.65 4.66,-3.5 4.01,-6.36l0 0zm-2.58 -77.18c5.51,-35.07 19.95,-67.18 40.95,-93.91 1.81,-2.31 1.41,-5.65 -0.9,-7.47 -2.31,-1.81 -5.65,-1.4 -7.46,0.9 -22.09,28.12 -37.3,61.92 -43.09,98.83 -0.46,2.9 1.52,5.62 4.42,6.08 2.9,0.45 5.62,-1.53 6.08,-4.43l0 0zm86.1 -136.28c4.26,-2.92 8.64,-5.69 13.13,-8.29 2.53,-1.48 3.4,-4.73 1.93,-7.27 -1.48,-2.54 -4.73,-3.4 -7.26,-1.93 -4.73,2.74 -9.33,5.65 -13.82,8.73 -2.41,1.66 -3.03,4.97 -1.37,7.39 1.67,2.42 4.98,3.03 7.39,1.37l0 0zm111.85 -35.65c1.13,-0.02 2.26,-0.03 3.4,-0.03 20.13,0 39.59,2.92 57.96,8.36 2.81,0.84 5.77,-0.77 6.6,-3.58 0.84,-2.82 -0.77,-5.78 -3.58,-6.61 -19.34,-5.73 -39.81,-8.8 -60.98,-8.8 -1.2,0 -2.39,0.01 -3.58,0.03 -2.93,0.05 -5.27,2.46 -5.22,5.4 0.04,2.93 2.46,5.27 5.4,5.23l0 0zm76.08 13.31c6.45,2.46 12.74,5.24 18.85,8.31 2.63,1.32 5.82,0.27 7.14,-2.35 1.32,-2.63 0.26,-5.82 -2.36,-7.14 -6.44,-3.24 -13.06,-6.16 -19.84,-8.75 -2.74,-1.05 -5.82,0.33 -6.87,3.07 -1.04,2.74 0.33,5.81 3.08,6.86l0 0z"/>
   <path class="fil2" d="M173.66 671.4c-0.9,0 -1.81,-0.35 -2.51,-1.04l-31.43 -31.43c-0.66,-0.67 -1.03,-1.57 -1.03,-2.51 0,-0.94 0.37,-1.84 1.03,-2.51l182.64 -182.63c0.66,-0.67 1.57,-1.04 2.51,-1.04 0.94,0 1.84,0.37 2.51,1.04l31.43 31.42c1.38,1.39 1.38,3.64 0,5.02l-182.64 182.64c-0.69,0.69 -1.6,1.04 -2.51,1.04z"/>
   <path class="fil3" d="M324.87 446.69c-1.82,0 -3.63,0.69 -5.02,2.08l-182.63 182.63c-2.77,2.77 -2.77,7.26 0,10.03l31.43 31.43c1.38,1.39 3.19,2.08 5.01,2.08 1.82,0 3.63,-0.69 5.02,-2.08l182.63 -182.63c2.77,-2.77 2.77,-7.27 0,-10.03l-31.43 -31.43c-1.38,-1.39 -3.19,-2.08 -5.01,-2.08zm0 7.09l31.43 31.43 -182.64 182.64 -31.43 -31.43 182.64 -182.64z"/>
   <polygon class="fil4" points="168.01,662.19 147.89,642.07 330.52,459.44 350.64,479.56 "/>
   <path class="fil5" d="M171.21 618.76c-1.05,-0.62 -2.11,-1.21 -3.2,-1.75l145.27 -145.26c0.6,1.02 1.24,2.03 1.9,3.03l-143.97 143.98z"/>
   <path class="fil2" d="M374.92 503.29c-18.2,0 -35.31,-7.09 -48.17,-19.95 -26.56,-26.56 -26.56,-69.79 0,-96.35 12.86,-12.87 29.98,-19.96 48.18,-19.96 18.2,0 35.3,7.09 48.16,19.96 3.33,3.32 6.34,7.02 8.92,10.99 0.77,1.17 0.77,2.68 0.01,3.86 -0.66,1.02 -1.79,1.62 -2.98,1.62l-0.55 -0.04 -35.63 -5.64 -20.18 39.61 31.43 31.44 30.11 -15.34c0.51,-0.25 1.07,-0.38 1.61,-0.38 0.84,0 1.68,0.3 2.34,0.88 1.09,0.95 1.49,2.48 1.01,3.85 -3.41,9.65 -8.82,18.23 -16.08,25.5 -12.87,12.86 -29.98,19.95 -48.18,19.95z"/>
   <path class="fil3" d="M374.93 363.49l-0.01 0c-19.14,0 -37.14,7.45 -50.68,20.99 -27.94,27.95 -27.94,73.42 0,101.36 13.54,13.54 31.54,21 50.68,21 19.15,0 37.15,-7.46 50.68,-21 7.56,-7.56 13.21,-16.47 16.8,-26.48 0.34,-0.83 0.53,-1.75 0.53,-2.7 0,-3.91 -3.15,-7.09 -7.05,-7.1l-0.05 0 -0.37 0.01c-1.07,0.06 -2.08,0.35 -2.97,0.83l-27.69 14.1 -27.79 -27.79 17.84 -35.02 33.08 5.23c0.37,0.06 0.74,0.09 1.12,0.09 2.37,0 4.63,-1.2 5.95,-3.24 1.52,-2.35 1.51,-5.38 -0.02,-7.73 -2.72,-4.17 -5.87,-8.07 -9.39,-11.57 -13.52,-13.53 -31.51,-20.98 -50.66,-20.98zm60.9 93.17l0.02 0 -0.02 0zm-60.9 -86.08c16.52,0 33.05,6.31 45.65,18.91 3.25,3.24 6.06,6.73 8.46,10.42l-38.17 -6.04 -22.53 44.21 35.09 35.08 32.4 -16.5c-3.11,8.82 -8.18,17.11 -15.24,24.16 -12.61,12.62 -29.14,18.92 -45.67,18.92 -16.52,0 -33.05,-6.3 -45.67,-18.92 -25.22,-25.22 -25.22,-66.1 0,-91.32 12.62,-12.61 29.15,-18.92 45.68,-18.92z"/>
   <path class="fil2" d="M374.92 503.29c-18.2,0 -35.31,-7.09 -48.17,-19.95 -26.56,-26.56 -26.56,-69.79 0,-96.35 12.86,-12.87 29.98,-19.96 48.18,-19.96 18.2,0 35.3,7.09 48.16,19.96 3.33,3.32 6.34,7.02 8.92,10.99 0.77,1.17 0.77,2.68 0.01,3.86 -0.66,1.02 -1.79,1.62 -2.98,1.62l-0.55 -0.04 -35.63 -5.64 -20.18 39.61 31.43 31.44 30.11 -15.34c0.51,-0.25 1.07,-0.38 1.61,-0.38 0.84,0 1.68,0.3 2.34,0.88 1.09,0.95 1.49,2.48 1.01,3.85 -3.41,9.65 -8.82,18.23 -16.08,25.5 -12.87,12.86 -29.98,19.95 -48.18,19.95z"/>
   <path class="fil3" d="M374.93 363.49l-0.01 0c-19.14,0 -37.14,7.45 -50.68,20.99 -27.94,27.95 -27.94,73.42 0,101.36 13.54,13.54 31.54,21 50.68,21 19.15,0 37.15,-7.46 50.68,-21 7.56,-7.56 13.21,-16.47 16.8,-26.48 0.34,-0.83 0.53,-1.75 0.53,-2.7 0,-3.91 -3.15,-7.09 -7.05,-7.1l-0.05 0 -0.37 0.01c-1.07,0.06 -2.08,0.35 -2.97,0.83l-27.69 14.1 -27.79 -27.79 17.84 -35.02 33.08 5.23c0.37,0.06 0.74,0.09 1.12,0.09 2.37,0 4.63,-1.2 5.95,-3.24 1.52,-2.35 1.51,-5.38 -0.02,-7.73 -2.72,-4.17 -5.87,-8.07 -9.39,-11.57 -13.52,-13.53 -31.51,-20.98 -50.66,-20.98zm60.9 93.17l0.02 0 -0.02 0zm-60.9 -86.08c16.52,0 33.05,6.31 45.65,18.91 3.25,3.24 6.06,6.73 8.46,10.42l-38.17 -6.04 -22.53 44.21 35.09 35.08 32.4 -16.5c-3.11,8.82 -8.18,17.11 -15.24,24.16 -12.61,12.62 -29.14,18.92 -45.67,18.92 -16.52,0 -33.05,-6.3 -45.67,-18.92 -25.22,-25.22 -25.22,-66.1 0,-91.32 12.62,-12.61 29.15,-18.92 45.68,-18.92z"/>
   <path class="fil6" d="M374.92 499.74c-16.52,0 -33.05,-6.3 -45.67,-18.92l0 0c-0.02,-0.02 -0.05,-0.05 -0.07,-0.07 -3.34,-3.35 -6.23,-6.97 -8.68,-10.79 -0.01,-0.01 -0.01,-0.02 -0.02,-0.03 0,-0.01 -0.01,-0.02 -0.02,-0.04 -0.02,-0.03 -0.04,-0.06 -0.06,-0.08l0 -0.01c-9.76,-15.34 -12.41,-33.9 -7.95,-50.99 -1.48,18.23 4.73,36.99 18.69,50.94 12.61,12.61 29.13,18.91 45.66,18.91 16.53,0 33.06,-6.3 45.67,-18.91 3.3,-3.31 6.16,-6.89 8.6,-10.67l4.76 -2.42c-3.11,8.82 -8.18,17.11 -15.24,24.16 -0.08,0.08 -0.15,0.15 -0.22,0.23 -0.37,0.36 -0.75,0.72 -1.12,1.08 -0.36,0.33 -0.72,0.67 -1.08,1 -0.25,0.22 -0.5,0.44 -0.75,0.66 -12.14,10.64 -27.32,15.95 -42.5,15.95z"/>
   <path class="fil7" d="M374.92 499.74c-16.53,0 -33.05,-6.3 -45.67,-18.92l0 0c12.62,12.62 29.15,18.92 45.67,18.92 15.18,0 30.36,-5.31 42.5,-15.95 -12.14,10.64 -27.32,15.95 -42.5,15.95zm43.25 -16.61c0.36,-0.33 0.72,-0.67 1.08,-1 -0.36,0.33 -0.72,0.67 -1.08,1zm2.2 -2.08c0.07,-0.08 0.14,-0.15 0.22,-0.23 7.06,-7.05 12.13,-15.34 15.24,-24.16l0 0c-3.11,8.82 -8.18,17.11 -15.24,24.16 -0.08,0.08 -0.15,0.15 -0.22,0.23zm-91.19 -0.3c-3.34,-3.35 -6.23,-6.97 -8.68,-10.79 2.45,3.82 5.34,7.44 8.68,10.79zm-8.7 -10.82c0,-0.01 -0.01,-0.02 -0.02,-0.04 0.01,0.02 0.02,0.03 0.02,0.04zm-0.08 -0.12l0 -0.01 0 0.01zm110.67 -10.73c0,0 0,0 0,0l4.76 -2.42 -4.76 2.42z"/>
   <path class="fil2" d="M142.43 720.83c-14.21,0 -27.56,-5.53 -37.61,-15.58 -2.61,-2.61 -4.95,-5.5 -6.96,-8.57 -0.77,-1.17 -0.77,-2.69 -0.01,-3.87 0.66,-1.02 1.79,-1.61 2.98,-1.61l0.55 0.04 26.79 4.24 14.98 -29.37 -23.32 -23.32 -22.6 11.52c-0.52,0.26 -1.07,0.38 -1.62,0.38 -0.84,0 -1.67,-0.3 -2.33,-0.87 -1.09,-0.96 -1.5,-2.48 -1.01,-3.85 2.64,-7.52 6.86,-14.22 12.55,-19.91 10.04,-10.05 23.4,-15.58 37.6,-15.58 14.2,0 27.56,5.53 37.6,15.58 10.04,10.04 15.58,23.4 15.58,37.6 0,14.21 -5.53,27.56 -15.57,37.6 -10.05,10.04 -23.4,15.57 -37.6,15.57z"/>
   <path class="fil3" d="M142.42 610.94c-15.15,0 -29.4,5.9 -40.1,16.61 -6.07,6.07 -10.58,13.22 -13.4,21.24 -0.96,2.74 -0.16,5.79 2.02,7.69 1.32,1.16 2.99,1.76 4.68,1.76 1.09,0 2.2,-0.25 3.21,-0.77l20.31 -10.35 19.67 19.67 -12.63 24.79 -24.24 -3.85c-0.37,-0.05 -0.74,-0.08 -1.11,-0.08 -2.38,0 -4.64,1.2 -5.95,3.24 -1.53,2.35 -1.52,5.38 0.01,7.73 2.14,3.28 4.63,6.35 7.43,9.14 10.71,10.72 24.96,16.62 40.11,16.62 15.15,0 29.39,-5.9 40.1,-16.61 10.72,-10.72 16.62,-24.96 16.62,-40.11 0,-15.15 -5.91,-29.4 -16.63,-40.11 -10.7,-10.71 -24.95,-16.61 -40.1,-16.61zm0 7.09c12.7,0 25.4,4.85 35.09,14.53 19.39,19.39 19.39,50.81 0.01,70.19 -9.69,9.69 -22.39,14.54 -35.09,14.54 -12.7,0 -25.41,-4.85 -35.1,-14.55 -2.49,-2.48 -4.65,-5.17 -6.5,-8l29.34 4.65 17.31 -33.97 -26.96 -26.96 -24.91 12.69c2.39,-6.79 6.3,-13.16 11.72,-18.59 9.69,-9.68 22.39,-14.53 35.09,-14.53z"/>
   <path class="fil6" d="M142.43 717.28c-6.45,0 -12.9,-1.25 -18.96,-3.74 -5.87,-2.43 -11.37,-6.03 -16.14,-10.8 -2.49,-2.48 -4.65,-5.17 -6.5,-8l0 0 9.57 1.52c8.74,6.49 19.13,9.73 29.53,9.73 12.69,0 25.39,-4.84 35.08,-14.53 10.99,-10.99 15.74,-25.86 14.26,-40.21 6.09,17.43 2.18,37.57 -11.75,51.5l0 0c-2.27,2.27 -4.71,4.27 -7.27,6.01 -8.37,5.68 -18.09,8.53 -27.82,8.52z"/>
   <path class="fil7" d="M123.47 713.54c-5.87,-2.43 -11.37,-6.03 -16.14,-10.8 -2.49,-2.48 -4.65,-5.17 -6.5,-8l0 0c1.85,2.83 4.01,5.52 6.5,8 4.77,4.77 10.27,8.37 16.14,10.8zm46.78 -4.78c2.56,-1.74 5,-3.74 7.27,-6.01l0 0c-2.27,2.27 -4.71,4.27 -7.27,6.01zm-59.85 -12.5l-9.57 -1.52 9.56 1.51c0,0 0,0.01 0.01,0.01z"/>
   <path class="fil5" d="M319.49 445.21c0,0 -10.42,-32.56 21.01,-56.73 12.66,-9.74 25.44,-11.9 34.29,-11.9 7.06,0 11.63,1.37 11.63,1.37 0,0 -21.41,6.85 -41.71,25.39 -19.43,17.77 -25.22,41.87 -25.22,41.87z"/>
   <path class="fil5" d="M181.09 651.56c0,0 -10.76,-11.77 -25.36,-18.12 -9.33,-4.06 -22.45,-4.71 -29.94,-4.71 -3.56,0 -5.84,0.15 -5.84,0.15 0,0 13.21,-5.81 20.98,-5.81 0.42,0 0.82,0.01 1.21,0.05 12.24,1.15 20.52,4.45 28.73,10.41 12.17,8.84 10.22,18.03 10.22,18.03z"/>
   <path class="fil2" d="M1102.9 516.11c-17.1,0 -31.02,13.91 -31.02,31.02 0,17.11 13.92,31.02 31.02,31.02 17.12,0 31.03,-13.91 31.03,-31.02 0,-17.11 -13.91,-31.02 -31.03,-31.02zm-23.31 163.88c-2.52,-0.01 -4.56,-2.05 -4.56,-4.57l0 -32.92c-6.47,-1.88 -12.71,-4.41 -18.62,-7.53l-23.55 23.56c-0.86,0.85 -2.02,1.33 -3.23,1.33 -1.2,0 -2.36,-0.48 -3.22,-1.33l-33.94 -33.94c-0.86,-0.85 -1.34,-2.01 -1.34,-3.22 0,-1.21 0.48,-2.38 1.34,-3.23l23.28 -23.28c-3.21,-5.87 -5.84,-12.06 -7.81,-18.49l-33.34 0c-2.52,0 -4.56,-2.04 -4.56,-4.56l0 -47.99c0,-2.52 2.04,-4.57 4.56,-4.57l32.93 0c1.89,-6.48 4.41,-12.71 7.53,-18.6l-23.56 -23.57c-1.78,-1.77 -1.78,-4.66 0,-6.44l33.94 -33.95c0.86,-0.85 2.01,-1.33 3.22,-1.33 1.21,0 2.37,0.48 3.23,1.33l23.28 23.29c5.88,-3.22 12.08,-5.84 18.49,-7.81l0 -33.34c0,-2.52 2.05,-4.57 4.57,-4.57l47.98 0c2.52,0 4.57,2.05 4.57,4.57l0 32.93c6.47,1.88 12.71,4.41 18.61,7.53l23.55 -23.56c0.86,-0.85 2.02,-1.33 3.23,-1.33 1.21,0 2.37,0.48 3.23,1.33l33.93 33.94c0.85,0.85 1.33,2.01 1.33,3.22 0,1.21 -0.48,2.37 -1.33,3.23l-23.28 23.28c3.22,5.86 5.84,12.06 7.82,18.49l33.33 0c1.21,0 2.37,0.48 3.23,1.33 0.85,0.86 1.33,2.02 1.33,3.23l0 47.99c0,2.52 -2.04,4.56 -4.57,4.56l-32.91 0c-1.89,6.48 -4.41,12.71 -7.53,18.62l23.55 23.56c1.78,1.78 1.78,4.67 0,6.45l-33.93 33.93c-0.9,0.89 -2.07,1.33 -3.23,1.33 -1.17,0 -2.34,-0.44 -3.23,-1.34l-23.28 -23.27c-5.88,3.22 -12.07,5.84 -18.49,7.82l0 33.33c0,1.21 -0.48,2.37 -1.33,3.23 -0.86,0.85 -2.02,1.33 -3.23,1.33l-47.99 0z"/>
   <path class="fil3" d="M1102.9 573.59c-14.59,0 -26.46,-11.87 -26.46,-26.46 0,-14.59 11.87,-26.46 26.46,-26.46 14.59,0 26.47,11.87 26.47,26.46 0,14.59 -11.88,26.46 -26.47,26.46zm23.31 -163.88l-47.98 0c-5.04,0 -9.12,4.08 -9.12,9.12l0 30.02c-4.49,1.54 -8.86,3.39 -13.09,5.53l-20.91 -20.91c-1.71,-1.71 -4.02,-2.67 -6.45,-2.67 -2.42,0 -4.74,0.96 -6.45,2.67l-33.93 33.94c-3.56,3.56 -3.56,9.34 0,12.9l21.21 21.22c-2.06,4.24 -3.84,8.64 -5.32,13.16l-29.57 0c-5.04,0 -9.12,4.09 -9.12,9.13l0 47.99c0,5.04 4.08,9.12 9.12,9.12l30.02 0c1.55,4.49 3.4,8.86 5.53,13.08l-20.91 20.9c-1.71,1.72 -2.67,4.04 -2.67,6.46 0,2.41 0.96,4.74 2.67,6.45l33.94 33.93c1.71,1.71 4.04,2.67 6.45,2.67l0.01 0c2.42,0 4.74,-0.96 6.45,-2.67l21.21 -21.22c4.25,2.07 8.65,3.86 13.17,5.34l0 29.55c0,5.04 4.08,9.13 9.12,9.13l47.99 0c2.42,0 4.74,-0.96 6.45,-2.67 1.72,-1.71 2.68,-4.03 2.67,-6.45l0 -30.02c4.48,-1.54 8.86,-3.39 13.09,-5.53l20.9 20.9c1.78,1.78 4.11,2.67 6.45,2.67 2.33,0 4.67,-0.89 6.45,-2.67l33.93 -33.93c3.57,-3.56 3.57,-9.34 0,-12.9l-21.21 -21.22c2.07,-4.24 3.85,-8.65 5.33,-13.17l29.55 0c5.04,0 9.13,-4.08 9.13,-9.12l0 -47.59 0.01 -0.4c0,-5.04 -4.07,-9.12 -9.11,-9.12l-30.04 0c-1.55,-4.49 -3.39,-8.86 -5.53,-13.09l20.9 -20.9c3.57,-3.56 3.57,-9.34 0,-12.9l-33.93 -33.93c-1.71,-1.71 -4.03,-2.68 -6.45,-2.68 -2.42,0 -4.74,0.97 -6.45,2.68l-21.21 21.22c-4.25,-2.08 -8.65,-3.86 -13.18,-5.34l0 -29.56c0,-5.04 -4.08,-9.12 -9.12,-9.12zm104.99 112.74l0.02 0 -0.02 0zm-128.3 60.26c19.66,0 35.59,-15.93 35.59,-35.58 0,-19.66 -15.93,-35.59 -35.59,-35.59 -19.65,0 -35.58,15.93 -35.58,35.59 0,19.65 15.93,35.58 35.58,35.58zm23.31 -163.88l0 36.42c8.51,2.15 16.56,5.41 23.98,9.69l25.98 -25.98 33.93 33.93 -25.74 25.75c4.39,7.35 7.79,15.34 10.08,23.81l36.76 0 -0.01 47.99 -36.4 0c-2.15,8.51 -5.42,16.56 -9.69,23.98l25.97 25.98 -33.93 33.93 -25.75 -25.75c-7.36,4.4 -15.34,7.81 -23.82,10.08l0.01 36.77 -47.99 -0.01 0 -36.4c-8.51,-2.16 -16.56,-5.42 -23.98,-9.71l-25.98 25.99 -33.94 -33.93 25.76 -25.75c-4.39,-7.36 -7.8,-15.34 -10.08,-23.81l-36.77 0 0 -47.99 36.42 0c2.15,-8.51 5.42,-16.56 9.7,-23.97l-25.99 -25.99 33.93 -33.94 25.75 25.75c7.36,-4.39 15.35,-7.79 23.82,-10.07l0 -36.77 47.98 0z"/>
   <path class="fil6" d="M1102.24 634.93c-27.45,0 -51.98,-12.51 -68.21,-32.13 14.57,10.57 32.44,16.88 51.83,16.88 48.88,0 88.49,-39.62 88.49,-88.49 0,-21.42 -7.6,-41.07 -20.27,-56.37 22.17,16.08 36.66,42.13 36.66,71.62 0,48.87 -39.63,88.49 -88.5,88.49z"/>
   <path class="fil6" d="M1076.6 571.1c-9.03,-6.58 -16.24,-17.21 -16.24,-29.23 0,-19.98 16.21,-36.19 36.19,-36.19 11.23,0 21.26,5.11 27.9,13.12 -5.99,-4.55 -13.45,-7.26 -21.55,-7.26 -15.51,0 -28.71,9.93 -33.58,23.79 -1.46,3.98 -2.26,8.29 -2.26,12.77 0,4.49 1.16,8.78 2.99,12.74 1.59,3.8 3.82,7.26 6.55,10.26z"/>
   <path class="fil7" d="M1076.67 571.15c-0.02,-0.02 -0.05,-0.04 -0.07,-0.05 -2.73,-3 -4.96,-6.46 -6.55,-10.26 1.75,3.78 4.1,7.25 6.62,10.31zm-7.35 -35.82c4.87,-13.86 18.07,-23.79 33.58,-23.79 8.1,0 15.56,2.71 21.55,7.26 0,0 0,0.01 0.01,0.02 -5.97,-4.33 -13.64,-7.28 -21.56,-7.28 -15.51,0 -28.52,9.98 -33.58,23.79z"/>
   <path class="fil5" d="M1039.09 556.84c-3.41,0 -7.71,-6.87 -7.71,-19.73 0,-34.41 27.88,-62.29 62.29,-62.29 18.84,0 24.91,10.61 11.79,10.61 -34.4,0 -62.29,27.89 -62.29,62.29 0,6.17 -1.85,9.13 -4.08,9.12z"/>
   <path class="fil8" d="M537.07 302.22l0.2 -6.66c2.34,-79.84 66.75,-142.38 146.63,-142.38 79.88,0 144.28,62.54 146.62,142.38l0.2 6.66 -293.65 0z"/>
   <path class="fil3" d="M683.9 146.7c-40.13,0 -78.07,15.41 -106.81,43.39 -28.69,27.92 -45.13,65.31 -46.3,105.28l-0.4 13.33 307 0 -0.39 -13.33c-1.17,-39.97 -17.61,-77.36 -46.3,-105.28 -28.75,-27.98 -66.68,-43.39 -106.8,-43.39zm0 12.96c76.05,0 137.93,60.56 140.15,136.09l-280.31 0c2.22,-75.53 64.09,-136.09 140.16,-136.09z"/>
   <path class="fil9" d="M822.17 276.59l-95.19 0 -0.31 -2.92 59.43 0c-1.23,-42.16 -21.07,-79.65 -51.57,-104.55 45.41,17.6 79.38,58.17 87.64,107.47z"/>
   <path class="fil9" d="M640.81 276.59l-95.17 0c0.16,-0.98 0.34,-1.95 0.52,-2.92l94.96 0 -0.31 2.92z"/>
   <polygon class="fil8" points="644.47,302.06 662.65,130.01 705.13,130.01 723.33,302.06 "/>
   <path class="fil3" d="M710.81 123.69l-53.84 0 -1.19 11.3 -16.85 159.43 -1.48 13.94 92.89 0 -1.48 -13.94 -16.86 -159.44 -1.19 -11.29zm-11.35 12.62l16.86 159.44 -64.84 0 16.84 -159.44 31.14 0z"/>
   <polygon class="fil9" points="714.29,276.59 653.5,276.59 653.59,275.8 698.07,275.8 690.7,136.31 699.46,136.31 "/>
   <polygon class="fil10" points="653.5,276.59 651.48,276.59 651.48,275.8 653.59,275.8 "/>
   <polygon class="fil11" points="683.9,268.13 661.25,268.13 673.02,143.12 683.9,143.12 "/>
   <path class="fil8" d="M537.97 343.56c-11.55,0 -20.94,-9.4 -20.94,-20.95l0 -18.59c0,-11.56 9.39,-20.96 20.94,-20.96l291.84 0c11.56,0 20.96,9.4 20.96,20.96l0 18.59c0,11.55 -9.4,20.95 -20.96,20.95l-291.84 0z"/>
   <path class="fil3" d="M829.81 276.59l-291.84 0c-15.12,0 -27.43,12.3 -27.43,27.43l0 18.59c0,15.12 12.31,27.43 27.43,27.43l291.84 0c15.13,0 27.44,-12.31 27.44,-27.43l0 -18.59c0,-15.13 -12.31,-27.43 -27.44,-27.43zm0 12.96c7.98,0 14.48,6.49 14.48,14.47l0 18.59c0,7.98 -6.5,14.47 -14.48,14.47l-291.84 0c-7.98,0 -14.46,-6.49 -14.46,-14.47l0 -18.59c0,-7.98 6.48,-14.47 14.46,-14.47l291.84 0z"/>
   <path class="fil9" d="M829.81 337.08l-291.84 0c-0.01,0 -0.03,0 -0.04,0 -0.01,0 -0.01,0 -0.02,0 -0.01,0 -0.02,0 -0.03,0 0,0 -0.01,0 -0.02,0 0,0 -0.01,0 -0.02,0 -0.01,0 -0.02,0 -0.03,0 0,0 -0.01,0 -0.02,0 0,0 -0.01,0 -0.02,0 -0.01,0 -0.01,0 -0.02,0 -0.01,0 -0.02,0 -0.03,0 0,0 -0.01,0 -0.01,0 -0.01,0 -0.02,-0.01 -0.03,-0.01 -0.01,0 -0.01,0 -0.02,0 0,0 -0.02,0 -0.03,0 0,0 0,0 -0.01,0 -7.26,-0.17 -13.16,-5.75 -13.96,-12.85 1.11,0.27 2.25,0.46 3.44,0.46l291.84 0c7.98,0 14.48,-6.5 14.48,-14.48l0 -18.59c0,-0.55 -0.1,-1.07 -0.17,-1.61 6.2,1.53 10.85,7.01 11.03,13.62 0,0 0,0 0,0 0,0.01 0,0.02 0,0.03 0,0.01 0,0.01 0,0.01 0,0.01 0,0.03 0,0.03 0,0.01 0,0.01 0,0.01 0,0.03 0.01,0.05 0.01,0.07 0,0 0,0 0,0.01 0,0 0,0.01 0,0.02 0,0.01 0,0.01 0,0.02 0,0.01 0,0.02 0,0.02 0,0.01 0,0.01 0,0.03 0,0 0,0.01 0,0.01 0,0.01 0,0.02 0,0.03 0,0 0,0.01 0,0.02 0,0.01 0,0.02 0,0.03 0,0 0,0 0,0.01 0,0.01 0,0.03 0,0.05l0 18.59c0,7.98 -6.5,14.47 -14.48,14.47z"/>
   <path class="fil10" d="M829.81 337.08l-291.84 0c-0.01,0 -0.03,0 -0.04,0 0.01,0 0.03,0 0.04,0l291.84 0c7.98,0 14.48,-6.49 14.48,-14.47l0 -18.59 0 18.59c0,7.98 -6.5,14.47 -14.48,14.47zm-291.9 0c-0.01,0 -0.02,0 -0.03,0 0.01,0 0.02,0 0.03,0zm-0.05 0c0,0 -0.01,0 -0.02,0 0.01,0 0.02,0 0.02,0zm-0.05 0c0,0 -0.01,0 -0.02,0 0.01,0 0.02,0 0.02,0zm-0.04 0c-0.01,0 -0.01,0 -0.02,0 0.01,0 0.01,0 0.02,0zm-0.05 0c0,0 -0.01,0 -0.01,0 0,0 0.01,0 0.01,0zm-0.04 -0.01c-0.01,0 -0.01,0 -0.02,0 0.01,0 0.01,0 0.02,0zm-0.05 0c0,0 0,0 -0.01,0 0.01,0 0.01,0 0.01,0zm306.66 -33.05c0,-0.02 0,-0.04 0,-0.05 0,0.01 0,0.03 0,0.05zm0 -0.06c0,-0.01 0,-0.02 0,-0.03 0,0.01 0,0.02 0,0.03zm0 -0.05c0,-0.01 0,-0.02 0,-0.03 0,0.01 0,0.02 0,0.03zm0 -0.04c0,-0.02 0,-0.02 0,-0.03 0,0.01 0,0.01 0,0.03zm0 -0.05c0,-0.01 0,-0.01 0,-0.02 0,0.01 0,0.01 0,0.02zm0 -0.04c0,-0.01 0,-0.01 0,-0.01 0,0 0,0 0,0.01zm-0.01 -0.08c0,0 0,0 0,-0.01 0,0.01 0,0.01 0,0.01zm0 -0.04c0,0 0,0 0,-0.01 0,0.01 0,0.01 0,0.01zm0 -0.04c0,0 0,0 0,0 0,0 0,0 0,0z"/>
   <path class="fil11" d="M693.69 311.07l-155.4 0c-4.24,0 -7.66,-3.43 -7.66,-7.66 0,-4.23 3.42,-7.66 7.66,-7.66l155.4 0c4.24,0 7.67,3.43 7.67,7.66 0,4.23 -3.43,7.66 -7.67,7.66z"/>
   <path class="fil11" d="M569.99 262.67c-0.81,0 -1.64,-0.14 -2.46,-0.45 -3.66,-1.35 -5.53,-5.42 -4.17,-9.09 21.85,-58.95 66.77,-70.4 68.67,-70.86 0.56,-0.14 1.12,-0.2 1.67,-0.2 3.2,0 6.09,2.18 6.87,5.42 0.92,3.79 -1.41,7.61 -5.19,8.53 -1.61,0.4 -39.64,10.47 -58.75,62.03 -1.05,2.85 -3.76,4.62 -6.64,4.62z"/>
   <path class="fil1" d="M841.89 1407.3l29.76 -432.54c0,-15.56 -11.75,-28.31 -33.98,-36.89 -26.54,-10.25 -106.81,-32.7 -110.21,-33.65l-0.48 -0.13 -82.2 0 -0.46 0.13c-3.17,0.86 -77.56,21.25 -100.53,33.85 -24.71,13.56 -35.25,22.68 -35.24,30.77l30.46 438.46 302.88 0z"/>
   <path class="fil3" d="M535.42 1407.3l7.19 0 -30.48 -438.7c0,-7.84 18.22,-19.07 33.38,-27.39 22.86,-12.53 99.74,-33.53 99.74,-33.53l81.24 0c0,0 83.19,23.23 109.88,33.53 16.22,6.25 31.7,16.89 31.7,33.55l-29.78 432.54 7.21 0 29.73 -432.05 0.01 -0.24 0 -0.25c0,-11.97 -6.29,-28.67 -36.28,-40.24 -26.7,-10.31 -107.13,-32.8 -110.54,-33.76l-0.96 -0.26 -83.17 0 -0.92 0.26c-3.17,0.86 -77.97,21.36 -101.31,34.17 -26.71,14.64 -37.1,24.09 -37.1,33.67l0 0.24 0.01 0.25 30.45 438.21z"/>
   <path class="fil12" d="M685.1 976.02c-16.92,-1.01 -43.6,-55.84 -48.78,-66.81l-0.39 -0.86 8.14 -109.64 71.7 -0.72 8.77 109.18 -0.13 0.56c-2.77,11.41 -17.63,68.31 -38.6,68.31l-0.71 -0.02z"/>
   <path class="fil3" d="M719.08 794.37l-6.69 0.07 -65.06 0.66 -6.6 0.05 -0.48 6.58 -7.83 105.41 -0.14 1.88 0.81 1.71c0.3,0.67 7.77,16.45 17.3,32.62 18.52,31.41 28.16,35.87 34.49,36.25 0.32,0.02 0.62,0.03 0.93,0.03 11.54,0 21.54,-11.88 31.45,-37.36 6.48,-16.64 10.47,-33 10.63,-33.7l0.28 -1.11 -0.1 -1.15 -8.45 -105.28 -0.54 -6.66zm-6.62 7.24l8.46 105.28c0,0 -15.9,65.56 -35.11,65.56l-0.49 -0.01c-15.66,-0.93 -45.75,-64.76 -45.75,-64.76l7.82 -105.41 65.07 -0.66z"/>
   <path class="fil13" d="M713.76 899.64c-54.79,0 -99.89,-41.2 -104.9,-95.84l-9.45 -103.09c-2.58,-28.06 5.94,-55.44 23.95,-77.1 18.01,-21.65 43.39,-35 71.45,-37.56 3.24,-0.3 6.51,-0.45 9.75,-0.45 54.8,0 99.9,41.2 104.9,95.84l9.46 103.1c2.57,28.05 -5.93,55.42 -23.95,77.08 -18.02,21.66 -43.39,35.01 -71.44,37.57 -3.25,0.3 -6.53,0.45 -9.76,0.45l-0.01 0z"/>
   <path class="fil3" d="M704.56 582.01c-3.35,0 -6.73,0.16 -10.07,0.46 -29.02,2.66 -55.26,16.45 -73.89,38.85 -18.63,22.39 -27.43,50.7 -24.77,79.71l9.46 103.11c2.5,27.25 15.03,52.38 35.28,70.76 20.13,18.27 46.12,28.32 73.19,28.32 3.35,0 6.75,-0.15 10.09,-0.45 29.02,-2.66 55.24,-16.46 73.88,-38.85 18.62,-22.4 27.43,-50.7 24.76,-79.71l-9.45 -103.1c-2.5,-27.25 -15.04,-52.39 -35.29,-70.77 -20.12,-18.27 -46.11,-28.33 -73.19,-28.33zm0 7.17c52.06,0 96.48,39.72 101.33,92.59l9.45 103.1c5.15,56.02 -36.11,105.61 -92.14,110.75 -3.17,0.29 -6.32,0.43 -9.44,0.43 -52.06,0 -96.48,-39.72 -101.32,-92.57l-9.46 -103.1c-5.13,-56.04 36.11,-105.63 92.15,-110.76 3.17,-0.3 6.32,-0.44 9.43,-0.44z"/>
   <path class="fil12" d="M695.13 589.62c4.78,-0.44 9.48,-0.43 14.15,-0.2 6.75,55.89 -8.77,116.12 -40.82,169.94 -27.34,40.46 0.41,102.38 48.89,136.5 -53.59,1.85 -99.95,-38.32 -104.91,-92.38l-9.46 -103.1c-5.13,-56.04 36.11,-105.63 92.15,-110.76z"/>
   <path class="fil14" d="M594.08 770.45c-0.59,0 -1.18,-0.14 -1.71,-0.43 -0.91,-0.5 -1.57,-1.36 -1.79,-2.38 -0.6,-2.68 -14.63,-66.06 -11.08,-93.35 8.35,-64.11 55.86,-108.88 115.53,-108.88 0.66,0 1.33,0 1.98,0.01 38.41,0.68 53.79,2.72 73.74,7.06 0.67,0.14 1.27,0.48 1.76,0.97 22.46,22.4 33.67,57.87 30,94.87 -0.13,1.45 -1.14,2.67 -2.54,3.09 -14.15,4.18 -31.8,6.3 -52.45,6.3l-0.01 0c-25.12,0 -48.44,-3.08 -60.97,-4.73 -2.29,-0.3 -4.39,-0.57 -5.89,-0.75 -24.32,74.49 -82.8,97.06 -85.32,97.99 -0.39,0.15 -0.83,0.23 -1.25,0.23z"/>
   <path class="fil3" d="M695.03 561.82c-61.53,0 -110.49,46.06 -119.08,112.01 -3.64,27.91 10.52,91.89 11.14,94.6 0.44,2.02 1.75,3.75 3.57,4.74 1.06,0.58 2.24,0.86 3.42,0.86 0.86,0 1.7,-0.14 2.51,-0.44 2.54,-0.95 61.14,-23.57 86.54,-97.44 0.93,0.13 1.94,0.26 2.94,0.39 12.61,1.66 36.09,4.76 61.44,4.76 20.99,0 39,-2.17 53.47,-6.45 2.81,-0.83 4.82,-3.27 5.11,-6.18 3.76,-38.06 -7.83,-74.6 -31.03,-97.76 -0.98,-0.97 -2.21,-1.64 -3.56,-1.93 -22.63,-4.93 -39.32,-6.53 -74.41,-7.14 -0.7,-0.01 -1.38,-0.02 -2.06,-0.02zm0 7.17c0.64,0 1.29,0.01 1.92,0.02 36.5,0.64 52.33,2.47 73.03,6.98 22.72,22.66 32.38,57.57 28.97,91.98 -15.67,4.63 -33.93,6.15 -51.44,6.15 -33.72,0 -64.67,-5.66 -68.95,-5.66l-0.5 0.09c-23.54,75.77 -83.98,98.32 -83.98,98.32 0,0 -14.52,-65.14 -11.02,-92.11 8.44,-64.79 55.91,-105.77 111.97,-105.77z"/>
   <path class="fil12" d="M626.29 789.46c-3.72,3.04 -8.31,5.14 -13.42,5.83 -14.48,1.94 -27.77,-8.23 -29.61,-22.72 -1.79,-14.47 8.53,-27.83 22.99,-29.71 8.71,-1.18 16.96,1.99 22.57,7.83l-2.53 38.77z"/>
   <path class="fil3" d="M626.29 789.46c0,0 -0.36,0.33 -1.02,0.96 -0.68,0.61 -1.53,1.61 -3.04,2.52 -1.42,1.07 -3.31,2.04 -5.6,2.97 -1.21,0.35 -2.35,0.77 -3.86,1.12 -1.3,0.24 -2.62,0.47 -4.29,0.51 -3.17,0.12 -6.56,-0.26 -10.01,-1.48 -3.43,-1.2 -6.88,-3.12 -9.81,-5.9 -2.92,-2.74 -5.49,-6.2 -7.04,-10.19 -0.82,-1.98 -1.36,-4.08 -1.72,-6.21l-0.07 -0.4 -0.04 -0.2 -0.02 -0.1 -0.03 -0.28 -0.06 -0.72 -0.12 -1.43c-0.09,-0.94 0,-2.24 0,-3.35 0.29,-4.39 1.66,-8.6 3.73,-12.32 2.05,-3.76 5,-6.84 8.22,-9.23 3.23,-2.41 6.89,-3.92 10.44,-4.7 0.88,-0.24 1.76,-0.34 2.63,-0.46l1.29 -0.16c0.68,-0.05 0.87,-0.01 1.33,-0.03 0.77,0.02 1.52,-0.01 2.3,0.03 0.84,0.09 1.67,0.17 2.47,0.26 1.6,0.18 2.99,0.62 4.35,0.98 1.3,0.55 2.58,0.9 3.65,1.54 2.22,1.09 3.93,2.39 5.23,3.53 0.63,0.59 1.18,1.12 1.67,1.58 0.42,0.51 0.78,0.96 1.07,1.31 0.58,0.71 0.88,1.08 0.88,1.08 0,0 -0.4,-0.28 -1.14,-0.79 -0.37,-0.26 -0.83,-0.57 -1.36,-0.94 -0.56,-0.31 -1.21,-0.67 -1.93,-1.07 -1.45,-0.76 -3.29,-1.54 -5.42,-2.14 -2.13,-0.62 -4.66,-0.97 -7.25,-0.97 -0.63,0.03 -1.27,0.05 -1.93,0.07 -0.7,0.07 -1.49,0.21 -2.24,0.33l-1.02 0.15 -1.06 0.26c-0.7,0.17 -1.42,0.33 -2.12,0.61 -2.8,0.95 -5.52,2.51 -7.96,4.53 -2.45,2.02 -4.45,4.66 -6.01,7.54 -1.55,2.89 -2.52,6.18 -2.66,9.46 0,0.81 -0.13,1.42 -0.07,2.39l0.09 1.44 0.05 0.71 0 0.05c-0.04,-0.37 -0.02,-0.09 -0.02,-0.16l0.02 0.08 0.03 0.15 0.04 0.31c0.24,1.64 0.62,3.25 1.22,4.78 1.15,3.05 2.82,5.9 5.01,8.19 2.19,2.29 4.71,4.18 7.39,5.44 2.67,1.26 5.49,2.02 8.06,2.33 1.21,0.2 2.63,0.14 3.94,0.15 1.08,-0.05 2.36,-0.23 3.44,-0.32 2.17,-0.47 4.11,-0.9 5.6,-1.55 1.54,-0.52 2.73,-1.21 3.53,-1.62 0.8,-0.42 1.24,-0.64 1.24,-0.64z"/>
   <path class="fil15" d="M749.44 832.54c-7.13,0 -14.8,-1.19 -22.55,-4.39 -1.37,-0.57 -2.02,-2.13 -1.45,-3.51 0.56,-1.36 2.14,-2.01 3.5,-1.44 26.87,11.09 53.8,-4.85 54.07,-5.01 1.26,-0.76 2.91,-0.35 3.68,0.91 0.76,1.27 0.35,2.92 -0.92,3.69 -0.87,0.53 -16.46,9.75 -36.33,9.75z"/>
   <path class="fil15" d="M756.01 794.69c-0.92,0 -1.9,-0.04 -2.92,-0.12 -1.48,-0.12 -2.58,-1.4 -2.46,-2.88 0.11,-1.47 1.4,-2.54 2.87,-2.46 5.49,0.43 9.1,-0.45 10.14,-2.44 2.1,-3.96 -3.55,-13.18 -6.61,-17.03 -0.93,-1.15 -0.74,-2.83 0.41,-3.76 1.16,-0.92 2.85,-0.73 3.78,0.43 1.18,1.48 11.45,14.76 7.16,22.87 -1.89,3.58 -6.05,5.39 -12.37,5.39z"/>
   <path class="fil16" d="M758.77 746.02c-19.87,0 -39.24,-4.27 -57.56,-12.69 -6.59,-3.02 -13.95,-7.73 -21.74,-12.72 -13.23,-8.46 -28.22,-18.06 -44.63,-23.01 -7.65,-2.32 -7.82,-7.07 -7.53,-8.99 1.85,-12.52 40.14,-27.2 58.66,-27.2 10.35,0 14.24,3.98 15.63,7.67l125.03 5.8c0.79,0.03 1.54,0.32 2.14,0.83 0.08,0.06 9.98,7.96 37.55,13.84 5.85,1.25 8.98,3.74 9.3,7.38 0.23,2.5 0.9,10.06 -34.33,24.54 -3.84,2.65 -37.06,24.55 -82.52,24.55z"/>
   <path class="fil3" d="M685.97 657.82c-18.03,0 -59.9,14.64 -62.21,30.26 -0.33,2.23 -0.59,9.73 10.04,12.94 15.94,4.82 30.7,14.28 43.73,22.61 7.91,5.06 15.37,9.84 22.19,12.96 18.8,8.63 38.66,13.01 59.05,13.01 45.38,0 78.91,-21.36 84.24,-24.95 6.63,-2.74 15.76,-6.83 23.04,-11.28 6.46,-3.95 13.8,-9.43 13.15,-16.75 -0.33,-3.71 -2.7,-8.55 -12.13,-10.58 -26.41,-5.63 -35.97,-13.07 -36.06,-13.14 -1.21,-1.01 -2.65,-1.53 -4.22,-1.61l-122.85 -5.69c-4.3,-7.11 -14.4,-7.78 -17.97,-7.78zm153.58 60.49l0.02 0 -0.02 0zm-153.58 -53.32c7.26,0 12.36,2.14 12.74,7.55l127.76 5.92c0,0 9.99,8.38 39.09,14.6 17.54,3.75 -3.6,16.08 -26.02,25.25l0.01 0c0,0 -34.04,24.12 -80.78,24.12 -17.3,0 -36.35,-3.3 -56.06,-12.36 -17.21,-7.89 -40.04,-27.81 -66.83,-35.91 -20.51,-6.21 26.33,-29.16 50.09,-29.17z"/>
   <path class="fil17" d="M758.77 742.43c-17.3,0 -36.35,-3.31 -56.06,-12.36l0 0c-10.36,-4.75 -22.75,-13.86 -36.82,-22.12 14.06,-2 31.39,-3.75 51.76,-3.75 1.76,0 3.52,0.02 5.29,0.04 24.65,12.61 62.75,15.06 88.64,15.06 16.46,0 27.97,-0.99 27.97,-0.99 0,0 0,0 0,0.01 0,0 0,0 -0.01,0 0,0 -0.01,0.01 -0.01,0.02 -0.01,0 -0.01,0 -0.01,0 -0.72,0.51 -12.15,8.39 -30.45,15.01 -13.52,4.89 -30.81,9.08 -50.3,9.08z"/>
   <path class="fil18" d="M809.07 733.35c18.3,-6.62 29.73,-14.5 30.45,-15.01 -0.72,0.5 -12.15,8.39 -30.45,15.01zm-106.36 -3.28l0 0c-10.36,-4.75 -22.75,-13.86 -36.82,-22.12l0 0c14.07,8.26 26.46,17.37 36.82,22.12l0 0zm136.82 -11.73c0,-0.01 0.01,-0.02 0.01,-0.02 0,0 -0.01,0.01 -0.01,0.02zm0.02 -0.02c0,-0.01 0,-0.01 0,-0.01l0 0c0,0 0,0 0,0.01z"/>
   <path class="fil19" d="M574.31 745.67c-0.44,0 -0.9,-0.08 -1.32,-0.26 -1.15,-0.46 -1.97,-1.46 -2.2,-2.66l-0.17 -0.93c-0.3,-1.49 -0.58,-2.97 -0.82,-4.48 -14.76,-90.66 32.17,-174.28 104.63,-186.4 7.88,-1.32 15.8,-1.99 23.56,-1.99 67.5,0 119.09,48.91 131.41,124.59 0.25,1.54 0.46,3.08 0.67,4.61l0.11 0.86c0.17,1.23 -0.31,2.46 -1.27,3.25 -0.98,0.8 -24.34,19.55 -74.21,19.56 -4.35,0 -8.83,-0.15 -13.33,-0.44 -7.92,-0.51 -15.9,-0.77 -23.72,-0.77 -31.96,0 -56.46,4.26 -72.68,7.08 -2.21,0.39 -4.31,0.75 -6.24,1.08 -12.75,2.14 -49.31,26.87 -62.32,36.22 -0.62,0.45 -1.35,0.68 -2.1,0.68z"/>
   <path class="fil3" d="M697.99 545.37c-7.96,0 -16.08,0.68 -24.14,2.03 -74.41,12.45 -122.67,97.91 -107.59,190.52 0.25,1.54 0.54,3.06 0.83,4.58l0.18 0.92c0.45,2.41 2.11,4.42 4.39,5.33 0.85,0.33 1.76,0.51 2.65,0.51 1.48,0 2.95,-0.46 4.19,-1.35 17.83,-12.81 50.1,-33.8 60.83,-35.61 1.93,-0.31 4.03,-0.68 6.26,-1.07 16.1,-2.8 40.41,-7.03 72.06,-7.03 7.74,0 15.65,0.26 23.49,0.76 4.57,0.3 9.13,0.45 13.56,0.45 51.14,0 75.47,-19.55 76.49,-20.38 1.91,-1.58 2.88,-4.04 2.54,-6.5l-0.11 -0.86c-0.21,-1.56 -0.42,-3.13 -0.67,-4.71 -12.63,-77.51 -65.6,-127.59 -134.96,-127.59zm0 7.17c61.45,0 114.99,42.46 127.88,121.58 0.28,1.8 0.52,3.59 0.76,5.37 0,0 -22.77,18.74 -71.93,18.74 -4.17,0 -8.54,-0.13 -13.11,-0.43 -8.4,-0.54 -16.38,-0.77 -23.95,-0.77 -36.6,0 -63.25,5.49 -79.5,8.2 -16.38,2.74 -63.83,36.85 -63.83,36.85 -0.33,-1.76 -0.68,-3.53 -0.97,-5.32 -14.47,-88.86 31.06,-170.47 101.69,-182.28 7.73,-1.3 15.41,-1.94 22.96,-1.94z"/>
   <path class="fil20" d="M574.31 742.08c-0.33,-1.76 -0.68,-3.53 -0.97,-5.32 -1.26,-7.76 -2.07,-15.46 -2.44,-23.07 0,-0.03 0,-0.06 0,-0.09 0,-0.01 0,-0.02 -0.01,-0.03 -2.19,-45.61 11.25,-87.7 35.25,-117.35 49.94,15.24 94.33,51.87 112.32,100.81 -0.27,0 -0.55,0 -0.82,0 -27.87,0 -49.96,3.18 -66.1,5.89 -5.06,0.85 -9.53,1.66 -13.4,2.31l0 0c-16.38,2.74 -63.83,36.85 -63.83,36.85z"/>
   <path class="fil18" d="M574.31 742.08c-0.33,-1.76 -0.68,-3.53 -0.97,-5.32 -1.26,-7.76 -2.07,-15.46 -2.44,-23.07 0.37,7.61 1.18,15.31 2.44,23.07 0.29,1.79 0.64,3.56 0.97,5.32 0,0 47.45,-34.11 63.83,-36.85l0 0c-16.38,2.74 -63.83,36.85 -63.83,36.85zm-3.41 -28.48c0,-0.01 -0.01,-0.02 -0.01,-0.03 0.01,0.01 0.01,0.02 0.01,0.03zm80.64 -10.68c16.14,-2.71 38.23,-5.89 66.1,-5.89 0.27,0 0.55,0 0.82,0 0.01,0.01 0.01,0.02 0.01,0.03 -0.27,0 -0.56,0 -0.83,0 -27.86,0 -49.96,3.16 -66.1,5.86z"/>
   <path class="fil21" d="M785.84 690.41c-1.62,0 -3.05,-1.09 -3.47,-2.68 -18.06,-68.85 -71.17,-118.82 -126.32,-118.82 -5.1,0 -10.26,0.43 -15.32,1.28l-0.6 0.05c-1.46,0 -2.82,-0.91 -3.35,-2.32 -0.6,-1.6 0.01,-3.41 1.46,-4.31 12.4,-7.73 25.83,-13.15 39.94,-16.09 8.17,-1.7 16.51,-2.55 24.79,-2.55 64.42,0 121.38,50.71 135.41,120.59 0.45,2.18 -0.8,4.21 -2.26,6.57 -0.39,0.63 -1.01,1.64 -1.24,2.15 -0.05,1.19 -0.7,2.3 -1.75,2.92 -0.79,0.48 -19.62,11.55 -47.08,13.2l-0.21 0.01z"/>
   <path class="fil3" d="M702.97 541.38c-8.53,0 -17.12,0.89 -25.52,2.63 -14.53,3.03 -28.36,8.6 -41.11,16.56 -2.91,1.81 -4.12,5.42 -2.91,8.62 1.07,2.82 3.76,4.64 6.69,4.64 0.41,0 0.82,-0.03 1.21,-0.11 4.87,-0.81 9.82,-1.22 14.72,-1.22 26.63,0 52.85,11.79 75.83,34.09 22.06,21.43 38.77,50.57 47.02,82.05 0.83,3.16 3.7,5.35 6.94,5.35l0.43 -0.01c28.33,-1.7 47.88,-13.21 48.7,-13.69 1.82,-1.09 3.04,-2.91 3.39,-4.92 0.22,-0.41 0.57,-0.96 0.81,-1.36 1.63,-2.62 3.46,-5.59 2.73,-9.17 -14.37,-71.53 -72.8,-123.46 -138.93,-123.46zm0 7.17c61.61,0 117.97,48.39 131.9,117.71 0.32,1.59 -3.85,6.28 -3.58,7.87 0,0 -18.55,11.07 -45.45,12.69 -17.22,-65.65 -70.09,-121.5 -129.79,-121.5 -5.26,0 -10.57,0.43 -15.92,1.33 11.72,-7.31 24.72,-12.68 38.77,-15.62 8.06,-1.67 16.11,-2.48 24.07,-2.48z"/>
   <path class="fil22" d="M785.84 690.41c-1.62,0 -3.05,-1.09 -3.47,-2.68 -18.06,-68.85 -71.17,-118.82 -126.32,-118.82 -5.1,0 -10.26,0.43 -15.32,1.28l-0.6 0.05c-1.46,0 -2.82,-0.91 -3.35,-2.32 -0.6,-1.6 0.01,-3.41 1.46,-4.31 3.13,-1.95 6.48,-3.84 9.96,-5.6 0.44,-0.22 0.92,-0.35 1.41,-0.37 1.97,-0.12 3.94,-0.17 5.91,-0.17 63.17,0 129.91,56.74 148.79,126.46 0.26,0.97 0.11,1.99 -0.42,2.84 -0.52,0.84 -1.38,1.43 -2.34,1.62 -5.11,1.01 -10.32,1.69 -15.49,2.01l-0.22 0.01z"/>
   <path class="fil3" d="M655.52 553.88l0 0c-2.03,0 -4.09,0.06 -6.11,0.17 -0.98,0.06 -1.95,0.32 -2.83,0.77 -3.56,1.8 -7.01,3.73 -10.23,5.74 -2.92,1.81 -4.13,5.43 -2.92,8.63 1.07,2.82 3.76,4.64 6.69,4.64 0.41,0 0.82,-0.03 1.21,-0.11 4.87,-0.81 9.82,-1.22 14.71,-1.22 26.64,0 52.86,11.79 75.84,34.1 22.06,21.42 38.77,50.56 47.02,82.04 0.83,3.16 3.7,5.35 6.94,5.35l0.44 -0.01c5.33,-0.33 10.7,-1.03 15.96,-2.07 1.94,-0.38 3.65,-1.56 4.7,-3.25 1.04,-1.69 1.34,-3.74 0.83,-5.66 -19.28,-71.2 -87.57,-129.12 -152.25,-129.12zm0 7.18c62.47,0 127.3,57.23 145.33,123.81 -4.62,0.92 -9.64,1.62 -15.01,1.95 -17.22,-65.65 -70.09,-121.5 -129.79,-121.5 -5.26,0 -10.57,0.43 -15.92,1.33 3.14,-1.95 6.37,-3.75 9.69,-5.43 1.9,-0.11 3.8,-0.16 5.7,-0.16z"/>
   <path class="fil12" d="M749.06 846.61c0.18,1.98 4.44,3.19 9.49,2.71 5.09,-0.46 9.04,-2.43 8.87,-4.4 -0.18,-1.97 -4.44,-3.18 -9.51,-2.71 -5.07,0.46 -9.04,2.44 -8.85,4.4z"/>
   <path class="fil13" d="M925.56 1078.72c-41.86,6.08 -81.39,34.32 -95.54,73.39 26.34,75.26 54.72,152.84 54.72,152.84 0,0 0.2,3.54 0.32,5.3 45.78,21.06 57.93,50.25 74.62,6.1 21.58,-57.1 -13.6,-158.33 -34.12,-237.63z"/>
   <path class="fil3" d="M888.51 1307.9c12.16,5.77 21.96,12.07 29.91,17.18 9.34,5.98 16.71,10.71 21.98,10.71l0 0c4,0 9.02,-2.45 15.91,-20.71 17.68,-46.77 -4.14,-125.77 -23.4,-195.47 -3.54,-12.82 -6.9,-24.97 -10,-36.83 -40.49,6.98 -75.87,34.47 -89.07,69.37 25.91,73.98 53.99,150.8 54.27,151.57l0.18 0.5 0.04 0.54c0,0 0.08,1.57 0.18,3.14zm51.89 35.07l0 0c-7.39,0 -15.13,-4.97 -25.85,-11.86 -8.19,-5.26 -18.38,-11.8 -31,-17.6l-1.93 -0.89 -0.15 -2.13c-0.08,-1.36 -0.22,-3.74 -0.27,-4.81 -2.49,-6.8 -29.62,-81.1 -54.57,-152.38l-0.41 -1.2 0.43 -1.21c14.05,-38.78 53.59,-69.21 98.39,-75.72l3.19 -0.46 0.8 3.12c3.32,12.8 6.95,25.95 10.8,39.86 19.55,70.76 41.7,150.97 23.2,199.93 -6.81,18.01 -13.37,25.35 -22.63,25.35z"/>
   <path class="fil12" d="M832.89 1145.11c-1.05,2.29 -2,4.62 -2.87,7 23.52,67.18 48.64,136.17 53.77,150.22 0.33,-1.2 0.7,-2.39 1,-3.59 16.5,-61.9 0.26,-123.78 -51.9,-153.63z"/>
   <path class="fil1" d="M822.39 942.86c13.18,-6.06 28.47,-5.77 42.83,1.48 29.06,14.7 58.22,104.95 77.34,202.06 -35.64,6.18 -75.76,26.83 -108.58,23.24 -5.55,-15.8 -11.67,-42.73 -16.95,-58.05l5.36 -168.73z"/>
   <path class="fil3" d="M841.82 1173.64c-2.79,0 -5.54,-0.14 -8.23,-0.43l-2.26 -0.25 -0.74 -2.13c-2.89,-8.25 -5.94,-19.5 -8.89,-30.37 -2.72,-10.02 -5.53,-20.36 -8.06,-27.7 -0.65,-1.87 0.35,-3.91 2.22,-4.56 1.88,-0.65 3.91,0.35 4.57,2.22 2.59,7.56 5.31,17.56 8.18,28.16 2.66,9.81 5.41,19.92 8,27.7 19.32,1.43 41.89,-5.58 63.71,-12.35 12.59,-3.91 25.57,-7.93 38,-10.39 -21.66,-108.64 -50.21,-183.6 -74.72,-196 -13.15,-6.65 -27.26,-7.15 -39.71,-1.43 -1.81,0.83 -3.94,0.04 -4.76,-1.76 -0.83,-1.8 -0.04,-3.92 1.76,-4.76 14.49,-6.65 30.8,-6.1 45.96,1.55 40.17,20.32 70.79,161.72 79.22,204.57l0.71 3.6 -3.62 0.63c-13.07,2.26 -27.12,6.62 -40.71,10.84 -20.42,6.34 -41.44,12.86 -60.63,12.86z"/>
   <path class="fil13" d="M446.12 1069.75c41.7,7.05 80.56,36.21 93.78,75.57 -28.07,74.63 -58.27,151.55 -58.27,151.55 0,0 -0.28,3.51 -0.43,5.28 -46.27,19.98 -67.6,51.6 -76.56,5.26 -13.67,-70.8 19.11,-158.87 41.48,-237.66z"/>
   <path class="fil3" d="M448.69 1073.86c-3.26,11.33 -6.75,23.01 -10.13,34.34 -20.53,68.64 -41.76,139.64 -30.38,198.53 3.6,18.67 8.71,21.07 12.74,21.07 6.08,0 14.92,-5.18 26.12,-11.74 8.89,-5.2 18.9,-11.06 30.75,-16.34l0.29 -3.67 0.2 -0.5c0.3,-0.76 30.19,-76.91 57.81,-150.28 -12.38,-35.18 -47.11,-63.48 -87.4,-71.41zm-27.77 261.11c-12.94,0 -17.37,-14.36 -19.79,-26.88 -11.71,-60.63 9.77,-132.47 30.56,-201.94 3.69,-12.36 7.5,-25.12 10.98,-37.39l0.88 -3.08 3.17 0.53c44.64,7.55 83.45,38.88 96.59,77.97l0.4 1.21 -0.45 1.2c-26.6,70.7 -55.46,144.36 -58.1,151.09l-0.56 6.91 -1.98 0.85c-12.32,5.32 -22.75,11.42 -31.95,16.81 -12.13,7.11 -21.73,12.72 -29.75,12.72z"/>
   <path class="fil12" d="M481.63 1296.87c0,0 30.2,-76.92 58.27,-151.55 -4.31,-12.84 -11.39,-24.57 -20.36,-34.82 -35.16,57.53 -51.58,127.58 -48.11,196.2 3.13,-1.55 6.37,-3.09 9.77,-4.55 0.15,-1.77 0.43,-5.28 0.43,-5.28z"/>
   <path class="fil1" d="M552.45 936.33c-13.02,-6.36 -28.33,-6.45 -42.85,0.47 -29.42,14.01 -60.68,103.55 -82.06,200.19 35.49,7.01 75.12,28.6 108.01,25.79 5.92,-15.67 10.25,-22.75 15.88,-37.93l1.02 -188.52z"/>
   <path class="fil3" d="M529.57 1166.61c-19.72,0 -41.31,-7.25 -62.26,-14.3 -13.48,-4.53 -27.44,-9.23 -40.46,-11.8l-3.61 -0.7 0.81 -3.59c9.42,-42.64 43.36,-183.29 83.99,-202.65 15.32,-7.3 31.65,-7.46 45.98,-0.48 1.78,0.88 2.52,3.03 1.64,4.81 -0.86,1.78 -3.02,2.52 -4.79,1.65 -12.32,-6.02 -26.44,-5.84 -39.74,0.49 -24.8,11.82 -55.08,86.08 -79.29,194.19 12.38,2.75 25.26,7.08 37.76,11.28 21.66,7.29 44.07,14.82 63.41,13.85 2.61,-6.74 4.93,-11.91 7.19,-16.92 2.59,-5.78 5.04,-11.23 7.87,-18.84 0.69,-1.85 2.75,-2.8 4.6,-2.11 1.86,0.68 2.81,2.75 2.12,4.6 -2.89,7.83 -5.52,13.66 -8.05,19.28 -2.44,5.44 -4.96,11.07 -7.85,18.68l-0.79 2.11 -2.24 0.19c-2.08,0.18 -4.18,0.26 -6.29,0.26z"/>
   <path class="fil23" d="M552.21 1121.35c-0.25,-0.06 -0.51,-0.08 -0.76,-0.08l0.38 -70.03 4.96 54.59c-1.32,5.15 -2.84,10.34 -4.58,15.52z"/>
   <path class="fil23" d="M539.61 1143.75l-30.24 -8.22c10.87,-25.74 29.69,-69.51 41.68,-92.78l0.78 8.49 -0.38 70.03c-0.01,0 -0.01,0 -0.02,0 -1.45,0 -2.83,0.88 -3.36,2.33 -2.83,7.61 -5.28,13.06 -7.87,18.84 -0.2,0.44 -0.39,0.87 -0.59,1.31z"/>
   <path class="fil24" d="M542.71 1144.6l-3.1 -0.85c0.2,-0.44 0.39,-0.87 0.59,-1.31 2.59,-5.78 5.04,-11.23 7.87,-18.84 0.53,-1.45 1.91,-2.33 3.36,-2.33 0.01,0 0.01,0 0.02,0 0.25,0 0.51,0.02 0.76,0.08 -2.65,7.88 -5.8,15.71 -9.5,23.25z"/>
   <path class="fil23" d="M831.79 1150.19c-1.06,-3.81 -2.13,-7.74 -3.18,-11.61 -2.15,-7.92 -4.2,-15.51 -6.19,-21.99l4.69 -51.58c12.22,26.34 26.46,59.87 34.03,77.92l-29.35 7.26z"/>
   <path class="fil24" d="M828.08 1151.1c-2.73,-4.94 -5.19,-10.06 -7.41,-15.27l1.75 -19.24c1.99,6.48 4.04,14.07 6.19,21.99 1.05,3.87 2.12,7.8 3.18,11.61l-3.71 0.91z"/>
   <path class="fil8" d="M848.1 1407.3l12.47 -227.11c0.11,-1.93 -1.33,-3.6 -3.26,-3.78l-43.56 -3.95 21.46 -236.1 0.01 -0.32c0,-10.05 -19.88,-14.43 -25.98,-15.54l-0.64 -0.05c-1.62,0 -3.09,1.1 -3.48,2.73l-62.22 253.23 -105.62 0 -62.21 -253.23c-0.4,-1.63 -1.86,-2.73 -3.48,-2.73l-0.65 0.05c-6.09,1.11 -25.98,5.49 -25.98,15.54l0.03 0.32 21.47 236.1 -43.58 3.95c-1.92,0.19 -3.36,1.85 -3.25,3.78l12.46 227.11 316.01 0z"/>
   <path class="fil3" d="M535.68 1407.3l-12.48 -227.31 47.14 -4.29 -21.78 -239.66c0,-7.84 23.03,-12.01 23.03,-12.01l62.87 255.97 111.26 0 62.88 -255.97c0,0 23.04,4.17 23.04,12.01l-21.79 239.66 47.14 4.29 -12.49 227.31 7.19 0 12.46 -226.92c0.22,-3.85 -2.67,-7.19 -6.51,-7.54l-40.01 -3.64 21.15 -232.51 0.03 -0.65c0,-12.03 -18.12,-17.11 -28.93,-19.07 -0.43,-0.07 -0.86,-0.11 -1.29,-0.11 -3.24,0 -6.16,2.2 -6.95,5.46l-61.55 250.5 -100 0 -61.53 -250.5c-0.81,-3.26 -3.73,-5.46 -6.97,-5.46 -0.42,0 -0.85,0.04 -1.28,0.11 -10.81,1.96 -28.93,7.04 -28.93,19.07l0.04 0.65 21.13 232.51 -40 3.64c-3.84,0.35 -6.72,3.69 -6.5,7.54l12.45 226.92 7.18 0z"/>
   <path class="fil9" d="M795.81 1181.67c13.21,-72.67 19.48,-147.66 33.5,-220.06l-19.46 214.09 8.89 0.82c-5.24,5.12 -12.89,5.15 -22.93,5.15z"/>
   <path class="fil9" d="M580.39 1186.35c0,0 -8.23,-7.33 -12.36,-10.43l2.31 -0.22 -21.78 -239.66c0,-0.01 0,-0.02 0,-0.03 0,0 0,0 0,-0.01 0,0 0,-0.01 0,-0.02 0,0 0,0 0,0 0,-0.01 0,-0.02 0,-0.02l0 -0.01c0.05,-2.32 2.14,-4.32 5.02,-5.98 14.15,84.23 26.81,256.38 26.81,256.38z"/>
   <path class="fil10" d="M570.34 1175.7l-21.78 -239.66 0 0 21.78 239.66zm-21.78 -239.69c0,0 0,0 0,-0.01 0,0.01 0,0.01 0,0.01zm0 -0.03c0,0 0,0 0,0 0,0 0,0 0,0zm0 -0.02l0 -0.01 0 0.01z"/>
   <path class="fil9" d="M844.5 1407.3l-68.97 0c41.18,-52.31 51.83,-124.27 62.07,-195.79l2.39 -0.59 15.51 -3.83 -11 200.21z"/>
   <path class="fil8" d="M589.98 1314.7c-1.98,0 -3.59,-1.6 -3.59,-3.58l0 -88.38c0,-1.98 1.61,-3.58 3.59,-3.58l199.46 0c1.98,0 3.58,1.6 3.58,3.58l0 88.38c0,1.98 -1.6,3.58 -3.58,3.58l-199.46 0z"/>
   <path class="fil3" d="M789.44 1215.57l-199.46 0c-3.96,0 -7.16,3.21 -7.16,7.17l0 88.38c0,3.96 3.2,7.18 7.16,7.18l199.46 0c3.96,0 7.17,-3.22 7.17,-7.18l0 -88.38c0,-3.96 -3.21,-7.17 -7.17,-7.17zm0 7.17l0 88.38 -199.46 0 0 -88.38 199.46 0z"/>
   <path class="fil8" d="M607.94 1250.74c-1.98,0 -3.59,-1.61 -3.59,-3.59l0 -10.54c0,-1.97 1.61,-3.58 3.59,-3.58l163.55 0c1.98,0 3.58,1.61 3.58,3.58l0 10.54c0,1.98 -1.6,3.59 -3.58,3.59l-163.55 0z"/>
   <path class="fil3" d="M771.49 1229.44l-163.55 0c-3.97,0 -7.18,3.22 -7.18,7.17l0 10.54c0,3.97 3.21,7.18 7.18,7.18l163.55 0c3.96,0 7.17,-3.21 7.17,-7.18l0 -10.54c0,-3.95 -3.21,-7.17 -7.17,-7.17zm0 7.17l0 10.54 -163.55 0 0 -10.54 163.55 0z"/>
   <path class="fil25" d="M767.83 1333.16c-7.09,0 -12.97,-1.78 -17.5,-5.3l-0.03 0.01c-0.13,0 -0.6,-0.08 -1.52,-0.08 -2.32,0 -5.66,0.5 -9.21,1.02 -4.25,0.63 -8.64,1.29 -12.46,1.29 -8.46,0 -10.87,-3.68 -11.4,-6.76 -0.07,-0.48 -8.23,-48.85 -1.48,-60.68 0.71,-1.23 2.49,-3.28 6.48,-3.28 6.21,0 16.41,5.27 21.65,8.23 6.38,-10.89 23.72,-38.33 36.35,-38.33 3.22,0 7.59,1.54 10.08,8.94 2.39,7.06 -1,12.83 -5.09,17.13 2.3,-0.66 4.64,-1.44 7.04,-2.41 18.1,-7.26 34.37,-11.1 47.06,-11.1 18.64,0 25.86,8.25 28.62,15.18 8.2,20.46 -13.2,47.66 -48.71,61.9 -17.53,7.03 -35.54,14.24 -49.88,14.24z"/>
   <path class="fil3" d="M778.71 1225.69l0 0c-13.23,0 -28.91,22.53 -37.67,37.09 -6.02,-3.2 -14.39,-6.99 -20.33,-6.99 -5.8,0 -8.48,3.18 -9.58,5.07 -7.51,13.15 0.7,61.06 1.04,63.1 0.63,3.62 3.41,9.72 14.94,9.72 4.08,0 8.61,-0.67 12.99,-1.32 3.26,-0.48 6.63,-0.98 8.68,-0.98l0.29 0c5.03,3.57 11.33,5.36 18.76,5.36 15.03,0 33.37,-7.34 51.11,-14.44 37.49,-15.05 59.75,-44.29 50.81,-66.62 -3.18,-7.95 -11.3,-17.43 -31.95,-17.43 -12.47,0 -28.16,3.53 -45.53,10.24 1.13,-3.38 1.35,-7.19 -0.08,-11.42 -3.35,-9.9 -9.88,-11.38 -13.48,-11.38zm0 7.17c2.79,0 5.13,1.9 6.69,6.51 2.7,8 -4.49,14.16 -10.13,18.65 -1.75,1.41 -3.35,2.61 -4.88,3.7 6.58,-0.97 13.93,-2.32 21.69,-5.45 16.82,-6.75 32.95,-10.84 45.72,-10.84 12.42,0 21.67,3.87 25.29,12.91 7.33,18.32 -13.63,43.98 -46.71,57.26 -17.33,6.94 -34.87,13.97 -48.55,13.97 -5.95,0 -11.18,-1.33 -15.33,-4.58 -0.73,-0.57 -2.03,-0.79 -3.72,-0.79 -5.45,0 -14.92,2.31 -21.67,2.31 -4.21,0 -7.35,-0.89 -7.87,-3.79 -2.93,-16.94 -6.52,-50.2 -1.89,-58.29 0.6,-1.03 1.79,-1.46 3.36,-1.46 7.36,0 22.96,9.57 22.96,9.57 0,0 22.25,-39.68 35.04,-39.68z"/>
   <path class="fil25" d="M508.57 1379.81c-8.5,0 -15.13,-3.02 -19.72,-8.98 -6.82,-8.86 -7.14,-21.67 -0.9,-36.09 5.94,-13.7 17.21,-27.41 31.72,-38.58 18.81,-14.44 38.15,-29.29 54.69,-29.29 3.35,0 6.51,0.6 9.43,1.8 1.71,-0.07 6.53,-2.23 10.4,-3.96 6.14,-2.75 12.49,-5.59 17.41,-5.59 4.81,0 6.83,2.72 7.6,4.34 0.21,0.45 21.86,46.01 18.49,59.6 -0.93,3.7 -4.56,5.58 -10.77,5.58 -6.05,0 -13.91,-1.68 -18.42,-2.79 -3.83,14.95 -13.97,48.43 -27.68,48.43 -3.65,0 -6.97,-2.15 -9.87,-6.37 -4.4,-6.41 -2.5,-13.17 0.41,-18.6 -2.19,1.34 -4.43,2.84 -6.63,4.54 -21.75,16.74 -41.71,25.96 -56.16,25.96z"/>
   <path class="fil3" d="M611.6 1255.53c-5.69,0 -12.39,3 -18.88,5.91 -2.77,1.24 -6.82,3.05 -8.67,3.49 -3.05,-1.1 -6.3,-1.65 -9.69,-1.65 -17.76,0 -37.59,15.22 -56.76,29.95 -15.11,11.63 -26.76,25.83 -32.93,40.08 -6.8,15.67 -6.31,29.78 1.36,39.71 5.2,6.79 13,10.37 22.54,10.37 18.68,0 40.51,-13.27 56.22,-25.08 -0.28,3.76 0.51,7.73 3.21,11.64 4.48,6.54 9.44,7.91 12.82,7.91 9.18,0 16.66,-9.02 24.24,-29.27 2.56,-6.85 4.61,-13.64 5.98,-18.48 4.68,1.03 10.83,2.12 15.88,2.12 10.06,0 13.31,-4.51 14.25,-8.29 3.73,-15.07 -17.82,-60.12 -18.74,-62.04 -1.94,-4.04 -5.89,-6.37 -10.83,-6.37zm0 7.18c2.01,0 3.57,0.65 4.37,2.3 7.66,15.95 20.54,47.89 18.23,57.18 -0.52,2.13 -3.47,2.86 -7.28,2.86 -8.41,0 -21.02,-3.59 -21.02,-3.59 0,0 -11.8,49.23 -25.08,49.23 -2.28,0 -4.6,-1.44 -6.92,-4.8 -4.91,-7.17 0.48,-15.28 4.79,-21.3 1.35,-1.86 2.58,-3.48 3.8,-4.99 -6.25,2.77 -13.14,6.16 -19.94,11.4 -19.64,15.11 -39.39,25.22 -53.98,25.22 -7.02,0 -12.84,-2.34 -16.87,-7.58 -12.4,-16.09 1.14,-47.3 30.16,-69.64 18.44,-14.16 37.15,-28.55 52.5,-28.55 2.81,0 5.5,0.48 8.06,1.53 0.34,0.14 0.74,0.21 1.22,0.21 5.68,0 20.24,-9.49 27.96,-9.48z"/>
   <polygon class="fil1" points="408.62,1167.53 422.73,1115.67 547.1,1149.5 532.99,1201.37 "/>
   <path class="fil3" d="M420.21 1111.27l-1.88 6.92 -12.24 44.94 -1.88 6.93 6.92 1.88 117.46 31.95 6.91 1.88 1.89 -6.92 12.23 -44.94 1.88 -6.93 -6.93 -1.88 -117.44 -31.95 -6.92 -1.88zm5.04 8.81l117.44 31.94 -12.22 44.94 -117.46 -31.95 12.24 -44.93z"/>
   <polygon class="fil23" points="530.47,1196.96 530.47,1196.96 491.8,1186.44 505.04,1141.78 542.69,1152.02 "/>
   <path class="fil24" d="M530.47 1196.96l0 0 12.22 -44.94 -12.22 44.94zm12.22 -44.94l-37.65 -10.24 0 0 37.65 10.24z"/>
   <polygon class="fil1" points="822.75,1156.11 947.87,1125.21 960.76,1177.38 835.64,1208.29 "/>
   <path class="fil3" d="M950.49 1120.86l-6.97 1.73 -118.14 29.18 -6.97 1.72 1.72 6.97 11.18 45.22 1.72 6.96 6.96 -1.72 118.14 -29.2 6.97 -1.72 -1.72 -6.97 -11.17 -45.2 -1.72 -6.97zm-5.25 8.69l11.18 45.21 -118.16 29.19 -11.17 -45.22 118.15 -29.18z"/>
   <polygon class="fil23" points="838.26,1203.95 827.09,1158.73 860.65,1150.44 871.67,1195.06 956.27,1174.16 956.42,1174.76 "/>
   <path class="fil13" d="M406.84 1316.35c14.53,40.41 30.93,38.19 52.05,41.35 188.34,8.1 280.23,-33.75 280.23,-33.75l-11.52 -45.9c0,0 -121.66,-2.62 -248.44,-25.14l-72.32 63.44z"/>
   <path class="fil3" d="M505.99 1362.31c-14.99,0 -30.75,-0.32 -47.26,-1.03l-0.37 -0.03c-2.09,-0.32 -4.13,-0.58 -6.13,-0.83 -18.75,-2.38 -34.95,-4.42 -48.77,-42.85 -0.67,-1.87 0.3,-3.92 2.16,-4.59 1.86,-0.68 3.92,0.29 4.59,2.16 12.34,34.29 25.17,35.91 42.92,38.16 1.99,0.25 4.03,0.51 6.1,0.82 167.58,7.18 259.09,-25.66 275.66,-32.29l-10.1 -40.26c-18.8,-0.57 -131.09,-4.67 -246.26,-25.13 -1.95,-0.35 -3.26,-2.21 -2.91,-4.16 0.36,-1.95 2.21,-3.25 4.17,-2.9 125.06,22.2 246.68,25.06 247.89,25.09 1.61,0.03 3.01,1.15 3.4,2.71l11.51 45.9c0.43,1.67 -0.41,3.42 -1.99,4.14 -0.95,0.43 -23.87,10.74 -70.25,20.16 -35.43,7.19 -90.67,14.93 -164.36,14.93z"/>
   <path class="fil13" d="M959.68 1316.35c-14.54,40.41 -30.95,38.19 -52.05,41.35 -183.58,-4.04 -336.98,-90.77 -336.98,-90.77 0,0 31.33,-17.92 68.92,-16.26 36.41,1.61 33.68,7.07 69.6,8.86 47,2.34 106.31,6.14 178.19,-6.62l72.32 63.44z"/>
   <path class="fil3" d="M907.63 1361.28l-0.08 0c-182.36,-4 -337.12,-90.35 -338.66,-91.22 -1.13,-0.65 -1.82,-1.82 -1.82,-3.12 0,-1.29 0.69,-2.48 1.8,-3.12 1.32,-0.75 32.67,-18.39 70.85,-16.73 18.73,0.83 27.45,2.7 35.88,4.5 8.01,1.71 16.29,3.49 33.75,4.35l6.69 0.34c45.71,2.31 102.58,5.19 170.69,-6.9 1.96,-0.35 3.81,0.95 4.16,2.9 0.35,1.95 -0.96,3.81 -2.91,4.16 -68.9,12.24 -126.23,9.34 -172.3,7.01l-6.69 -0.34c-18.04,-0.9 -26.6,-2.73 -34.89,-4.5 -8.51,-1.83 -16.56,-3.55 -34.68,-4.35 -26.63,-1.18 -50.26,7.89 -60.95,12.79 30.13,15.73 168.77,83.45 328.93,87.05 2.03,-0.3 4.03,-0.55 5.99,-0.8 17.74,-2.25 30.57,-3.87 42.91,-38.16 0.66,-1.86 2.73,-2.83 4.59,-2.16 1.86,0.67 2.83,2.72 2.16,4.59 -13.83,38.43 -30.03,40.47 -48.77,42.85 -1.99,0.25 -4.04,0.51 -6.13,0.83l-0.52 0.03z"/>
  </g>
 </g>
</svg>
